{
.appVersion = "1141";
DisplayStrings = (
"jÄÅÉÖÜñÀÃÕ/Ydieresis ÂÊÁËÈÍÎÏÌÓÔÒÚÛÙ/Scaron/Zcaron Ý/Idotaccent/Scedilla/Abreve/dcaron/Ecaron/Lcaron/lcaron/nacute/ncaron/Ohungarumlaut/Racute/Rcaron/Sacute/Tcaron/tcaron/Uring/Uhungarumlaut/Zacute/Zdotaccent/ij/Amacron/Emacron/Ebreve/Edotaccent/Itilde/Imacron/Ibreve/Omacron/Obreve/Scircumflex/Utilde/Umacron/Ubreve/Wcircumflex/wcircumflex/Ycircumflex/AEacute/Wgrave/wgrave/Wacute/wacute/Wdieresis/wdieresis/Ygrave/uni1E60/uni1E6A/napostrophe/uni1E1F/Scommaaccent/scommaaccent/Tcedilla/Tcommaaccent/f_f_l ý/ygrave/ydieresis/ycircumflex/uni01C9/uni01CC/uni01C8/uni01CB/uni0259/uni01C4/uni01C5/I.uc/uni01C6"
);
classes = (
{
code = "onesuperior twosuperior threesuperior";
name = sups2;
},
{
code = "one two three";
name = sups1;
},
{
code = "zero one two three four five six seven eight nine";
name = ordn1;
}
);
copyright = "Copyright (c) 2012, Sorkin Type Co (www.sorkintype.com) with Reserved Font Name 'Gelasio'";
customParameters = (
{
name = macintoshFONDFamilyID;
value = 128;
},
{
name = macintoshFONDName;
value = Gelasio;
},
{
name = openTypeHeadFlags;
value = (
0,
1,
3,
4
);
},
{
name = description;
value = "Gelasio is a general purpose screen oriented text face based on the Romain du Roi style cold metal type seen in a \"OEuvres de Jean Racine\" printed in 1789. This pre-Baskerville style is sometimes called Reale or Transitional style. This and and a large x height offer a nobel, cheerful and simple feeling hence the name Gelasio.";
},
{
name = openTypeNameLicense;
value = "This Font Software is licensed under the SIL Open Font License, Version 1.1. This license is available with a FAQ at: http://scripts.sil.org/OFL";
},
{
name = openTypeNameLicenseURL;
value = "http://scripts.sil.org/OFL";
},
{
name = openTypeNameSampleText;
value = "";
},
{
name = openTypeNameUniqueID;
value = "EbenSorkin: Gelasio Bold Italic: 2012";
},
{
name = openTypeNameVersion;
value = "Version 1.001";
},
{
name = codePageRanges;
value = (
1252,
1250,

glyphs = (
{
glyphname = A;
layers = (
{
anchors = (
{
name = btm;
position = "{585, -170}";
},
{
name = top;
position = "{945, 1700}";
}
);
layerId = "BDB4B313-38B1-4B24-B843-560B185382BD";
paths = (
{
closed = 1;
nodes = (
"1023 132 OFFCURVE",
"1023 125 OFFCURVE",
"1023 122 CURVE SMOOTH",
"1023 87 OFFCURVE",
"959 95 OFFCURVE",
"874 88 CURVE SMOOTH",
"847 86 OFFCURVE",
"838 71 OFFCURVE",
"838 48 CURVE SMOOTH",
"838 32 OFFCURVE",
"845 0 OFFCURVE",
"867 0 CURVE SMOOTH",
"1513 0 LINE SMOOTH",
"1535 0 OFFCURVE",
"1552 28 OFFCURVE",
"1552 53 CURVE SMOOTH",
"1552 79 OFFCURVE",
"1540 88 OFFCURVE",
"1508 88 CURVE SMOOTH",
"1438 88 OFFCURVE",
"1396 130 OFFCURVE",
"1381 184 CURVE",
"993 1451 LINE",
"817 1451 LINE",
"122 186 LINE SMOOTH",
"90 128 OFFCURVE",
"33 104 OFFCURVE",
"-54 88 CURVE SMOOTH",
"-69 85 OFFCURVE",
"-92 79 OFFCURVE",
"-92 44 CURVE SMOOTH",
"-92 27 OFFCURVE",
"-84 0 OFFCURVE",
"-64 0 CURVE SMOOTH",
"405 0 LINE SMOOTH",
"432 0 OFFCURVE",
"440 29 OFFCURVE",
"440 52 CURVE SMOOTH",
"440 72 OFFCURVE",
"436 83 OFFCURVE",
"401 87 CURVE SMOOTH",
"319 96 OFFCURVE",
"253 113 OFFCURVE",
"253 146 CURVE SMOOTH",
"253 160 OFFCURVE",
"264 188 OFFCURVE",
"271 201 CURVE SMOOTH",
"764 1126 LINE",
"1020 142 LINE SMOOTH"
);
},
{
closed = 1;
nodes = (
"1011 408 LINE",
"1011 494 LINE",
"364 494 LINE",
"364 408 LINE"
);
}
);
width = 1552;
}
);
unicode = 0041;
},
{
glyphname = Aogonek;
layers = (
{
components = (
{
name = A;
}
);
layerId = "BDB4B313-38B1-4B24-B843-560B185382BD";
paths = (
{
closed = 1;
nodes = (
"887 -385 OFFCURVE",
"963 -452 OFFCURVE",
"1129 -452 CURVE SMOOTH",
"1229 -452 OFFCURVE",
"1353 -414 OFFCURVE",
"1429 -329 CURVE SMOOTH",
"1441 -315 OFFCURVE",
"1416 -257 OFFCURVE",
"1389 -266 CURVE",
"1362 -280 OFFCURVE",
"1291 -330 OFFCURVE",
"1227 -330 CURVE SMOOTH",
"1170 -330 OFFCURVE",
"1117 -313 OFFCURVE",
"1117 -228 CURVE SMOOTH",
"1117 -153 OFFCURVE",
"1213 -68 OFFCURVE",
"1409 21 CURVE",
"1271 12 LINE",
"1058 -28 OFFCURVE",
"887 -154 OFFCURVE",
"887 -293 CURVE SMOOTH"
);
}
);
width = 1552;
}
);
unicode = 0104;
},
{
glyphname = AE;
layers = (
{
anchors = (
{
name = btm;
position = "{1078, -170}";
},
{
name = top;
position = "{1419, 1700}";
}
);
layerId = "BDB4B313-38B1-4B24-B843-560B185382BD";
paths = (
{
closed = 1;
nodes = (
"921 108 OFFCURVE",
"873 93 OFFCURVE",
"808 88 CURVE",
"781 85 OFFCURVE",
"772 72 OFFCURVE",
"771 51 CURVE SMOOTH",
"770 36 OFFCURVE",
"778 0 OFFCURVE",
"801 0 CURVE SMOOTH",
"2033 1 LINE",
"2096 372 LINE SMOOTH",
"2100 395 OFFCURVE",
"2074 406 OFFCURVE",
"2049 406 CURVE SMOOTH",
"2028 406 OFFCURVE",
"1988 398 OFFCURVE",
"1979 373 CURVE SMOOTH",
"1933 250 OFFCURVE",
"1841 101 OFFCURVE",
"1707 101 CURVE SMOOTH",
"1356 101 LINE SMOOTH",
"1309 101 OFFCURVE",
"1248 117 OFFCURVE",
"1263 197 CURVE",
"1447 1357 LINE",
"1387 1331 LINE",
"1845 1332 LINE SMOOTH",
"1989 1332 OFFCURVE",
"2009 1152 OFFCURVE",
"2004 1103 CURVE SMOOTH",
"2001 1077 OFFCURVE",
"2030 1070 OFFCURVE",
"2051 1070 CURVE SMOOTH",
"2066 1070 OFFCURVE",
"2106 1081 OFFCURVE",
"2109 1104 CURVE",
"2134 1418 LINE",
"656 1419 LINE SMOOTH",
"633 1419 OFFCURVE",
"621 1393 OFFCURVE",
"618 1378 CURVE",
"610 1348 OFFCURVE",
"625 1331 OFFCURVE",
"653 1331 CURVE",
"866 1321 LINE",
"199 199 LINE SMOOTH",
"152 121 OFFCURVE",
"67 92 OFFCURVE",
"15 88 CURVE SMOOTH",
"-6 86 OFFCURVE",
"-22 77 OFFCURVE",
"-22 51 CURVE SMOOTH",
"-22 36 OFFCURVE",
"-20 0 OFFCURVE",
"2 0 CURVE SMOOTH",
"470 0 LINE SMOOTH",
"493 0 OFFCURVE",
"513 29 OFFCURVE",
"513 51 CURVE SMOOTH",
"513 73 OFFCURVE",
"510 85 OFFCURVE",
"485 88 CURVE",
"347 88 OFFCURVE",
"327 156 OFFCURVE",
"354 204 CURVE SMOOTH",
"990 1320 LINE",
"1091 1320 LINE",
"931 152 LINE"
);
},
{
closed = 1;
nodes = (
"1073 429 LINE",
"1073 515 LINE",
"426 515 LINE",
"426 429 LINE"
);
},
{
closed = 1;
nodes = (
"1603 682 LINE SMOOTH",
"1660 682 OFFCURVE",
"1675 546 OFFCURVE",
"1674 503 CURVE",
"1672 477 OFFCURVE",
"1709 470 OFFCURVE",
"1740 470 CURVE SMOOTH",
"1755 470 OFFCURVE",
"1783 481 OFFCURVE",
"1787 504 CURVE SMOOTH",
"1857 947 LINE SMOOTH",
"1861 970 OFFCURVE",
"1835 981 OFFCURVE",
"1820 981 CURVE SMOOTH",
"1791 981 OFFCURVE",
"1752 974 OFFCURVE",
"1744 948 CURVE SMOOTH",
"1733 908 OFFCURVE",
"1674 785 OFFCURVE",
"1621 778 CURVE",
"1177 778 LINE",
"1179 682 LINE"
);
}
);
width = 2202;
}
);
unicode = 00C6;
},
{
glyphname = B;
layers = (
{
anchors = (
{
name = btm;
position = "{638, -170}";
},
{
name = top;
position = "{939, 1700}";
}
);
layerId = "BDB4B313-38B1-4B24-B843-560B185382BD";
paths = (
{
closed = 1;
nodes = (
"23 35 OFFCURVE",
"27 0 OFFCURVE",
"51 0 CURVE SMOOTH",
"743 0 LINE SMOOTH",
"1274 0 OFFCURVE",
"1485 165 OFFCURVE",
"1491 437 CURVE SMOOTH",
"1495 635 OFFCURVE",
"1302 737 OFFCURVE",
"1099 747 CURVE",
"1330 765 OFFCURVE",
"1462 933 OFFCURVE",
"1465 1104 CURVE SMOOTH",
"1469 1305 OFFCURVE",
"1327 1419 OFFCURVE",
"867 1419 CURVE SMOOTH",
"238 1419 LINE SMOOTH",
"215 1419 OFFCURVE",
"198 1383 OFFCURVE",
"196 1368 CURVE SMOOTH",
"195 1363 OFFCURVE",
"195 1359 OFFCURVE",
"195 1355 CURVE SMOOTH",
"194 1337 OFFCURVE",
"203 1333 OFFCURVE",
"226 1331 CURVE SMOOTH",
"290 1326 OFFCURVE",
"375 1321 OFFCURVE",
"374 1248 CURVE SMOOTH",
"374 1243 OFFCURVE",
"374 1239 OFFCURVE",
"373 1234 CURVE SMOOTH",
"221 152 LINE",
"214 107 OFFCURVE",
"137 94 OFFCURVE",
"62 88 CURVE SMOOTH",
"35 86 OFFCURVE",
"26 71 OFFCURVE",
"24 51 CURVE SMOOTH"
);
},
{
closed = 1;
nodes = (
"765 704 LINE SMOOTH",
"940 704 OFFCURVE",
"1124 696 OFFCURVE",
"1122 458 CURVE",
"1116 131 OFFCURVE",
"897 100 OFFCURVE",
"737 100 CURVE SMOOTH",
"704 100 OFFCURVE",
"565 104 OFFCURVE",
"565 137 CURVE",
"730 1331 LINE",
"816 1331 LINE SMOOTH",
"1019 1331 OFFCURVE",
"1126 1277 OFFCURVE",
"1124 1128 CURVE SMOOTH",
"1121 894 OFFCURVE",
"1044 790 OFFCURVE",
"836 790 CURVE SMOOTH",
"572 790 LINE",
"591 704 LINE"
);
}
);
width = 1554;
}
);
unicode = 0042;
},
{
glyphname = C;
layers = (
{
anchors = (
{
name = btm;
position = "{726, -170}";
},
{
name = top;
position = "{1036, 1700}";
}
);
layerId = "BDB4B313-38B1-4B24-B843-560B185382BD";
paths = (
{
closed = 1;
nodes = (
"1098 -30 OFFCURVE",
"1331 70 OFFCURVE",
"1340 98 CURVE",
"1381 375 LINE",
"1381 396 OFFCURVE",
"1316 406 OFFCURVE",
"1299 406 CURVE SMOOTH",
"1272 406 OFFCURVE",
"1256 398 OFFCURVE",
"1244 372 CURVE SMOOTH",
"1157 149 OFFCURVE",
"1068 65 OFFCURVE",
"842 65 CURVE SMOOTH",
"667 65 OFFCURVE",
"479 200 OFFCURVE",
"479 621 CURVE SMOOTH",
"479 1115 OFFCURVE",
"755 1353 OFFCURVE",
"996 1353 CURVE SMOOTH",
"1201 1353 OFFCURVE",
"1309 1253 OFFCURVE",
"1309 1070 CURVE SMOOTH",
"1309 1063 OFFCURVE",
"1309 1056 OFFCURVE",
"1309 1049 CURVE SMOOTH",
"1311 1027 OFFCURVE",
"1344 1010 OFFCURVE",
"1370 1010 CURVE SMOOTH",
"1387 1010 OFFCURVE",
"1452 1020 OFFCURVE",
"1453 1051 CURVE",
"1491 1361 LINE",
"1426 1392 OFFCURVE",
"1278 1449 OFFCURVE",
"1013 1449 CURVE SMOOTH",
"516 1449 OFFCURVE",
"106 1119 OFFCURVE",
"106 629 CURVE SMOOTH",
"106 214 OFFCURVE",
"353 -30 OFFCURVE",
"838 -30 CURVE SMOOTH"
);
}
);
width = 1464;
}
);
unicode = 0043;
},
{
glyphname = D;
layers = (
{
anchors = (
{
name = btm;
position = "{695, -170}";
},
{
name = top;
position = "{1058, 1700}";
}
);
layerId = "BDB4B313-38B1-4B24-B843-560B185382BD";
paths = (
{
closed = 1;
nodes = (
"37 36 OFFCURVE",
"45 0 OFFCURVE",
"67 0 CURVE SMOOTH",
"817 0 LINE SMOOTH",
"1276 0 OFFCURVE",
"1671 329 OFFCURVE",
"1671 877 CURVE SMOOTH",
"1671 1158 OFFCURVE",
"1472 1417 OFFCURVE",
"978 1419 CURVE",
"281 1419 LINE SMOOTH",
"258 1419 OFFCURVE",
"240 1383 OFFCURVE",
"239 1368 CURVE",
"234 1338 OFFCURVE",
"241 1334 OFFCURVE",
"268 1331 CURVE SMOOTH",
"328 1326 OFFCURVE",
"418 1320 OFFCURVE",
"405 1234 CURVE",
"233 152 LINE",
"227 108 OFFCURVE",
"143 93 OFFCURVE",
"78 88 CURVE",
"51 85 OFFCURVE",
"42 72 OFFCURVE",
"40 51 CURVE"
);
},
{
closed = 1;
nodes = (
"767 1331 LINE",
"881 1331 LINE SMOOTH",
"1130 1331 OFFCURVE",
"1306 1251 OFFCURVE",
"1306 904 CURVE SMOOTH",
"1306 338 OFFCURVE",
"1067 91 OFFCURVE",
"763 91 CURVE SMOOTH",
"549 91 OFFCURVE",
"578 130 OFFCURVE",
"583 158 CURVE"
);
}
);
width = 1708;
}
);
unicode = 0044;
},
{
glyphname = Eth;
layers = (
{
components = (
{
name = D;
}
);
layerId = "BDB4B313-38B1-4B24-B843-560B185382BD";
paths = (
{
closed = 1;
nodes = (
"1011 700 OFFCURVE",
"1021 722 OFFCURVE",
"1021 747 CURVE SMOOTH",
"1021 763 OFFCURVE",
"1013 790 OFFCURVE",
"997 791 CURVE",
"148 791 LINE",
"134 785 OFFCURVE",
"124 753 OFFCURVE",
"124 728 CURVE SMOOTH",
"124 712 OFFCURVE",
"132 695 OFFCURVE",
"148 694 CURVE",
"997 694 LINE"
);
}
);
width = 1708;
}
);
unicode = 00D0;
},
{
glyphname = Dcroat;
layers = (
{
components = (
{
name = D;
}
);
layerId = "BDB4B313-38B1-4B24-B843-560B185382BD";
paths = (
{
closed = 1;
nodes = (
"1011 700 OFFCURVE",
"1021 722 OFFCURVE",
"1021 747 CURVE SMOOTH",
"1021 763 OFFCURVE",
"1013 790 OFFCURVE",
"997 791 CURVE",
"148 791 LINE",
"134 785 OFFCURVE",
"124 753 OFFCURVE",
"124 728 CURVE SMOOTH",
"124 712 OFFCURVE",
"132 695 OFFCURVE",
"148 694 CURVE",
"997 694 LINE"
);
}
);
width = 1708;
}
);
unicode = 0110;
},
{
glyphname = E;
layers = (
{
anchors = (
{
name = btm;
position = "{626, -170}";
},
{
name = top;
position = "{942, 1700}";
}
);
layerId = "BDB4B313-38B1-4B24-B843-560B185382BD";
paths = (
{
closed = 1;
nodes = (
"919 682 LINE SMOOTH",
"976 682 OFFCURVE",
"991 546 OFFCURVE",
"990 503 CURVE",
"988 477 OFFCURVE",
"1025 470 OFFCURVE",
"1056 470 CURVE SMOOTH",
"1071 470 OFFCURVE",
"1099 481 OFFCURVE",
"1103 504 CURVE SMOOTH",
"1173 947 LINE SMOOTH",
"1177 970 OFFCURVE",
"1151 981 OFFCURVE",
"1136 981 CURVE SMOOTH",
"1107 981 OFFCURVE",
"1068 974 OFFCURVE",
"1060 948 CURVE SMOOTH",
"1049 908 OFFCURVE",
"990 785 OFFCURVE",
"937 778 CURVE",
"493 778 LINE",
"495 682 LINE"
);
},
{
closed = 1;
nodes = (
"1140 1331 LINE SMOOTH",
"1287 1331 OFFCURVE",
"1300 1144 OFFCURVE",
"1300 1103 CURVE SMOOTH",
"1300 1077 OFFCURVE",
"1328 1070 OFFCURVE",
"1349 1070 CURVE SMOOTH",
"1367 1070 OFFCURVE",
"1400 1081 OFFCURVE",
"1404 1104 CURVE",
"1429 1419 LINE",
"231 1419 LINE SMOOTH",
"208 1419 OFFCURVE",
"190 1383 OFFCURVE",
"189 1368 CURVE",
"184 1338 OFFCURVE",
"190 1334 OFFCURVE",
"218 1331 CURVE SMOOTH",
"278 1326 OFFCURVE",
"388 1320 OFFCURVE",
"375 1234 CURVE",
"223 152 LINE",
"217 108 OFFCURVE",
"113 93 OFFCURVE",
"48 88 CURVE",
"21 85 OFFCURVE",
"12 72 OFFCURVE",
"10 51 CURVE",
"7 36 OFFCURVE",
"14 0 OFFCURVE",
"37 0 CURVE SMOOTH",
"1345 0 LINE",
"1414 372 LINE",
"1415 395 OFFCURVE",
"1392 406 OFFCURVE",
"1355 406 CURVE SMOOTH",
"1334 406 OFFCURVE",
"1305 398 OFFCURVE",
"1297 373 CURVE",
"1282 332 OFFCURVE",
"1189 101 OFFCURVE",
"1025 101 CURVE SMOOTH",
"652 101 LINE",
"608 105 OFFCURVE",
"567 124 OFFCURVE",
"577 197 CURVE SMOOTH",
"737 1331 LINE"
);
}
);
width = 1477;
}
);
unicode = 0045;
},
{
glyphname = Eogonek;
layers = (
{
components = (
{
name = E;
}
);
layerId = "BDB4B313-38B1-4B24-B843-560B185382BD";
paths = (
{
closed = 1;
nodes = (
"730 -385 OFFCURVE",
"806 -452 OFFCURVE",
"972 -452 CURVE SMOOTH",
"1072 -452 OFFCURVE",
"1196 -414 OFFCURVE",
"1272 -329 CURVE SMOOTH",
"1284 -315 OFFCURVE",
"1259 -257 OFFCURVE",
"1232 -266 CURVE",
"1205 -280 OFFCURVE",
"1134 -330 OFFCURVE",
"1070 -330 CURVE SMOOTH",
"1013 -330 OFFCURVE",
"960 -313 OFFCURVE",
"960 -228 CURVE SMOOTH",
"960 -153 OFFCURVE",
"1056 -68 OFFCURVE",
"1252 21 CURVE",
"1114 12 LINE",
"901 -28 OFFCURVE",
"730 -154 OFFCURVE",
"730 -293 CURVE SMOOTH"
);
}
);
width = 1477;
}
);
unicode = 0118;
},
{
glyphname = F;
layers = (
{
anchors = (
{
name = btm;
position = "{620, -170}";
},
{
name = top;
position = "{944, 1700}";
}
);
layerId = "BDB4B313-38B1-4B24-B843-560B185382BD";
paths = (
{
closed = 1;
nodes = (
"7 36 OFFCURVE",
"14 0 OFFCURVE",
"37 0 CURVE SMOOTH",
"819 0 LINE SMOOTH",
"842 0 OFFCURVE",
"850 36 OFFCURVE",
"853 51 CURVE SMOOTH",
"857 81 OFFCURVE",
"844 87 OFFCURVE",
"822 88 CURVE SMOOTH",
"627 98 OFFCURVE",
"554 110 OFFCURVE",
"567 197 CURVE SMOOTH",
"736 1331 LINE",
"1115 1331 LINE SMOOTH",
"1221 1331 OFFCURVE",
"1283 1108 OFFCURVE",
"1283 1069 CURVE SMOOTH",
"1280 1043 OFFCURVE",
"1298 1036 OFFCURVE",
"1319 1036 CURVE SMOOTH",
"1340 1036 OFFCURVE",
"1380 1047 OFFCURVE",
"1387 1070 CURVE",
"1405 1419 LINE",
"241 1419 LINE SMOOTH",
"218 1419 OFFCURVE",
"200 1383 OFFCURVE",
"199 1368 CURVE SMOOTH",
"194 1338 OFFCURVE",
"200 1334 OFFCURVE",
"228 1331 CURVE",
"300 1326 OFFCURVE",
"398 1320 OFFCURVE",
"385 1234 CURVE SMOOTH",
"223 152 LINE SMOOTH",
"217 108 OFFCURVE",
"128 93 OFFCURVE",
"48 88 CURVE",
"21 85 OFFCURVE",
"12 72 OFFCURVE",
"10 51 CURVE SMOOTH"
);
},
{
closed = 1;
nodes = (
"899 643 LINE SMOOTH",
"956 643 OFFCURVE",
"971 507 OFFCURVE",
"970 464 CURVE",
"968 438 OFFCURVE",
"1005 431 OFFCURVE",
"1036 431 CURVE SMOOTH",
"1051 431 OFFCURVE",
"1079 442 OFFCURVE",
"1083 465 CURVE SMOOTH",
"1153 908 LINE SMOOTH",
"1157 931 OFFCURVE",
"1128 942 OFFCURVE",
"1113 942 CURVE SMOOTH",
"1084 942 OFFCURVE",
"1048 935 OFFCURVE",
"1040 909 CURVE SMOOTH",
"1029 869 OFFCURVE",
"970 746 OFFCURVE",
"917 739 CURVE",
"473 739 LINE",
"475 643 LINE"
);
}
);
width = 1374;
}
);
unicode = 0046;
},
{
glyphname = G;
layers = (
{
anchors = (
{
name = btm;
position = "{763, -170}";
},
{
name = top;
position = "{1080, 1700}";
}
);
layerId = "BDB4B313-38B1-4B24-B843-560B185382BD";
paths = (
{
closed = 1;
nodes = (
"119 126 OFFCURVE",
"482 -30 OFFCURVE",
"817 -30 CURVE SMOOTH",
"1132 -30 OFFCURVE",
"1362 79 OFFCURVE",
"1396 123 CURVE",
"1459 489 LINE",
"1459 533 OFFCURVE",
"1532 548 OFFCURVE",
"1595 553 CURVE SMOOTH",
"1626 556 OFFCURVE",
"1636 576 OFFCURVE",
"1635 603 CURVE SMOOTH",
"1635 620 OFFCURVE",
"1627 641 OFFCURVE",
"1610 641 CURVE SMOOTH",
"958 641 LINE SMOOTH",
"916 641 OFFCURVE",
"916 569 OFFCURVE",
"913 574 CURVE",
"914 559 OFFCURVE",
"923 554 OFFCURVE",
"944 553 CURVE",
"1015 547 OFFCURVE",
"1122 543 OFFCURVE",
"1125 475 CURVE",
"1124 469 OFFCURVE",
"1123 463 OFFCURVE",
"1124 456 CURVE",
"1069 170 LINE",
"1053 129 OFFCURVE",
"962 65 OFFCURVE",
"790 65 CURVE SMOOTH",
"666 65 OFFCURVE",
"482 187 OFFCURVE",
"475 568 CURVE SMOOTH",
"466 906 OFFCURVE",
"609 1353 OFFCURVE",
"958 1353 CURVE SMOOTH",
"1138 1353 OFFCURVE",
"1325 1327 OFFCURVE",
"1355 1039 CURVE SMOOTH",
"1362 1011 OFFCURVE",
"1390 1010 OFFCURVE",
"1427 1010 CURVE SMOOTH",
"1443 1010 OFFCURVE",
"1484 1020 OFFCURVE",
"1485 1051 CURVE",
"1534 1361 LINE",
"1459 1392 OFFCURVE",
"1344 1449 OFFCURVE",
"984 1449 CURVE SMOOTH",
"525 1449 OFFCURVE",
"87 1145 OFFCURVE",
"105 575 CURVE SMOOTH"
);
}
);
width = 1653;
}
);
unicode = 0047;
},
{
glyphname = H;
layers = (
{
anchors = (
{
name = btm;
position = "{831, -170}";
},
{
name = top;
position = "{1194, 1700}";
}
);
layerId = "BDB4B313-38B1-4B24-B843-560B185382BD";
paths = (
{
closed = 1;
nodes = (
"727 1311 OFFCURVE",
"809 1326 OFFCURVE",
"875 1331 CURVE",
"901 1334 OFFCURVE",
"910 1347 OFFCURVE",
"913 1368 CURVE SMOOTH",
"917 1383 OFFCURVE",
"911 1419 OFFCURVE",
"888 1419 CURVE SMOOTH",
"263 1419 LINE SMOOTH",
"240 1419 OFFCURVE",
"220 1394 OFFCURVE",
"220 1377 CURVE SMOOTH",
"220 1347 OFFCURVE",
"223 1334 OFFCURVE",
"251 1331 CURVE SMOOTH",
"316 1326 OFFCURVE",
"402 1320 OFFCURVE",
"385 1234 CURVE SMOOTH",
"224 152 LINE SMOOTH",
"215 108 OFFCURVE",
"137 93 OFFCURVE",
"68 88 CURVE",
"41 85 OFFCURVE",
"33 72 OFFCURVE",
"28 51 CURVE SMOOTH",
"26 36 OFFCURVE",
"34 0 OFFCURVE",
"57 0 CURVE SMOOTH",
"682 0 LINE SMOOTH",
"705 0 OFFCURVE",
"721 24 OFFCURVE",
"721 51 CURVE SMOOTH",
"721 71 OFFCURVE",
"719 85 OFFCURVE",
"692 88 CURVE SMOOTH",
"632 93 OFFCURVE",
"541 99 OFFCURVE",
"558 185 CURVE SMOOTH",
"719 1267 LINE"
);
},
{
closed = 1;
nodes = (
"1201 108 OFFCURVE",
"1118 93 OFFCURVE",
"1053 88 CURVE",
"1026 85 OFFCURVE",
"1018 72 OFFCURVE",
"1013 51 CURVE SMOOTH",
"1011 36 OFFCURVE",
"1019 0 OFFCURVE",
"1042 0 CURVE SMOOTH",
"1687 0 LINE SMOOTH",
"1710 0 OFFCURVE",
"1726 23 OFFCURVE",
"1726 51 CURVE SMOOTH",
"1726 71 OFFCURVE",
"1724 85 OFFCURVE",
"1697 88 CURVE SMOOTH",
"1629 93 OFFCURVE",
"1524 99 OFFCURVE",
"1543 185 CURVE SMOOTH",
"1704 1267 LINE SMOOTH",
"1710 1311 OFFCURVE",
"1782 1326 OFFCURVE",
"1840 1331 CURVE",
"1866 1334 OFFCURVE",
"1875 1347 OFFCURVE",
"1878 1368 CURVE SMOOTH",
"1881 1383 OFFCURVE",
"1876 1419 OFFCURVE",
"1853 1419 CURVE SMOOTH",
"1248 1419 LINE SMOOTH",
"1225 1419 OFFCURVE",
"1205 1392 OFFCURVE",
"1205 1374 CURVE SMOOTH",
"1205 1344 OFFCURVE",
"1208 1334 OFFCURVE",
"1236 1331 CURVE SMOOTH",
"1303 1326 OFFCURVE",
"1385 1319 OFFCURVE",
"1370 1234 CURVE SMOOTH",
"1209 152 LINE"
);
},
{
closed = 1;
nodes = (
"1360 682 LINE",
"1360 778 LINE",
"583 778 LINE",
"583 682 LINE"
);
}
);
width = 1870;
}
);
unicode = 0048;
},
{
glyphname = Hbar;
layers = (
{
layerId = "BDB4B313-38B1-4B24-B843-560B185382BD";
paths = (
{
closed = 1;
nodes = (
"1867 911 OFFCURVE",
"1879 933 OFFCURVE",
"1881 958 CURVE SMOOTH",
"1883 974 OFFCURVE",
"1877 1001 OFFCURVE",
"1862 1002 CURVE",
"145 1002 LINE",
"130 996 OFFCURVE",
"117 964 OFFCURVE",
"114 939 CURVE SMOOTH",
"113 923 OFFCURVE",
"119 906 OFFCURVE",
"135 905 CURVE",
"1852 905 LINE"
);
},
{
closed = 1;
nodes = (
"730 1311 OFFCURVE",
"812 1326 OFFCURVE",
"878 1331 CURVE",
"904 1334 OFFCURVE",
"913 1347 OFFCURVE",
"916 1368 CURVE",
"920 1383 OFFCURVE",
"914 1419 OFFCURVE",
"891 1419 CURVE SMOOTH",
"266 1419 LINE SMOOTH",
"243 1419 OFFCURVE",
"227 1383 OFFCURVE",
"223 1368 CURVE",
"219 1338 OFFCURVE",
"226 1334 OFFCURVE",
"254 1331 CURVE",
"319 1326 OFFCURVE",
"405 1320 OFFCURVE",
"388 1234 CURVE",
"219 152 LINE",
"210 108 OFFCURVE",
"132 93 OFFCURVE",
"63 88 CURVE",
"36 85 OFFCURVE",
"28 72 OFFCURVE",
"23 51 CURVE",
"21 36 OFFCURVE",
"29 0 OFFCURVE",
"52 0 CURVE SMOOTH",
"677 0 LINE SMOOTH",
"700 0 OFFCURVE",
"714 36 OFFCURVE",
"716 51 CURVE",
"722 81 OFFCURVE",
"714 85 OFFCURVE",
"687 88 CURVE SMOOTH",
"627 93 OFFCURVE",
"536 99 OFFCURVE",
"553 185 CURVE",
"722 1267 LINE"
);
},
{
closed = 1;
nodes = (
"1196 108 OFFCURVE",
"1113 93 OFFCURVE",
"1048 88 CURVE",
"1021 85 OFFCURVE",
"1013 72 OFFCURVE",
"1008 51 CURVE",
"1006 36 OFFCURVE",
"1014 0 OFFCURVE",
"1037 0 CURVE SMOOTH",
"1682 0 LINE SMOOTH",
"1705 0 OFFCURVE",
"1720 36 OFFCURVE",
"1721 51 CURVE",
"1727 81 OFFCURVE",
"1719 85 OFFCURVE",
"1692 88 CURVE",
"1624 93 OFFCURVE",
"1519 99 OFFCURVE",
"1538 185 CURVE",
"1707 1267 LINE",
"1713 1311 OFFCURVE",
"1785 1326 OFFCURVE",
"1843 1331 CURVE SMOOTH",
"1869 1334 OFFCURVE",
"1878 1347 OFFCURVE",
"1881 1368 CURVE SMOOTH",
"1884 1383 OFFCURVE",
"1879 1419 OFFCURVE",
"1856 1419 CURVE SMOOTH",
"1251 1419 LINE SMOOTH",
"1228 1419 OFFCURVE",
"1212 1383 OFFCURVE",
"1208 1368 CURVE",
"1204 1338 OFFCURVE",
"1211 1334 OFFCURVE",
"1239 1331 CURVE",
"1306 1326 OFFCURVE",
"1388 1319 OFFCURVE",
"1373 1234 CURVE",
"1204 152 LINE"
);
},
{
closed = 1;
nodes = (
"1338 554 LINE",
"1338 650 LINE",
"561 650 LINE",
"561 554 LINE"
);
}
);
width = 1870;
}
);
unicode = 0126;
},
{
glyphname = I;
layers = (
{
anchors = (
{
name = btm;
position = "{312, -170}";
},
{
name = top;
position = "{675, 1700}";
}
);
layerId = "BDB4B313-38B1-4B24-B843-560B185382BD";
paths = (
{
closed = 1;
nodes = (
"66 36 OFFCURVE",
"68 0 OFFCURVE",
"91 0 CURVE SMOOTH",
"746 0 LINE SMOOTH",
"769 0 OFFCURVE",
"787 36 OFFCURVE",
"789 51 CURVE SMOOTH",
"795 81 OFFCURVE",
"787 85 OFFCURVE",
"760 88 CURVE SMOOTH",
"700 93 OFFCURVE",
"599 99 OFFCURVE",
"616 185 CURVE SMOOTH",
"757 1267 LINE SMOOTH",
"768 1311 OFFCURVE",
"838 1326 OFFCURVE",
"906 1331 CURVE SMOOTH",
"932 1334 OFFCURVE",
"943 1347 OFFCURVE",
"946 1368 CURVE SMOOTH",
"948 1383 OFFCURVE",
"946 1419 OFFCURVE",
"923 1419 CURVE SMOOTH",
"278 1419 LINE SMOOTH",
"255 1419 OFFCURVE",
"235 1383 OFFCURVE",
"233 1368 CURVE SMOOTH",
"227 1338 OFFCURVE",
"234 1334 OFFCURVE",
"262 1331 CURVE SMOOTH",
"322 1326 OFFCURVE",
"421 1320 OFFCURVE",
"405 1234 CURVE SMOOTH",
"262 152 LINE SMOOTH",
"256 108 OFFCURVE",
"171 93 OFFCURVE",
"106 88 CURVE SMOOTH",
"80 85 OFFCURVE",
"71 72 OFFCURVE",
"68 51 CURVE SMOOTH"
);
}
);
width = 924;
}
);
unicode = 0049;
},
{
glyphname = Iogonek;
layers = (
{
components = (
{
name = I;
}
);
layerId = "BDB4B313-38B1-4B24-B843-560B185382BD";
paths = (
{
closed = 1;
nodes = (
"98 -385 OFFCURVE",
"174 -452 OFFCURVE",
"340 -452 CURVE SMOOTH",
"440 -452 OFFCURVE",
"564 -414 OFFCURVE",
"640 -329 CURVE SMOOTH",
"652 -315 OFFCURVE",
"627 -257 OFFCURVE",
"600 -266 CURVE",
"573 -280 OFFCURVE",
"502 -330 OFFCURVE",
"438 -330 CURVE SMOOTH",
"381 -330 OFFCURVE",
"328 -313 OFFCURVE",
"328 -228 CURVE SMOOTH",
"328 -153 OFFCURVE",
"424 -68 OFFCURVE",
"620 21 CURVE",
"482 12 LINE",
"269 -28 OFFCURVE",
"98 -154 OFFCURVE",
"98 -293 CURVE SMOOTH"
);
}
);
width = 924;
}
);
unicode = 012E;
},
{
glyphname = J;
layers = (
{
anchors = (
{
name = btm;
position = "{546, -170}";
},
{
name = top;
position = "{1057, 1700}";
}
);
layerId = "BDB4B313-38B1-4B24-B843-560B185382BD";
paths = (
{
closed = 1;
nodes = (
"697 -30 OFFCURVE",
"964 48 OFFCURVE",
"1041 439 CURVE SMOOTH",
"1159 1267 LINE SMOOTH",
"1165 1311 OFFCURVE",
"1282 1325 OFFCURVE",
"1342 1331 CURVE SMOOTH",
"1367 1333 OFFCURVE",
"1382 1350 OFFCURVE",
"1382 1372 CURVE SMOOTH",
"1382 1389 OFFCURVE",
"1377 1419 OFFCURVE",
"1356 1419 CURVE SMOOTH",
"611 1419 LINE SMOOTH",
"581 1419 OFFCURVE",
"577 1375 OFFCURVE",
"577 1352 CURVE SMOOTH",
"577 1337 OFFCURVE",
"586 1332 OFFCURVE",
"608 1331 CURVE SMOOTH",
"766 1326 OFFCURVE",
"816 1323 OFFCURVE",
"816 1259 CURVE SMOOTH",
"816 1254 OFFCURVE",
"816 1239 OFFCURVE",
"815 1234 CURVE SMOOTH",
"695 406 LINE SMOOTH",
"658 134 OFFCURVE",
"590 59 OFFCURVE",
"454 59 CURVE SMOOTH",
"375 59 OFFCURVE",
"305 104 OFFCURVE",
"305 177 CURVE",
"347 447 LINE",
"347 487 OFFCURVE",
"292 532 OFFCURVE",
"222 532 CURVE SMOOTH",
"67 532 OFFCURVE",
"7 425 OFFCURVE",
"7 318 CURVE SMOOTH",
"7 53 OFFCURVE",
"269 -30 OFFCURVE",
"449 -30 CURVE SMOOTH"
);
}
);
width = 1219;
}
);
unicode = 004A;
},
{
glyphname = K;
layers = (
{
anchors = (
{
name = btm;
position = "{783, -170}";
},
{
name = top;
position = "{1047, 1700}";
}
);
layerId = "BDB4B313-38B1-4B24-B843-560B185382BD";
paths = (
{
closed = 1;
nodes = (
"27 36 OFFCURVE",
"34 0 OFFCURVE",
"57 0 CURVE SMOOTH",
"712 0 LINE SMOOTH",
"734 0 OFFCURVE",
"750 36 OFFCURVE",
"753 51 CURVE",
"757 81 OFFCURVE",
"749 85 OFFCURVE",
"722 88 CURVE",
"647 93 OFFCURVE",
"551 99 OFFCURVE",
"565 185 CURVE SMOOTH",
"717 1267 LINE SMOOTH",
"724 1312 OFFCURVE",
"794 1325 OFFCURVE",
"862 1331 CURVE SMOOTH",
"888 1333 OFFCURVE",
"898 1347 OFFCURVE",
"902 1368 CURVE",
"903 1383 OFFCURVE",
"899 1419 OFFCURVE",
"876 1419 CURVE SMOOTH",
"251 1419 LINE SMOOTH",
"228 1419 OFFCURVE",
"210 1383 OFFCURVE",
"209 1368 CURVE",
"204 1338 OFFCURVE",
"210 1334 OFFCURVE",
"238 1331 CURVE SMOOTH",
"298 1326 OFFCURVE",
"389 1320 OFFCURVE",
"375 1234 CURVE SMOOTH",
"223 152 LINE SMOOTH",
"216 108 OFFCURVE",
"133 94 OFFCURVE",
"68 88 CURVE SMOOTH",
"41 85 OFFCURVE",
"32 72 OFFCURVE",
"30 51 CURVE"
);
},
{
closed = 1;
nodes = (
"776 625 OFFCURVE",
"867 495 OFFCURVE",
"1094 70 CURVE SMOOTH",
"1109 41 OFFCURVE",
"1127 0 OFFCURVE",
"1194 0 CURVE SMOOTH",
"1612 0 LINE SMOOTH",
"1634 0 OFFCURVE",
"1646 17 OFFCURVE",
"1649 32 CURVE SMOOTH",
"1654 62 OFFCURVE",
"1651 86 OFFCURVE",
"1622 89 CURVE SMOOTH",
"1527 99 OFFCURVE",
"1423 244 OFFCURVE",
"1371 317 CURVE SMOOTH",
"1302 415 OFFCURVE",
"1225 554 OFFCURVE",
"991 846 CURVE",
"1365 1211 LINE SMOOTH",
"1399 1245 OFFCURVE",
"1495 1330 OFFCURVE",
"1656 1330 CURVE SMOOTH",
"1678 1330 OFFCURVE",
"1692 1343 OFFCURVE",
"1697 1367 CURVE",
"1698 1382 OFFCURVE",
"1694 1418 OFFCURVE",
"1671 1418 CURVE SMOOTH",
"1149 1418 LINE SMOOTH",
"1126 1418 OFFCURVE",
"1108 1382 OFFCURVE",
"1107 1367 CURVE",
"1103 1346 OFFCURVE",
"1105 1332 OFFCURVE",
"1130 1330 CURVE SMOOTH",
"1200 1324 OFFCURVE",
"1259 1303 OFFCURVE",
"1259 1275 CURVE SMOOTH",
"1259 1266 OFFCURVE",
"1255 1256 OFFCURVE",
"1244 1246 CURVE SMOOTH",
"693 692 LINE"
);
}
);
width = 1673;
}
);
unicode = 004B;
},
{
glyphname = L;
layers = (
{
anchors = (
{
name = btm;
position = "{654, -170}";
},
{
name = top;
position = "{703, 1700}";
}
);
layerId = "BDB4B313-38B1-4B24-B843-560B185382BD";
paths = (
{
closed = 1;
nodes = (
"27 36 OFFCURVE",
"34 0 OFFCURVE",
"57 0 CURVE SMOOTH",
"1248 0 LINE",
"1363 497 LINE SMOOTH",
"1369 520 OFFCURVE",
"1326 531 OFFCURVE",
"1297 531 CURVE SMOOTH",
"1276 531 OFFCURVE",
"1246 522 OFFCURVE",
"1235 498 CURVE SMOOTH",
"1161 354 OFFCURVE",
"1044 101 OFFCURVE",
"924 101 CURVE SMOOTH",
"654 101 LINE SMOOTH",
"609 102 OFFCURVE",
"574 116 OFFCURVE",
"583 177 CURVE SMOOTH",
"722 1237 LINE SMOOTH",
"735 1311 OFFCURVE",
"824 1331 OFFCURVE",
"892 1331 CURVE SMOOTH",
"918 1331 OFFCURVE",
"928 1347 OFFCURVE",
"932 1368 CURVE SMOOTH",
"933 1383 OFFCURVE",
"929 1419 OFFCURVE",
"906 1419 CURVE SMOOTH",
"241 1419 LINE SMOOTH",
"218 1419 OFFCURVE",
"200 1383 OFFCURVE",
"199 1368 CURVE SMOOTH",
"194 1338 OFFCURVE",
"200 1334 OFFCURVE",
"228 1331 CURVE SMOOTH",
"288 1326 OFFCURVE",
"378 1320 OFFCURVE",
"365 1234 CURVE SMOOTH",
"223 152 LINE SMOOTH",
"217 108 OFFCURVE",
"133 94 OFFCURVE",
"68 88 CURVE SMOOTH",
"41 85 OFFCURVE",
"32 72 OFFCURVE",
"30 51 CURVE SMOOTH"
);
}
);
width = 1405;
}
);
unicode = 004C;
},
{
glyphname = Lslash;
layers = (
{
components = (
{
name = L;
}
);
layerId = "BDB4B313-38B1-4B24-B843-560B185382BD";
paths = (
{
closed = 1;
nodes = (
"1072 861 OFFCURVE",
"1066 904 OFFCURVE",
"1057 927 CURVE SMOOTH",
"1051 942 OFFCURVE",
"1037 955 OFFCURVE",
"1022 950 CURVE",
"68 630 LINE",
"58 619 OFFCURVE",
"56 595 OFFCURVE",
"65 572 CURVE SMOOTH",
"71 557 OFFCURVE",
"92 525 OFFCURVE",
"107 530 CURVE",
"1061 850 LINE"
);
}
);
width = 1405;
}
);
unicode = 0141;
},
{
glyphname = M;
layers = (
{
anchors = (
{
name = btm;
position = "{853, -170}";
},
{
name = top;
position = "{1216, 1700}";
}
);
layerId = "BDB4B313-38B1-4B24-B843-560B185382BD";
paths = (
{
closed = 1;
nodes = (
"952 0 LINE",
"1548 1281 LINE",
"1577 1281 LINE",
"1489 152 LINE SMOOTH",
"1484 108 OFFCURVE",
"1360 93 OFFCURVE",
"1295 88 CURVE",
"1268 85 OFFCURVE",
"1260 72 OFFCURVE",
"1257 51 CURVE SMOOTH",
"1255 36 OFFCURVE",
"1262 0 OFFCURVE",
"1284 0 CURVE SMOOTH",
"1986 0 LINE SMOOTH",
"2008 0 OFFCURVE",
"2024 36 OFFCURVE",
"2027 51 CURVE SMOOTH",
"2031 81 OFFCURVE",
"2023 85 OFFCURVE",
"1996 88 CURVE SMOOTH",
"1936 93 OFFCURVE",
"1818 99 OFFCURVE",
"1828 185 CURVE SMOOTH",
"1907 1267 LINE SMOOTH",
"1912 1311 OFFCURVE",
"2018 1326 OFFCURVE",
"2083 1331 CURVE",
"2109 1334 OFFCURVE",
"2118 1347 OFFCURVE",
"2121 1368 CURVE SMOOTH",
"2123 1383 OFFCURVE",
"2119 1419 OFFCURVE",
"2096 1419 CURVE SMOOTH",
"1498 1419 LINE",
"1481 1373 OFFCURVE",
"1466 1326 OFFCURVE",
"1429 1246 CURVE",
"1062 484 LINE",
"1050 484 LINE",
"884 1419 LINE",
"238 1419 LINE",
"213 1418 OFFCURVE",
"197 1383 OFFCURVE",
"195 1368 CURVE SMOOTH",
"191 1338 OFFCURVE",
"198 1334 OFFCURVE",
"226 1331 CURVE",
"298 1326 OFFCURVE",
"430 1319 OFFCURVE",
"413 1234 CURVE SMOOTH",
"217 184 LINE SMOOTH",
"200 101 OFFCURVE",
"79 93 OFFCURVE",
"1 88 CURVE",
"-26 85 OFFCURVE",
"-33 72 OFFCURVE",
"-36 51 CURVE SMOOTH",
"-38 36 OFFCURVE",
"-34 0 OFFCURVE",
"-12 0 CURVE SMOOTH",
"483 0 LINE SMOOTH",
"506 0 OFFCURVE",
"522 36 OFFCURVE",
"524 51 CURVE SMOOTH",
"528 81 OFFCURVE",
"520 85 OFFCURVE",
"493 88 CURVE",
"421 93 OFFCURVE",
"298 100 OFFCURVE",
"315 185 CURVE SMOOTH",
"517 1281 LINE",
"553 1281 LINE",
"847 0 LINE"
);
}
);
width = 2116;
}
);
unicode = 004D;
},
{
glyphname = N;
layers = (
{
anchors = (
{
name = btm;
position = "{818, -170}";
},
{
name = top;
position = "{1072, 1700}";
}
);
layerId = "BDB4B313-38B1-4B24-B843-560B185382BD";
paths = (
{
closed = 1;
nodes = (
"-33 36 OFFCURVE",
"-28 0 OFFCURVE",
"-5 0 CURVE SMOOTH",
"513 0 LINE SMOOTH",
"536 0 OFFCURVE",
"551 36 OFFCURVE",
"554 51 CURVE SMOOTH",
"560 81 OFFCURVE",
"552 85 OFFCURVE",
"525 88 CURVE SMOOTH",
"465 93 OFFCURVE",
"305 99 OFFCURVE",
"322 185 CURVE SMOOTH",
"486 1180 LINE",
"503 1180 LINE",
"1114 -8 LINE",
"1122 -20 OFFCURVE",
"1214 -30 OFFCURVE",
"1235 -30 CURVE SMOOTH",
"1312 -30 OFFCURVE",
"1376 -16 OFFCURVE",
"1393 40 CURVE SMOOTH",
"1397 78 OFFCURVE",
"1396 88 OFFCURVE",
"1400 113 CURVE SMOOTH",
"1580 1234 LINE SMOOTH",
"1598 1320 OFFCURVE",
"1730 1325 OFFCURVE",
"1791 1331 CURVE SMOOTH",
"1817 1334 OFFCURVE",
"1827 1347 OFFCURVE",
"1831 1368 CURVE SMOOTH",
"1834 1383 OFFCURVE",
"1830 1419 OFFCURVE",
"1807 1419 CURVE SMOOTH",
"1282 1419 LINE SMOOTH",
"1259 1419 OFFCURVE",
"1241 1383 OFFCURVE",
"1238 1368 CURVE SMOOTH",
"1233 1338 OFFCURVE",
"1239 1334 OFFCURVE",
"1267 1331 CURVE SMOOTH",
"1326 1326 OFFCURVE",
"1497 1320 OFFCURVE",
"1480 1234 CURVE SMOOTH",
"1339 308 LINE",
"1327 308 LINE",
"755 1419 LINE",
"254 1419 LINE SMOOTH",
"231 1419 OFFCURVE",
"213 1383 OFFCURVE",
"210 1368 CURVE SMOOTH",
"205 1338 OFFCURVE",
"211 1334 OFFCURVE",
"239 1331 CURVE SMOOTH",
"299 1326 OFFCURVE",
"410 1290 OFFCURVE",
"393 1204 CURVE SMOOTH",
"220 172 LINE SMOOTH",
"207 108 OFFCURVE",
"73 93 OFFCURVE",
"10 88 CURVE",
"-17 85 OFFCURVE",
"-26 72 OFFCURVE",
"-30 51 CURVE SMOOTH"
);
}
);
width = 1700;
}
);
unicode = 004E;
},
{
glyphname = Eng;
layers = (
{
anchors = (
{
name = btm;
position = "{761, -170}";
},
{
name = top;
position = "{761, 1700}";
}
);
layerId = "BDB4B313-38B1-4B24-B843-560B185382BD";
paths = (
{
closed = 1;
nodes = (
"-36 36 OFFCURVE",
"-31 0 OFFCURVE",
"-8 0 CURVE SMOOTH",
"507 0 LINE SMOOTH",
"530 0 OFFCURVE",
"545 36 OFFCURVE",
"548 51 CURVE SMOOTH",
"554 81 OFFCURVE",
"546 85 OFFCURVE",
"519 88 CURVE SMOOTH",
"459 93 OFFCURVE",
"299 99 OFFCURVE",
"316 185 CURVE SMOOTH",
"481 1180 LINE",
"498 1180 LINE",
"1111 -8 LINE",
"1119 -20 OFFCURVE",
"1209 -30 OFFCURVE",
"1230 -30 CURVE SMOOTH",
"1307 -30 OFFCURVE",
"1373 32 OFFCURVE",
"1390 88 CURVE",
"1391 95 OFFCURVE",
"1392 106 OFFCURVE",
"1392 113 CURVE",
"1584 1234 LINE SMOOTH",
"1599 1321 OFFCURVE",
"1737 1325 OFFCURVE",
"1798 1331 CURVE SMOOTH",
"1824 1334 OFFCURVE",
"1834 1347 OFFCURVE",
"1838 1368 CURVE SMOOTH",
"1841 1383 OFFCURVE",
"1837 1419 OFFCURVE",
"1814 1419 CURVE SMOOTH",
"1289 1419 LINE SMOOTH",
"1266 1419 OFFCURVE",
"1248 1383 OFFCURVE",
"1245 1368 CURVE SMOOTH",
"1240 1338 OFFCURVE",
"1246 1334 OFFCURVE",
"1274 1331 CURVE SMOOTH",
"1333 1326 OFFCURVE",
"1504 1320 OFFCURVE",
"1487 1234 CURVE SMOOTH",
"1334 308 LINE",
"1322 308 LINE",
"748 1419 LINE",
"249 1419 LINE SMOOTH",
"226 1419 OFFCURVE",
"208 1383 OFFCURVE",
"205 1368 CURVE SMOOTH",
"200 1338 OFFCURVE",
"206 1334 OFFCURVE",
"234 1331 CURVE SMOOTH",
"294 1326 OFFCURVE",
"408 1290 OFFCURVE",
"391 1204 CURVE SMOOTH",
"217 172 LINE SMOOTH",
"206 108 OFFCURVE",
"70 94 OFFCURVE",
"7 88 CURVE SMOOTH",
"-20 85 OFFCURVE",
"-29 72 OFFCURVE",
"-33 51 CURVE SMOOTH"
);
},
{
closed = 1;
nodes = (
"708 -138 OFFCURVE",
"644 -202 OFFCURVE",
"644 -285 CURVE SMOOTH",
"644 -355 OFFCURVE",
"701 -449 OFFCURVE",
"856 -449 CURVE SMOOTH",
"1153 -449 OFFCURVE",
"1346 -221 OFFCURVE",
"1390 88 CURVE SMOOTH",
"1365 203 LINE",
"1366 235 OFFCURVE",
"1352 242 OFFCURVE",
"1341 243 CURVE SMOOTH",
"1274 247 OFFCURVE",
"1212 183 OFFCURVE",
"1132 117 CURVE",
"1111 -8 LINE",
"1162 -121 OFFCURVE",
"1066 -305 OFFCURVE",
"899 -347 CURVE",
"847 -202 LINE SMOOTH",
"831 -158 OFFCURVE",
"809 -138 OFFCURVE",
"766 -138 CURVE SMOOTH"
);
}
);
width = 1700;
}
);
unicode = 014A;
},
{
glyphname = O;
layers = (
{
anchors = (
{
name = btm;
position = "{716, -170}";
},
{
name = top;
position = "{1079, 1700}";
}
);
layerId = "BDB4B313-38B1-4B24-B843-560B185382BD";
paths = (
{
closed = 1;
nodes = (
"111 249 OFFCURVE",
"320 -29 OFFCURVE",
"772 -29 CURVE SMOOTH",
"1318 -29 OFFCURVE",
"1643 390 OFFCURVE",
"1643 838 CURVE SMOOTH",
"1643 1182 OFFCURVE",
"1430 1449 OFFCURVE",
"964 1449 CURVE SMOOTH",
"430 1449 OFFCURVE",
"111 1045 OFFCURVE",
"111 596 CURVE SMOOTH"
);
},
{
closed = 1;
nodes = (
"562 65 OFFCURVE",
"479 231 OFFCURVE",
"479 499 CURVE SMOOTH",
"479 905 OFFCURVE",
"583 1356 OFFCURVE",
"966 1356 CURVE SMOOTH",
"1195 1356 OFFCURVE",
"1275 1194 OFFCURVE",
"1275 925 CURVE SMOOTH",
"1275 520 OFFCURVE",
"1171 65 OFFCURVE",
"798 65 CURVE SMOOTH"
);
}
);
width = 1679;
}
);
unicode = 004F;
},
{
glyphname = Oslash;
layers = (
{
components = (
{
name = O;
}
);
layerId = "BDB4B313-38B1-4B24-B843-560B185382BD";
paths = (
{
closed = 1;
nodes = (
"1404 1533 OFFCURVE",
"1382 1558 OFFCURVE",
"1361 1571 CURVE SMOOTH",
"1347 1579 OFFCURVE",
"1329 1581 OFFCURVE",
"1319 1568 CURVE",
"320 -107 LINE",
"318 -122 OFFCURVE",
"331 -142 OFFCURVE",
"353 -155 CURVE SMOOTH",
"366 -163 OFFCURVE",
"393 -170 OFFCURVE",
"402 -157 CURVE",
"1402 1518 LINE"
);
}
);
width = 1679;
}
);
unicode = 00D8;
},
{
glyphname = OE;
layers = (
{
anchors = (
{
name = btm;
position = "{1152, -170}";
},
{
name = top;
position = "{1439, 1700}";
}
);
layerId = "BDB4B313-38B1-4B24-B843-560B185382BD";
paths = (
{
closed = 1;
nodes = (
"1502 1332 LINE",
"1986 1332 LINE SMOOTH",
"2110 1332 OFFCURVE",
"2148 1152 OFFCURVE",
"2143 1103 CURVE SMOOTH",
"2140 1077 OFFCURVE",
"2176 1070 OFFCURVE",
"2197 1070 CURVE SMOOTH",
"2212 1070 OFFCURVE",
"2242 1081 OFFCURVE",
"2245 1104 CURVE",
"2270 1419 LINE",
"1248 1419 LINE",
"1178 1421 OFFCURVE",
"1141 1449 OFFCURVE",
"972 1449 CURVE SMOOTH",
"433 1449 OFFCURVE",
"101 1045 OFFCURVE",
"101 571 CURVE SMOOTH",
"101 220 OFFCURVE",
"320 -29 OFFCURVE",
"697 -29 CURVE SMOOTH",
"867 -29 OFFCURVE",
"955 -2 OFFCURVE",
"1036 0 CURVE",
"1443 0 LINE",
"2151 1 LINE",
"2224 372 LINE SMOOTH",
"2228 395 OFFCURVE",
"2202 406 OFFCURVE",
"2177 406 CURVE SMOOTH",
"2156 406 OFFCURVE",
"2127 398 OFFCURVE",
"2117 373 CURVE SMOOTH",
"2101 332 OFFCURVE",
"1989 101 OFFCURVE",
"1855 101 CURVE SMOOTH",
"1480 101 LINE",
"1433 102 OFFCURVE",
"1382 117 OFFCURVE",
"1397 197 CURVE",
"1580 1351 LINE"
);
},
{
closed = 1;
nodes = (
"568 65 OFFCURVE",
"463 255 OFFCURVE",
"463 530 CURVE SMOOTH",
"463 916 OFFCURVE",
"591 1360 OFFCURVE",
"945 1360 CURVE SMOOTH",
"1124 1360 OFFCURVE",
"1187 1313 OFFCURVE",
"1214 1234 CURVE",
"1042 152 LINE SMOOTH",
"1036 116 OFFCURVE",
"964 65 OFFCURVE",
"720 65 CURVE SMOOTH"
);
},
{
closed = 1;
nodes = (
"1739 682 LINE SMOOTH",
"1796 682 OFFCURVE",
"1811 546 OFFCURVE",
"1810 503 CURVE",
"1808 477 OFFCURVE",
"1845 470 OFFCURVE",
"1876 470 CURVE SMOOTH",
"1891 470 OFFCURVE",
"1919 481 OFFCURVE",
"1923 504 CURVE SMOOTH",
"1993 947 LINE SMOOTH",
"1997 970 OFFCURVE",
"1971 981 OFFCURVE",
"1956 981 CURVE SMOOTH",
"1927 981 OFFCURVE",
"1888 974 OFFCURVE",
"1880 948 CURVE SMOOTH",
"1869 908 OFFCURVE",
"1810 785 OFFCURVE",
"1757 778 CURVE",
"1313 778 LINE",
"1315 682 LINE"
);
}
);
width = 2263;
}
);
unicode = 0152;
},
{
glyphname = P;
layers = (
{
anchors = (
{
name = btm;
position = "{405, -170}";
},
{
name = top;
position = "{922, 1700}";
}
);
layerId = "BDB4B313-38B1-4B24-B843-560B185382BD";
paths = (
{
closed = 1;
nodes = (
"30 32 OFFCURVE",
"37 0 OFFCURVE",
"60 0 CURVE SMOOTH",
"772 0 LINE SMOOTH",
"795 0 OFFCURVE",
"813 24 OFFCURVE",
"813 46 CURVE SMOOTH",
"813 76 OFFCURVE",
"806 86 OFFCURVE",
"779 88 CURVE SMOOTH",
"645 99 OFFCURVE",
"553 112 OFFCURVE",
"565 185 CURVE SMOOTH",
"625 555 LINE",
"784 555 LINE SMOOTH",
"1214 555 OFFCURVE",
"1473 737 OFFCURVE",
"1473 1069 CURVE SMOOTH",
"1473 1241 OFFCURVE",
"1373 1419 OFFCURVE",
"898 1419 CURVE",
"251 1419 LINE SMOOTH",
"228 1419 OFFCURVE",
"210 1383 OFFCURVE",
"209 1368 CURVE",
"204 1338 OFFCURVE",
"210 1334 OFFCURVE",
"238 1331 CURVE SMOOTH",
"298 1326 OFFCURVE",
"389 1320 OFFCURVE",
"375 1234 CURVE SMOOTH",
"224 152 LINE SMOOTH",
"217 108 OFFCURVE",
"133 94 OFFCURVE",
"68 88 CURVE SMOOTH",
"41 85 OFFCURVE",
"30 72 OFFCURVE",
"30 51 CURVE SMOOTH"
);
},
{
closed = 1;
nodes = (
"727 1331 LINE",
"769 1331 LINE SMOOTH",
"1056 1331 OFFCURVE",
"1106 1229 OFFCURVE",
"1106 1071 CURVE SMOOTH",
"1106 777 OFFCURVE",
"974 641 OFFCURVE",
"733 641 CURVE SMOOTH",
"637 641 LINE"
);
}
);
width = 1446;
}
);
unicode = 0050;
},
{
glyphname = Thorn;
layers = (
{
anchors = (
{
name = btm;
position = "{622, -170}";
},
{
name = top;
position = "{622, 1700}";
}
);
layerId = "BDB4B313-38B1-4B24-B843-560B185382BD";
paths = (
{
closed = 1;
nodes = (
"664 300 LINE SMOOTH",
"1082 300 OFFCURVE",
"1403 472 OFFCURVE",
"1403 797 CURVE SMOOTH",
"1403 1035 OFFCURVE",
"1281 1164 OFFCURVE",
"803 1164 CURVE SMOOTH",
"484 1164 LINE",
"484 1076 LINE",
"779 1076 LINE SMOOTH",
"982 1076 OFFCURVE",
"1036 962 OFFCURVE",
"1036 786 CURVE SMOOTH",
"1036 513 OFFCURVE",
"847 386 OFFCURVE",
"653 386 CURVE SMOOTH",
"337 386 LINE",
"335 300 LINE"
);
},
{
closed = 1;
nodes = (
"727 1311 OFFCURVE",
"809 1326 OFFCURVE",
"875 1331 CURVE",
"901 1334 OFFCURVE",
"910 1347 OFFCURVE",
"913 1368 CURVE",
"917 1383 OFFCURVE",
"911 1419 OFFCURVE",
"888 1419 CURVE SMOOTH",
"263 1419 LINE SMOOTH",
"240 1419 OFFCURVE",
"220 1394 OFFCURVE",
"220 1377 CURVE SMOOTH",
"220 1347 OFFCURVE",
"223 1334 OFFCURVE",
"251 1331 CURVE",
"316 1326 OFFCURVE",
"402 1320 OFFCURVE",
"385 1234 CURVE",
"224 152 LINE",
"215 108 OFFCURVE",
"137 93 OFFCURVE",
"68 88 CURVE",
"41 85 OFFCURVE",
"33 72 OFFCURVE",
"28 51 CURVE",
"26 36 OFFCURVE",
"34 0 OFFCURVE",
"57 0 CURVE SMOOTH",
"682 0 LINE SMOOTH",
"705 0 OFFCURVE",
"721 24 OFFCURVE",
"721 51 CURVE SMOOTH",
"721 71 OFFCURVE",
"719 85 OFFCURVE",
"692 88 CURVE SMOOTH",
"632 93 OFFCURVE",
"541 99 OFFCURVE",
"558 185 CURVE",
"719 1267 LINE"
);
}
);
width = 1450;
}
);
unicode = 00DE;
},
{
glyphname = Q;
layers = (
{
anchors = (
{
name = btm;
position = "{775, -170}";
},
{
name = top;
position = "{775, 1700}";
}
);
components = (
{
name = O;
transform = "{1, 0, 0, 1, 5, 0}";
}
);
layerId = "BDB4B313-38B1-4B24-B843-560B185382BD";
paths = (
{
closed = 1;
nodes = (
"586 -254 OFFCURVE",
"822 -419 OFFCURVE",
"1131 -419 CURVE SMOOTH",
"1307 -419 OFFCURVE",
"1394 -383 OFFCURVE",
"1394 -383 CURVE",
"1394 -383 OFFCURVE",
"1394 -313 OFFCURVE",
"1394 -313 CURVE",
"1038 -320 OFFCURVE",
"922 -96 OFFCURVE",
"954 29 CURVE",
"954 29 OFFCURVE",
"622 0 OFFCURVE",
"622 0 CURVE"
);
}
);
width = 1679;
}
);
unicode = 0051;
},
{
glyphname = R;
layers = (
{
anchors = (
{
name = btm;
position = "{819, -170}";
},
{
name = top;
position = "{910, 1700}";
}
);
layerId = "BDB4B313-38B1-4B24-B843-560B185382BD";
paths = (
{
closed = 1;
nodes = (
"833 1331 LINE SMOOTH",
"1080 1331 OFFCURVE",
"1162 1265 OFFCURVE",
"1162 1054 CURVE SMOOTH",
"1162 833 OFFCURVE",
"1051 701 OFFCURVE",
"787 701 CURVE SMOOTH",
"558 701 LINE",
"558 625 LINE",
"820 625 LINE",
"1017 636 LINE",
"1290 661 OFFCURVE",
"1507 838 OFFCURVE",
"1507 1057 CURVE SMOOTH",
"1507 1291 OFFCURVE",
"1380 1419 OFFCURVE",
"853 1419 CURVE SMOOTH",
"229 1419 LINE SMOOTH",
"198 1419 OFFCURVE",
"187 1391 OFFCURVE",
"187 1358 CURVE SMOOTH",
"187 1305 OFFCURVE",
"372 1348 OFFCURVE",
"361 1251 CURVE",
"225 152 LINE SMOOTH",
"220 107 OFFCURVE",
"147 94 OFFCURVE",
"82 88 CURVE SMOOTH",
"56 86 OFFCURVE",
"49 63 OFFCURVE",
"49 42 CURVE SMOOTH",
"49 25 OFFCURVE",
"56 0 OFFCURVE",
"75 0 CURVE SMOOTH",
"710 0 LINE SMOOTH",
"747 0 OFFCURVE",
"747 39 OFFCURVE",
"747 56 CURVE SMOOTH",
"747 72 OFFCURVE",
"737 86 OFFCURVE",
"716 88 CURVE SMOOTH",
"654 93 OFFCURVE",
"554 98 OFFCURVE",
"565 185 CURVE SMOOTH",
"707 1331 LINE"
);
},
{
closed = 1;
nodes = (
"901 569 OFFCURVE",
"1000 243 OFFCURVE",
"1077 80 CURVE SMOOTH",
"1105 23 OFFCURVE",
"1151 0 OFFCURVE",
"1224 0 CURVE SMOOTH",
"1547 0 LINE SMOOTH",
"1569 0 OFFCURVE",
"1581 17 OFFCURVE",
"1581 32 CURVE SMOOTH",
"1582 62 OFFCURVE",
"1575 86 OFFCURVE",
"1547 89 CURVE SMOOTH",
"1462 99 OFFCURVE",
"1421 172 OFFCURVE",
"1337 307 CURVE SMOOTH",
"1265 418 OFFCURVE",
"1193 595 OFFCURVE",
"1127 700 CURVE",
"807 667 LINE"
);
}
);
width = 1632;
}
);
unicode = 0052;
},
{
glyphname = S;
layers = (
{
anchors = (
{
name = btm;
position = "{565, -170}";
},
{
name = top;
position = "{928, 1700}";
}
);
layerId = "BDB4B313-38B1-4B24-B843-560B185382BD";
paths = (
{
closed = 1;
nodes = (
"85 48 OFFCURVE",
"112 20 OFFCURVE",
"140 20 CURVE SMOOTH",
"160 20 OFFCURVE",
"192 32 OFFCURVE",
"215 61 CURVE SMOOTH",
"226 76 OFFCURVE",
"241 83 OFFCURVE",
"248 78 CURVE SMOOTH",
"307 38 OFFCURVE",
"482 -30 OFFCURVE",
"648 -30 CURVE SMOOTH",
"1046 -30 OFFCURVE",
"1224 194 OFFCURVE",
"1224 400 CURVE SMOOTH",
"1224 619 OFFCURVE",
"1054 753 OFFCURVE",
"882 858 CURVE SMOOTH",
"728 951 OFFCURVE",
"587 1034 OFFCURVE",
"587 1176 CURVE SMOOTH",
"587 1308 OFFCURVE",
"684 1370 OFFCURVE",
"843 1370 CURVE SMOOTH",
"999 1370 OFFCURVE",
"1111 1295 OFFCURVE",
"1148 1059 CURVE SMOOTH",
"1151 1040 OFFCURVE",
"1187 1028 OFFCURVE",
"1208 1028 CURVE SMOOTH",
"1236 1028 OFFCURVE",
"1260 1032 OFFCURVE",
"1262 1087 CURVE SMOOTH",
"1267 1208 OFFCURVE",
"1280 1330 OFFCURVE",
"1290 1404 CURVE SMOOTH",
"1292 1422 OFFCURVE",
"1263 1432 OFFCURVE",
"1232 1432 CURVE SMOOTH",
"1194 1432 OFFCURVE",
"1195 1383 OFFCURVE",
"1154 1383 CURVE SMOOTH",
"1147 1383 OFFCURVE",
"1128 1386 OFFCURVE",
"1118 1391 CURVE SMOOTH",
"1089 1405 OFFCURVE",
"969 1449 OFFCURVE",
"825 1449 CURVE SMOOTH",
"491 1449 OFFCURVE",
"281 1291 OFFCURVE",
"281 1065 CURVE SMOOTH",
"281 860 OFFCURVE",
"434 720 OFFCURVE",
"590 614 CURVE SMOOTH",
"756 504 OFFCURVE",
"917 418 OFFCURVE",
"917 276 CURVE SMOOTH",
"917 119 OFFCURVE",
"815 59 OFFCURVE",
"635 59 CURVE SMOOTH",
"489 59 OFFCURVE",
"348 126 OFFCURVE",
"301 277 CURVE SMOOTH",
"270 376 OFFCURVE",
"269 444 OFFCURVE",
"267 478 CURVE",
"267 505 OFFCURVE",
"231 520 OFFCURVE",
"208 520 CURVE SMOOTH",
"181 520 OFFCURVE",
"150 513 OFFCURVE",
"149 471 CURVE",
"145 391 OFFCURVE",
"122 214 OFFCURVE",
"90 72 CURVE SMOOTH"
);
}
);
width = 1337;
}
);
unicode = 0053;
},
{
glyphname = T;
layers = (
{
anchors = (
{
name = btm;
position = "{610, -170}";
},
{
name = top;
position = "{941, 1700}";
}
);
layerId = "BDB4B313-38B1-4B24-B843-560B185382BD";
paths = (
{
closed = 1;
nodes = (
"228 36 OFFCURVE",
"235 0 OFFCURVE",
"258 0 CURVE SMOOTH",
"1044 0 LINE SMOOTH",
"1067 0 OFFCURVE",
"1089 27 OFFCURVE",
"1089 50 CURVE SMOOTH",
"1089 80 OFFCURVE",
"1081 86 OFFCURVE",
"1054 88 CURVE SMOOTH",
"974 95 OFFCURVE",
"828 99 OFFCURVE",
"841 185 CURVE SMOOTH",
"1011 1331 LINE",
"1133 1331 LINE SMOOTH",
"1350 1331 OFFCURVE",
"1332 1002 OFFCURVE",
"1332 937 CURVE",
"1330 911 OFFCURVE",
"1356 904 OFFCURVE",
"1377 904 CURVE SMOOTH",
"1392 904 OFFCURVE",
"1441 915 OFFCURVE",
"1445 938 CURVE",
"1460 1069 OFFCURVE",
"1503 1419 OFFCURVE",
"1488 1419 CURVE SMOOTH",
"221 1419 LINE SMOOTH",
"206 1419 OFFCURVE",
"122 1069 OFFCURVE",
"99 938 CURVE",
"95 915 OFFCURVE",
"162 904 OFFCURVE",
"177 904 CURVE SMOOTH",
"198 904 OFFCURVE",
"226 911 OFFCURVE",
"234 937 CURVE",
"249 1002 OFFCURVE",
"365 1331 OFFCURVE",
"569 1331 CURVE SMOOTH",
"679 1331 LINE",
"508 182 LINE SMOOTH",
"497 108 OFFCURVE",
"364 96 OFFCURVE",
"269 88 CURVE SMOOTH",
"242 86 OFFCURVE",
"233 72 OFFCURVE",
"231 51 CURVE SMOOTH"
);
}
);
width = 1401;
}
);
unicode = 0054;
},
{
glyphname = Tbar;
layers = (
{
components = (
{
name = T;
}
);
layerId = "BDB4B313-38B1-4B24-B843-560B185382BD";
paths = (
{
closed = 1;
nodes = (
"1210 637 OFFCURVE",
"1220 659 OFFCURVE",
"1220 684 CURVE SMOOTH",
"1220 700 OFFCURVE",
"1212 727 OFFCURVE",
"1196 728 CURVE",
"276 728 LINE",
"262 722 OFFCURVE",
"252 690 OFFCURVE",
"252 665 CURVE SMOOTH",
"252 649 OFFCURVE",
"260 632 OFFCURVE",
"276 631 CURVE",
"1196 631 LINE"
);
}
);
width = 1401;
}
);
unicode = 0166;
},
{
glyphname = U;
layers = (
{
anchors = (
{
name = btm;
position = "{789, -170}";
},
{
name = top;
position = "{1178, 1700}";
}
);
layerId = "BDB4B313-38B1-4B24-B843-560B185382BD";
paths = (
{
closed = 1;
nodes = (
"264 504 OFFCURVE",
"261 448 OFFCURVE",
"261 394 CURVE SMOOTH",
"272 116 OFFCURVE",
"477 -29 OFFCURVE",
"860 -29 CURVE SMOOTH",
"1207 -29 OFFCURVE",
"1392 157 OFFCURVE",
"1469 546 CURVE SMOOTH",
"1575 1230 LINE SMOOTH",
"1584 1294 OFFCURVE",
"1653 1326 OFFCURVE",
"1766 1331 CURVE SMOOTH",
"1794 1332 OFFCURVE",
"1806 1352 OFFCURVE",
"1805 1378 CURVE SMOOTH",
"1805 1395 OFFCURVE",
"1799 1419 OFFCURVE",
"1780 1419 CURVE SMOOTH",
"1324 1419 LINE SMOOTH",
"1301 1419 OFFCURVE",
"1283 1383 OFFCURVE",
"1282 1368 CURVE SMOOTH",
"1281 1362 OFFCURVE",
"1280 1357 OFFCURVE",
"1280 1352 CURVE SMOOTH",
"1280 1336 OFFCURVE",
"1289 1332 OFFCURVE",
"1311 1331 CURVE SMOOTH",
"1424 1325 OFFCURVE",
"1477 1315 OFFCURVE",
"1477 1265 CURVE SMOOTH",
"1477 1262 OFFCURVE",
"1476 1254 OFFCURVE",
"1474 1244 CURVE SMOOTH",
"1375 578 LINE SMOOTH",
"1327 331 OFFCURVE",
"1231 65 OFFCURVE",
"899 65 CURVE SMOOTH",
"716 65 OFFCURVE",
"612 144 OFFCURVE",
"604 361 CURVE SMOOTH",
"604 411 OFFCURVE",
"607 491 OFFCURVE",
"619 554 CURVE SMOOTH",
"724 1267 LINE SMOOTH",
"732 1311 OFFCURVE",
"789 1329 OFFCURVE",
"899 1331 CURVE SMOOTH",
"927 1332 OFFCURVE",
"940 1352 OFFCURVE",
"938 1378 CURVE SMOOTH",
"938 1395 OFFCURVE",
"931 1419 OFFCURVE",
"913 1419 CURVE SMOOTH",
"248 1419 LINE SMOOTH",
"224 1419 OFFCURVE",
"207 1383 OFFCURVE",
"206 1368 CURVE SMOOTH",
"205 1362 OFFCURVE",
"204 1357 OFFCURVE",
"204 1352 CURVE SMOOTH",
"206 1309 OFFCURVE",
"390 1350 OFFCURVE",
"372 1256 CURVE SMOOTH",
"272 546 LINE SMOOTH"
);
}
);
width = 1706;
}
);
unicode = 0055;
},
{
glyphname = Uogonek;
layers = (
{
components = (
{
name = U;
}
);
layerId = "BDB4B313-38B1-4B24-B843-560B185382BD";
paths = (
{
closed = 1;
nodes = (
"687 -385 OFFCURVE",
"763 -452 OFFCURVE",
"929 -452 CURVE SMOOTH",
"1029 -452 OFFCURVE",
"1153 -414 OFFCURVE",
"1229 -329 CURVE SMOOTH",
"1241 -315 OFFCURVE",
"1216 -257 OFFCURVE",
"1189 -266 CURVE",
"1162 -280 OFFCURVE",
"1091 -330 OFFCURVE",
"1027 -330 CURVE SMOOTH",
"970 -330 OFFCURVE",
"917 -313 OFFCURVE",
"917 -228 CURVE SMOOTH",
"917 -153 OFFCURVE",
"1032 -33 OFFCURVE",
"1208 68 CURVE",
"1070 59 LINE",
"868 -17 OFFCURVE",
"687 -154 OFFCURVE",
"687 -293 CURVE SMOOTH"
);
}
);
width = 1706;
}
);
unicode = 0172;
},
{
glyphname = V;
layers = (
{
anchors = (
{
name = btm;
position = "{650, -170}";
},
{
name = top;
position = "{1012, 1700}";
}
);
layerId = "BDB4B313-38B1-4B24-B843-560B185382BD";
paths = (
{
closed = 1;
nodes = (
"742 -18 LINE",
"1565 1241 LINE",
"1619 1326 OFFCURVE",
"1701 1326 OFFCURVE",
"1751 1331 CURVE SMOOTH",
"1779 1334 OFFCURVE",
"1789 1338 OFFCURVE",
"1794 1368 CURVE SMOOTH",
"1797 1383 OFFCURVE",
"1792 1419 OFFCURVE",
"1770 1419 CURVE SMOOTH",
"1315 1419 LINE SMOOTH",
"1292 1419 OFFCURVE",
"1274 1383 OFFCURVE",
"1271 1368 CURVE SMOOTH",
"1267 1347 OFFCURVE",
"1271 1333 OFFCURVE",
"1297 1331 CURVE SMOOTH",
"1424 1323 OFFCURVE",
"1456 1293 OFFCURVE",
"1434 1246 CURVE",
"789 222 LINE",
"782 222 LINE",
"631 1250 LINE SMOOTH",
"624 1298 OFFCURVE",
"675 1322 OFFCURVE",
"790 1331 CURVE SMOOTH",
"816 1333 OFFCURVE",
"826 1347 OFFCURVE",
"830 1368 CURVE SMOOTH",
"833 1383 OFFCURVE",
"829 1419 OFFCURVE",
"806 1419 CURVE SMOOTH",
"131 1419 LINE SMOOTH",
"109 1419 OFFCURVE",
"90 1383 OFFCURVE",
"87 1368 CURVE SMOOTH",
"82 1338 OFFCURVE",
"88 1334 OFFCURVE",
"116 1331 CURVE SMOOTH",
"164 1326 OFFCURVE",
"246 1342 OFFCURVE",
"262 1254 CURVE SMOOTH",
"496 -18 LINE"
);
}
);
width = 1561;
}
);
unicode = 0056;
},
{
glyphname = W;
layers = (
{
anchors = (
{
name = btm;
position = "{999, -170}";
},
{
name = top;
position = "{1508, 1700}";
}
);
layerId = "BDB4B313-38B1-4B24-B843-560B185382BD";
paths = (
{
closed = 1;
nodes = (
"721 -18 LINE",
"1255 1039 LINE",
"1339 -18 LINE",
"1614 -18 LINE",
"2308 1254 LINE SMOOTH",
"2348 1328 OFFCURVE",
"2443 1326 OFFCURVE",
"2494 1331 CURVE SMOOTH",
"2522 1334 OFFCURVE",
"2532 1338 OFFCURVE",
"2537 1368 CURVE SMOOTH",
"2540 1383 OFFCURVE",
"2535 1419 OFFCURVE",
"2513 1419 CURVE SMOOTH",
"1968 1419 LINE SMOOTH",
"1945 1419 OFFCURVE",
"1927 1383 OFFCURVE",
"1924 1368 CURVE SMOOTH",
"1920 1347 OFFCURVE",
"1924 1331 OFFCURVE",
"1950 1331 CURVE SMOOTH",
"2058 1331 OFFCURVE",
"2166 1300 OFFCURVE",
"2137 1242 CURVE SMOOTH",
"1668 291 LINE",
"1655 291 LINE",
"1554 1399 LINE",
"1296 1399 LINE",
"768 291 LINE",
"754 291 LINE",
"671 1261 LINE SMOOTH",
"667 1309 OFFCURVE",
"744 1331 OFFCURVE",
"855 1331 CURVE SMOOTH",
"881 1331 OFFCURVE",
"891 1347 OFFCURVE",
"895 1368 CURVE SMOOTH",
"898 1383 OFFCURVE",
"894 1419 OFFCURVE",
"871 1419 CURVE SMOOTH",
"171 1419 LINE SMOOTH",
"149 1419 OFFCURVE",
"130 1383 OFFCURVE",
"127 1368 CURVE SMOOTH",
"122 1338 OFFCURVE",
"128 1334 OFFCURVE",
"156 1331 CURVE SMOOTH",
"204 1326 OFFCURVE",
"315 1343 OFFCURVE",
"322 1254 CURVE",
"468 -18 LINE"
);
}
);
width = 2306;
}
);
unicode = 0057;
},
{
glyphname = X;
layers = (
{
anchors = (
{
name = btm;
position = "{731, -170}";
},
{
name = top;
position = "{1094, 1700}";
}
);
layerId = "BDB4B313-38B1-4B24-B843-560B185382BD";
paths = (
{
closed = 1;
nodes = (
"-65 36 OFFCURVE",
"-59 0 OFFCURVE",
"-37 0 CURVE SMOOTH",
"498 0 LINE SMOOTH",
"521 0 OFFCURVE",
"536 28 OFFCURVE",
"536 48 CURVE SMOOTH",
"536 70 OFFCURVE",
"533 85 OFFCURVE",
"508 88 CURVE",
"358 93 OFFCURVE",
"314 124 OFFCURVE",
"357 162 CURVE SMOOTH",
"738 582 LINE",
"931 181 LINE SMOOTH",
"938 165 OFFCURVE",
"953 136 OFFCURVE",
"953 120 CURVE SMOOTH",
"953 100 OFFCURVE",
"933 94 OFFCURVE",
"825 88 CURVE",
"798 85 OFFCURVE",
"789 72 OFFCURVE",
"782 51 CURVE",
"779 36 OFFCURVE",
"784 0 OFFCURVE",
"807 0 CURVE SMOOTH",
"1479 0 LINE SMOOTH",
"1501 0 OFFCURVE",
"1522 28 OFFCURVE",
"1522 51 CURVE SMOOTH",
"1522 66 OFFCURVE",
"1518 86 OFFCURVE",
"1496 88 CURVE SMOOTH",
"1448 92 OFFCURVE",
"1362 89 OFFCURVE",
"1323 165 CURVE SMOOTH",
"991 774 LINE",
"1468 1254 LINE SMOOTH",
"1545 1328 OFFCURVE",
"1625 1326 OFFCURVE",
"1675 1331 CURVE SMOOTH",
"1703 1334 OFFCURVE",
"1713 1338 OFFCURVE",
"1718 1368 CURVE",
"1724 1383 OFFCURVE",
"1720 1419 OFFCURVE",
"1697 1419 CURVE SMOOTH",
"1222 1419 LINE SMOOTH",
"1199 1419 OFFCURVE",
"1186 1390 OFFCURVE",
"1185 1368 CURVE SMOOTH",
"1183 1347 OFFCURVE",
"1185 1331 OFFCURVE",
"1211 1331 CURVE SMOOTH",
"1304 1331 OFFCURVE",
"1359 1299 OFFCURVE",
"1318 1257 CURVE SMOOTH",
"956 858 LINE",
"756 1276 LINE SMOOTH",
"751 1287 OFFCURVE",
"748 1294 OFFCURVE",
"748 1303 CURVE SMOOTH",
"748 1322 OFFCURVE",
"773 1331 OFFCURVE",
"871 1331 CURVE SMOOTH",
"897 1331 OFFCURVE",
"913 1359 OFFCURVE",
"913 1380 CURVE SMOOTH",
"913 1396 OFFCURVE",
"913 1419 OFFCURVE",
"890 1419 CURVE SMOOTH",
"221 1419 LINE SMOOTH",
"199 1419 OFFCURVE",
"178 1389 OFFCURVE",
"178 1371 CURVE SMOOTH",
"178 1350 OFFCURVE",
"184 1333 OFFCURVE",
"212 1330 CURVE SMOOTH",
"300 1321 OFFCURVE",
"358 1316 OFFCURVE",
"390 1254 CURVE SMOOTH",
"702 660 LINE",
"203 165 LINE SMOOTH",
"127 92 OFFCURVE",
"34 93 OFFCURVE",
"-16 88 CURVE SMOOTH",
"-45 85 OFFCURVE",
"-53 81 OFFCURVE",
"-62 51 CURVE"
);
}
);
width = 1642;
}
);
unicode = 0058;
},
{
glyphname = Y;
layers = (
{
anchors = (
{
name = btm;
position = "{648, -170}";
},
{
name = top;
position = "{1017, 1700}";
}
);
layerId = "BDB4B313-38B1-4B24-B843-560B185382BD";
paths = (
{
closed = 1;
nodes = (
"263 36 OFFCURVE",
"268 0 OFFCURVE",
"291 0 CURVE SMOOTH",
"1020 0 LINE SMOOTH",
"1042 0 OFFCURVE",
"1060 36 OFFCURVE",
"1063 51 CURVE SMOOTH",
"1070 81 OFFCURVE",
"1052 85 OFFCURVE",
"1025 88 CURVE SMOOTH",
"959 94 OFFCURVE",
"832 79 OFFCURVE",
"849 165 CURVE SMOOTH",
"909 547 LINE",
"1439 1254 LINE SMOOTH",
"1503 1336 OFFCURVE",
"1558 1336 OFFCURVE",
"1609 1341 CURVE SMOOTH",
"1637 1344 OFFCURVE",
"1646 1348 OFFCURVE",
"1653 1378 CURVE SMOOTH",
"1656 1393 OFFCURVE",
"1649 1419 OFFCURVE",
"1627 1419 CURVE SMOOTH",
"1182 1419 LINE SMOOTH",
"1159 1419 OFFCURVE",
"1143 1393 OFFCURVE",
"1140 1378 CURVE SMOOTH",
"1135 1357 OFFCURVE",
"1148 1331 OFFCURVE",
"1174 1331 CURVE SMOOTH",
"1299 1331 OFFCURVE",
"1324 1302 OFFCURVE",
"1293 1258 CURVE SMOOTH",
"846 639 LINE",
"588 1287 LINE SMOOTH",
"575 1319 OFFCURVE",
"614 1328 OFFCURVE",
"750 1331 CURVE SMOOTH",
"776 1332 OFFCURVE",
"799 1358 OFFCURVE",
"799 1378 CURVE SMOOTH",
"799 1393 OFFCURVE",
"796 1419 OFFCURVE",
"773 1419 CURVE SMOOTH",
"116 1419 LINE SMOOTH",
"94 1419 OFFCURVE",
"74 1398 OFFCURVE",
"74 1378 CURVE SMOOTH",
"74 1360 OFFCURVE",
"74 1343 OFFCURVE",
"102 1341 CURVE SMOOTH",
"187 1335 OFFCURVE",
"221 1307 OFFCURVE",
"242 1254 CURVE SMOOTH",
"562 534 LINE",
"495 152 LINE SMOOTH",
"481 81 OFFCURVE",
"385 94 OFFCURVE",
"317 88 CURVE SMOOTH",
"291 86 OFFCURVE",
"271 72 OFFCURVE",
"266 51 CURVE SMOOTH"
);
}
);
width = 1499;
}
);
unicode = 0059;
},
{
glyphname = Z;
layers = (
{
anchors = (
{
name = btm;
position = "{517, -170}";
},
{
name = top;
position = "{880, 1700}";
}
);
layerId = "BDB4B313-38B1-4B24-B843-560B185382BD";
paths = (
{
closed = 1;
nodes = (
"29 12 OFFCURVE",
"42 0 OFFCURVE",
"68 0 CURVE SMOOTH",
"1181 0 LINE",
"1201 1 OFFCURVE",
"1217 14 OFFCURVE",
"1235 41 CURVE",
"1360 429 LINE",
"1364 452 OFFCURVE",
"1321 463 OFFCURVE",
"1306 463 CURVE SMOOTH",
"1275 463 OFFCURVE",
"1254 456 OFFCURVE",
"1242 430 CURVE SMOOTH",
"1227 381 OFFCURVE",
"1041 83 OFFCURVE",
"907 83 CURVE SMOOTH",
"452 83 LINE",
"1396 1330 LINE SMOOTH",
"1403 1340 OFFCURVE",
"1411 1348 OFFCURVE",
"1411 1361 CURVE SMOOTH",
"1411 1389 LINE SMOOTH",
"1411 1408 OFFCURVE",
"1393 1419 OFFCURVE",
"1377 1419 CURVE SMOOTH",
"336 1419 LINE",
"316 1418 OFFCURVE",
"298 1405 OFFCURVE",
"281 1378 CURVE",
"183 1020 LINE",
"179 997 OFFCURVE",
"212 986 OFFCURVE",
"227 986 CURVE SMOOTH",
"258 986 OFFCURVE",
"279 993 OFFCURVE",
"291 1019 CURVE SMOOTH",
"306 1068 OFFCURVE",
"476 1331 OFFCURVE",
"578 1331 CURVE SMOOTH",
"985 1331 LINE",
"87 138 LINE",
"40 84 OFFCURVE",
"29 67 OFFCURVE",
"29 50 CURVE SMOOTH",
"29 31 LINE SMOOTH"
);
}
);
width = 1411;
}
);
unicode = 005A;
},
{
glyphname = a;
layers = (
{
anchors = (
{
name = btm;
position = "{591, -170}";
},
{
name = top;
position = "{898, 1700}";
}
);
layerId = "BDB4B313-38B1-4B24-B843-560B185382BD";
paths = (
{
closed = 1;
nodes = (
"425 731 OFFCURVE",
"551 920 OFFCURVE",
"733 920 CURVE SMOOTH",
"820 920 OFFCURVE",
"870 876 OFFCURVE",
"901 802 CURVE",
"826 406 LINE",
"780 315 OFFCURVE",
"621 153 OFFCURVE",
"511 153 CURVE SMOOTH",
"451 153 OFFCURVE",
"368 189 OFFCURVE",
"400 492 CURVE SMOOTH"
);
},
{
closed = 1;
nodes = (
"330 1011 OFFCURVE",
"64 711 OFFCURVE",
"64 372 CURVE SMOOTH",
"64 131 OFFCURVE",
"222 -27 OFFCURVE",
"382 -27 CURVE SMOOTH",
"586 -27 OFFCURVE",
"715 88 OFFCURVE",
"800 249 CURVE",
"788 201 OFFCURVE",
"776 135 OFFCURVE",
"776 88 CURVE SMOOTH",
"776 25 OFFCURVE",
"798 -25 OFFCURVE",
"910 -25 CURVE SMOOTH",
"1064 -25 OFFCURVE",
"1211 26 OFFCURVE",
"1238 34 CURVE SMOOTH",
"1244 36 OFFCURVE",
"1262 43 OFFCURVE",
"1263 74 CURVE SMOOTH",
"1264 96 OFFCURVE",
"1253 120 OFFCURVE",
"1224 112 CURVE SMOOTH",
"1198 105 OFFCURVE",
"1176 102 OFFCURVE",
"1157 102 CURVE SMOOTH",
"1140 102 OFFCURVE",
"1099 109 OFFCURVE",
"1099 147 CURVE SMOOTH",
"1099 159 OFFCURVE",
"1100 172 OFFCURVE",
"1102 189 CURVE SMOOTH",
"1231 970 LINE SMOOTH",
"1233 979 OFFCURVE",
"1234 986 OFFCURVE",
"1234 990 CURVE SMOOTH",
"1234 1006 OFFCURVE",
"1218 1011 OFFCURVE",
"1199 1011 CURVE SMOOTH",
"1178 1011 OFFCURVE",
"1150 999 OFFCURVE",
"1120 983 CURVE SMOOTH",
"1027 934 LINE",
"963 980 OFFCURVE",
"873 1011 OFFCURVE",
"712 1011 CURVE SMOOTH"
);
}
);
width = 1352;
}
);
unicode = 0061;
},
{
glyphname = aogonek;
layers = (
{
components = (
{
name = a;
}
);
layerId = "BDB4B313-38B1-4B24-B843-560B185382BD";
paths = (
{
closed = 1;
nodes = (
"657 -385 OFFCURVE",
"733 -452 OFFCURVE",
"899 -452 CURVE SMOOTH",
"999 -452 OFFCURVE",
"1123 -414 OFFCURVE",
"1199 -329 CURVE SMOOTH",
"1211 -315 OFFCURVE",
"1186 -257 OFFCURVE",
"1159 -266 CURVE",
"1132 -280 OFFCURVE",
"1061 -330 OFFCURVE",
"997 -330 CURVE SMOOTH",
"940 -330 OFFCURVE",
"887 -313 OFFCURVE",
"887 -228 CURVE SMOOTH",
"887 -153 OFFCURVE",
"983 -68 OFFCURVE",
"1179 21 CURVE",
"1041 12 LINE",
"828 -28 OFFCURVE",
"657 -154 OFFCURVE",
"657 -293 CURVE SMOOTH {name = hr00;}"
);
}
);
width = 1352;
}
);
unicode = 0105;
},
{
glyphname = ae;
layers = (
{
anchors = (
{
name = btm;
position = "{739, -170}";
},
{
name = top;
position = "{1149, 1700}";
}
);
layerId = "BDB4B313-38B1-4B24-B843-560B185382BD";
paths = (
{
closed = 1;
nodes = (
"690 305 OFFCURVE",
"563 153 OFFCURVE",
"489 153 CURVE SMOOTH",
"426 153 OFFCURVE",
"386 199 OFFCURVE",
"386 300 CURVE SMOOTH",
"386 661 OFFCURVE",
"541 926 OFFCURVE",
"737 926 CURVE SMOOTH",
"834 926 OFFCURVE",
"894 862 OFFCURVE",
"876 744 CURVE",
"1040 913 LINE",
"996 958 OFFCURVE",
"901 1011 OFFCURVE",
"747 1011 CURVE SMOOTH",
"364 1011 OFFCURVE",
"60 690 OFFCURVE",
"60 286 CURVE SMOOTH",
"60 58 OFFCURVE",
"139 -27 OFFCURVE",
"329 -27 CURVE SMOOTH",
"531 -27 OFFCURVE",
"703 164 OFFCURVE",
"785 313 CURVE",
"764 430 LINE"
);
},
{
closed = 1;
nodes = (
"1715 875 OFFCURVE",
"1632 1014 OFFCURVE",
"1356 1014 CURVE SMOOTH",
"1014 1014 OFFCURVE",
"729 740 OFFCURVE",
"729 381 CURVE SMOOTH",
"729 133 OFFCURVE",
"894 -29 OFFCURVE",
"1168 -29 CURVE SMOOTH",
"1405 -29 OFFCURVE",
"1522 50 OFFCURVE",
"1659 164 CURVE",
"1663 172 OFFCURVE",
"1678 181 OFFCURVE",
"1665 192 CURVE SMOOTH",
"1628 225 LINE",
"1619 231 OFFCURVE",
"1613 223 OFFCURVE",
"1606 215 CURVE",
"1496 143 OFFCURVE",
"1397 105 OFFCURVE",
"1259 105 CURVE SMOOTH",
"1161 105 OFFCURVE",
"1066 173 OFFCURVE",
"1066 360 CURVE SMOOTH",
"1066 376 OFFCURVE",
"1066 392 OFFCURVE",
"1067 407 CURVE",
"1496 465 OFFCURVE",
"1715 558 OFFCURVE",
"1715 781 CURVE SMOOTH"
);
},
{
closed = 1;
nodes = (
"1395 933 OFFCURVE",
"1414 871 OFFCURVE",
"1414 808 CURVE SMOOTH",
"1414 630 OFFCURVE",
"1293 534 OFFCURVE",
"1072 484 CURVE",
"1096 768 OFFCURVE",
"1198 933 OFFCURVE",
"1310 933 CURVE SMOOTH"
);
}
);
width = 1753;
}
);
unicode = 00E6;
},
{
glyphname = b;
layers = (
{
anchors = (
{
name = btm;
position = "{588, -170}";
},
{
name = top;
position = "{1016, 1700}";
}
);
layerId = "BDB4B313-38B1-4B24-B843-560B185382BD";
paths = (
{
closed = 1;
nodes = (
"142 70 OFFCURVE",
"378 -30 OFFCURVE",
"604 -30 CURVE SMOOTH",
"1005 -30 OFFCURVE",
"1213 223 OFFCURVE",
"1258 492 CURVE SMOOTH",
"1299 770 OFFCURVE",
"1189 1013 OFFCURVE",
"868 1013 CURVE SMOOTH",
"747 1013 OFFCURVE",
"605 953 OFFCURVE",
"504 825 CURVE",
"551 1104 LINE",
"607 1508 LINE SMOOTH",
"612 1540 OFFCURVE",
"594 1548 OFFCURVE",
"583 1548 CURVE SMOOTH",
"503 1547 OFFCURVE",
"336 1546 OFFCURVE",
"148 1538 CURVE SMOOTH",
"132 1537 OFFCURVE",
"120 1510 OFFCURVE",
"117 1494 CURVE SMOOTH",
"114 1469 OFFCURVE",
"123 1460 OFFCURVE",
"136 1454 CURVE",
"188 1440 OFFCURVE",
"295 1453 OFFCURVE",
"277 1329 CURVE SMOOTH",
"92 126 LINE"
);
},
{
closed = 1;
nodes = (
"544 770 OFFCURVE",
"634 865 OFFCURVE",
"745 865 CURVE SMOOTH",
"911 865 OFFCURVE",
"938 714 OFFCURVE",
"912 492 CURVE SMOOTH",
"880 252 OFFCURVE",
"774 65 OFFCURVE",
"581 65 CURVE SMOOTH",
"497 65 OFFCURVE",
"426 110 OFFCURVE",
"413 165 CURVE",
"494 702 LINE"
);
}
);
width = 1329;
}
);
unicode = 0062;
},
{
glyphname = c;
layers = (
{
anchors = (
{
name = btm;
position = "{480, -170}";
},
{
name = top;
position = "{844, 1700}";
}
);
layerId = "BDB4B313-38B1-4B24-B843-560B185382BD";
paths = (
{
closed = 1;
nodes = (
"352 1014 OFFCURVE",
"73 752 OFFCURVE",
"73 411 CURVE SMOOTH",
"73 145 OFFCURVE",
"243 -28 OFFCURVE",
"541 -28 CURVE SMOOTH",
"739 -28 OFFCURVE",
"887 58 OFFCURVE",
"992 184 CURVE",
"996 192 OFFCURVE",
"1011 201 OFFCURVE",
"998 212 CURVE SMOOTH",
"961 245 LINE",
"952 251 OFFCURVE",
"946 243 OFFCURVE",
"939 235 CURVE",
"847 156 OFFCURVE",
"766 115 OFFCURVE",
"652 115 CURVE SMOOTH",
"534 115 OFFCURVE",
"420 189 OFFCURVE",
"420 390 CURVE SMOOTH",
"420 732 OFFCURVE",
"525 933 OFFCURVE",
"673 933 CURVE SMOOTH",
"724 933 OFFCURVE",
"739 926 OFFCURVE",
"748 919 CURVE",
"803 705 LINE SMOOTH",
"815 660 OFFCURVE",
"824 662 OFFCURVE",
"863 662 CURVE SMOOTH",
"979 662 OFFCURVE",
"1077 704 OFFCURVE",
"1077 787 CURVE SMOOTH",
"1077 934 OFFCURVE",
"961 1014 OFFCURVE",
"709 1014 CURVE SMOOTH"
);
}
);
width = 1098;
}
);
unicode = 0063;
},
{
glyphname = d;
layers = (
{
anchors = (
{
name = btm;
position = "{589, -170}";
},
{
name = top;
position = "{586, 1700}";
}
);
layerId = "BDB4B313-38B1-4B24-B843-560B185382BD";
paths = (
{
closed = 1;
nodes = (
"1267 41 OFFCURVE",
"1272 70 OFFCURVE",
"1269 85 CURVE SMOOTH",
"1264 114 OFFCURVE",
"1253 116 OFFCURVE",
"1231 112 CURVE SMOOTH",
"1182 103 OFFCURVE",
"1094 79 OFFCURVE",
"1107 175 CURVE SMOOTH",
"1306 1508 LINE SMOOTH",
"1311 1540 OFFCURVE",
"1292 1548 OFFCURVE",
"1282 1548 CURVE SMOOTH",
"1206 1547 OFFCURVE",
"996 1546 OFFCURVE",
"816 1538 CURVE SMOOTH",
"800 1537 OFFCURVE",
"788 1510 OFFCURVE",
"785 1494 CURVE",
"782 1469 OFFCURVE",
"791 1460 OFFCURVE",
"804 1454 CURVE",
"856 1440 OFFCURVE",
"993 1453 OFFCURVE",
"975 1329 CURVE",
"942 1104 LINE",
"924 965 LINE",
"875 991 OFFCURVE",
"820 1015 OFFCURVE",
"704 1015 CURVE SMOOTH",
"315 1015 OFFCURVE",
"46 711 OFFCURVE",
"46 383 CURVE SMOOTH",
"46 164 OFFCURVE",
"158 -28 OFFCURVE",
"434 -28 CURVE SMOOTH",
"549 -28 OFFCURVE",
"713 44 OFFCURVE",
"794 146 CURVE",
"786 82 OFFCURVE",
"790 -108 OFFCURVE",
"1245 34 CURVE"
);
},
{
closed = 1;
nodes = (
"836 920 OFFCURVE",
"879 846 OFFCURVE",
"893 802 CURVE",
"811 286 LINE",
"764 210 OFFCURVE",
"662 120 OFFCURVE",
"557 120 CURVE SMOOTH",
"486 120 OFFCURVE",
"353 143 OFFCURVE",
"400 492 CURVE SMOOTH",
"427 757 OFFCURVE",
"564 920 OFFCURVE",
"725 920 CURVE SMOOTH"
);
}
);
width = 1358;
}
);
unicode = 0064;
},
{
glyphname = eth;
layers = (
{
anchors = (
{
name = btm;
position = "{548, -170}";
},
{
name = top;
position = "{548, 1700}";
}
);
layerId = "BDB4B313-38B1-4B24-B843-560B185382BD";
paths = (
{
closed = 1;
nodes = (
"401 1481 LINE",
"740 1449 OFFCURVE",
"922 1115 OFFCURVE",
"922 934 CURVE SMOOTH",
"922 927 OFFCURVE",
"922 920 OFFCURVE",
"921 913 CURVE",
"868 965 OFFCURVE",
"797 994 OFFCURVE",
"696 994 CURVE SMOOTH",
"305 994 OFFCURVE",
"91 697 OFFCURVE",
"91 379 CURVE SMOOTH",
"91 128 OFFCURVE",
"245 -29 OFFCURVE",
"562 -29 CURVE SMOOTH",
"989 -29 OFFCURVE",
"1258 299 OFFCURVE",
"1258 739 CURVE SMOOTH",
"1258 1202 OFFCURVE",
"933 1544 OFFCURVE",
"431 1571 CURVE"
);
},
{
closed = 1;
nodes = (
"795 877 OFFCURVE",
"894 863 OFFCURVE",
"924 782 CURVE",
"924 708 OFFCURVE",
"914 622 OFFCURVE",
"904 572 CURVE SMOOTH",
"853 322 OFFCURVE",
"788 66 OFFCURVE",
"553 66 CURVE SMOOTH",
"456 66 OFFCURVE",
"432 194 OFFCURVE",
"432 318 CURVE SMOOTH",
"432 559 OFFCURVE",
"511 877 OFFCURVE",
"726 877 CURVE SMOOTH"
);
},
{
closed = 1;
nodes = (
"399 1188 LINE",
"468 1110 LINE",
"1110 1564 LINE",
"1046 1650 LINE"
);
}
);
width = 1305;
}
);
unicode = 00F0;
},
{
glyphname = dcroat;
layers = (
{
components = (
{
name = d;
}
);
layerId = "BDB4B313-38B1-4B24-B843-560B185382BD";
paths = (
{
closed = 1;
nodes = (
"648 1288 OFFCURVE",
"636 1266 OFFCURVE",
"632 1241 CURVE",
"632 1225 OFFCURVE",
"634 1193 OFFCURVE",
"650 1192 CURVE",
"1464 1192 LINE",
"1479 1198 OFFCURVE",
"1493 1235 OFFCURVE",
"1496 1260 CURVE",
"1500 1276 OFFCURVE",
"1493 1293 OFFCURVE",
"1477 1294 CURVE",
"662 1294 LINE"
);
}
);
width = 1358;
}
);
unicode = 0111;
},
{
glyphname = e;
layers = (
{
anchors = (
{
name = btm;
position = "{483, -170}";
},
{
name = top;
position = "{818, 1700}";
}
);
layerId = "BDB4B313-38B1-4B24-B843-560B185382BD";
paths = (
{
closed = 1;
nodes = (
"1096 875 OFFCURVE",
"1013 1014 OFFCURVE",
"737 1014 CURVE SMOOTH",
"385 1014 OFFCURVE",
"86 740 OFFCURVE",
"86 381 CURVE SMOOTH",
"86 133 OFFCURVE",
"271 -29 OFFCURVE",
"569 -29 CURVE SMOOTH",
"806 -29 OFFCURVE",
"923 50 OFFCURVE",
"1060 164 CURVE SMOOTH",
"1063 167 OFFCURVE",
"1067 171 OFFCURVE",
"1065 179 CURVE SMOOTH",
"1062 193 OFFCURVE",
"1040 214 OFFCURVE",
"1028 220 CURVE SMOOTH",
"1022 223 OFFCURVE",
"1014 219 OFFCURVE",
"1007 215 CURVE SMOOTH",
"896 145 OFFCURVE",
"798 105 OFFCURVE",
"660 105 CURVE SMOOTH",
"542 105 OFFCURVE",
"423 173 OFFCURVE",
"423 360 CURVE SMOOTH",
"423 376 OFFCURVE",
"423 392 OFFCURVE",
"424 407 CURVE",
"867 465 OFFCURVE",
"1096 558 OFFCURVE",
"1096 781 CURVE SMOOTH"
);
},
{
closed = 1;
nodes = (
"776 933 OFFCURVE",
"795 871 OFFCURVE",
"795 808 CURVE SMOOTH",
"795 630 OFFCURVE",
"662 534 OFFCURVE",
"429 484 CURVE",
"455 768 OFFCURVE",
"569 933 OFFCURVE",
"691 933 CURVE SMOOTH"
);
}
);
width = 1141;
}
);
unicode = 0065;
},
{
glyphname = eogonek;
layers = (
{
components = (
{
name = e;
}
);
layerId = "BDB4B313-38B1-4B24-B843-560B185382BD";
paths = (
{
closed = 1;
nodes = (
"411 -385 OFFCURVE",
"487 -452 OFFCURVE",
"653 -452 CURVE SMOOTH",
"753 -452 OFFCURVE",
"877 -414 OFFCURVE",
"953 -329 CURVE SMOOTH",
"965 -315 OFFCURVE",
"940 -257 OFFCURVE",
"913 -266 CURVE SMOOTH",
"886 -280 OFFCURVE",
"815 -330 OFFCURVE",
"751 -330 CURVE SMOOTH",
"694 -330 OFFCURVE",
"641 -313 OFFCURVE",
"641 -228 CURVE SMOOTH",
"641 -153 OFFCURVE",
"756 -33 OFFCURVE",
"932 68 CURVE",
"794 59 LINE",
"592 -17 OFFCURVE",
"411 -154 OFFCURVE",
"411 -293 CURVE SMOOTH {name = hr00;}"
);
}
);
width = 1141;
}
);
unicode = 0119;
},
{
glyphname = f;
layers = (
{
anchors = (
{
name = btm;
position = "{143, -170}";
},
{
name = top;
position = "{471, 2007}";
}
);
layerId = "BDB4B313-38B1-4B24-B843-560B185382BD";
paths = (
{
closed = 1;
nodes = (
"92 -272 OFFCURVE",
"11 -340 OFFCURVE",
"-67 -344 CURVE",
"-143 -143 LINE",
"-146 -141 OFFCURVE",
"-180 -140 OFFCURVE",
"-185 -140 CURVE SMOOTH",
"-281 -139 OFFCURVE",
"-330 -203 OFFCURVE",
"-331 -282 CURVE SMOOTH",
"-332 -350 OFFCURVE",
"-290 -442 OFFCURVE",
"-106 -442 CURVE SMOOTH",
"208 -442 OFFCURVE",
"402 -198 OFFCURVE",
"450 56 CURVE SMOOTH",
"562 892 LINE",
"786 892 LINE",
"801 898 OFFCURVE",
"815 935 OFFCURVE",
"818 960 CURVE SMOOTH",
"822 976 OFFCURVE",
"815 993 OFFCURVE",
"799 994 CURVE",
"575 994 LINE",
"590 1107 LINE SMOOTH",
"628 1421 OFFCURVE",
"672 1475 OFFCURVE",
"735 1475 CURVE",
"825 1312 LINE SMOOTH",
"827 1310 OFFCURVE",
"830 1309 OFFCURVE",
"835 1309 CURVE SMOOTH",
"897 1308 OFFCURVE",
"1009 1352 OFFCURVE",
"1009 1431 CURVE SMOOTH",
"1011 1499 OFFCURVE",
"948 1573 OFFCURVE",
"764 1573 CURVE SMOOTH",
"444 1573 OFFCURVE",
"318 1330 OFFCURVE",
"279 1075 CURVE SMOOTH",
"267 994 LINE",
"266 994 LINE",
"132 984 LINE",
"118 978 OFFCURVE",
"106 966 OFFCURVE",
"102 941 CURVE SMOOTH",
"102 925 OFFCURVE",
"104 893 OFFCURVE",
"120 892 CURVE",
"254 892 LINE",
"138 20 LINE SMOOTH"
);
}
);
width = 780;
}
);
unicode = 0066;
},
{
glyphname = g;
layers = (
{
anchors = (
{
name = btm;
position = "{615, -170}";
},
{
name = top;
position = "{831, 1700}";
}
);
layerId = "BDB4B313-38B1-4B24-B843-560B185382BD";
paths = (
{
closed = 1;
nodes = (
"247 416 OFFCURVE",
"95 313 OFFCURVE",
"95 186 CURVE SMOOTH",
"95 68 OFFCURVE",
"181 -3 OFFCURVE",
"335 -21 CURVE",
"655 -55 LINE SMOOTH",
"776 -68 OFFCURVE",
"855 -106 OFFCURVE",
"855 -166 CURVE SMOOTH",
"855 -302 OFFCURVE",
"710 -352 OFFCURVE",
"562 -352 CURVE SMOOTH",
"320 -352 OFFCURVE",
"261 -271 OFFCURVE",
"261 -146 CURVE SMOOTH",
"261 -38 OFFCURVE",
"292 8 OFFCURVE",
"330 53 CURVE",
"248 53 LINE",
"141 29 OFFCURVE",
"-23 -26 OFFCURVE",
"-23 -163 CURVE SMOOTH",
"-23 -359 OFFCURVE",
"193 -448 OFFCURVE",
"536 -448 CURVE SMOOTH",
"867 -448 OFFCURVE",
"1141 -311 OFFCURVE",
"1141 -87 CURVE SMOOTH",
"1141 77 OFFCURVE",
"1041 172 OFFCURVE",
"746 208 CURVE SMOOTH",
"422 244 LINE SMOOTH",
"344 253 OFFCURVE",
"317 284 OFFCURVE",
"317 320 CURVE SMOOTH",
"317 366 OFFCURVE",
"402 422 OFFCURVE",
"462 422 CURVE",
"337 443 LINE"
);
},
{
closed = 1;
nodes = (
"144 492 OFFCURVE",
"270 369 OFFCURVE",
"575 369 CURVE SMOOTH",
"852 369 OFFCURVE",
"1071 484 OFFCURVE",
"1071 745 CURVE SMOOTH",
"1071 898 OFFCURVE",
"955 1014 OFFCURVE",
"646 1014 CURVE SMOOTH",
"393 1014 OFFCURVE",
"144 908 OFFCURVE",
"144 648 CURVE SMOOTH"
);
},
{
closed = 1;
nodes = (
"737 928 OFFCURVE",
"782 876 OFFCURVE",
"782 758 CURVE SMOOTH",
"782 593 OFFCURVE",
"730 458 OFFCURVE",
"599 458 CURVE SMOOTH",
"495 458 OFFCURVE",
"459 528 OFFCURVE",
"459 651 CURVE SMOOTH",
"459 811 OFFCURVE",
"498 928 OFFCURVE",
"624 928 CURVE SMOOTH"
);
},
{
closed = 1;
nodes = (
"1180 764 OFFCURVE",
"1220 744 OFFCURVE",
"1264 744 CURVE SMOOTH",
"1324 744 OFFCURVE",
"1381 783 OFFCURVE",
"1381 865 CURVE SMOOTH",
"1381 965 OFFCURVE",
"1309 1019 OFFCURVE",
"1229 1019 CURVE SMOOTH",
"1122 1019 OFFCURVE",
"998 945 OFFCURVE",
"965 893 CURVE",
"1020 826 LINE",
"1041 855 OFFCURVE",
"1139 881 OFFCURVE",
"1151 874 CURVE",
"1171 798 LINE SMOOTH"
);
}
);
width = 1329;
}
);
unicode = 0067;
},
{
glyphname = gcommaaccent;
layers = (
{
components = (
{
name = g;
}
);
layerId = "BDB4B313-38B1-4B24-B843-560B185382BD";
paths = (
{
closed = 1;
nodes = (
"869 1411 OFFCURVE",
"777 1413 OFFCURVE",
"768 1420 CURVE",
"758 1459 OFFCURVE",
"785 1492 OFFCURVE",
"804 1509 CURVE SMOOTH",
"819 1522 OFFCURVE",
"830 1536 OFFCURVE",
"830 1548 CURVE SMOOTH",
"830 1576 OFFCURVE",
"797 1585 OFFCURVE",
"774 1585 CURVE SMOOTH",
"764 1585 OFFCURVE",
"755 1583 OFFCURVE",
"748 1579 CURVE SMOOTH",
"677 1545 OFFCURVE",
"549 1450 OFFCURVE",
"549 1328 CURVE SMOOTH",
"549 1237 OFFCURVE",
"618 1193 OFFCURVE",
"689 1193 CURVE SMOOTH",
"783 1193 OFFCURVE",
"869 1228 OFFCURVE",
"869 1309 CURVE SMOOTH"
);
}
);
width = 1329;
}
);
unicode = 0123;
},
{
glyphname = h;
layers = (
{
anchors = (
{
name = btm;
position = "{570, -170}";
},
{
name = top;
position = "{980, 1700}";
}
);
layerId = "BDB4B313-38B1-4B24-B843-560B185382BD";
paths = (
{
closed = 1;
nodes = (
"390 0 LINE",
"494 669 LINE",
"541 716 OFFCURVE",
"651 838 OFFCURVE",
"800 838 CURVE SMOOTH",
"919 838 OFFCURVE",
"912 763 OFFCURVE",
"912 689 CURVE",
"829 94 OFFCURVE",
"821 126 OFFCURVE",
"821 105 CURVE SMOOTH",
"821 59 OFFCURVE",
"846 -13 OFFCURVE",
"1006 -13 CURVE SMOOTH",
"1072 -13 OFFCURVE",
"1162 0 OFFCURVE",
"1283 34 CURVE",
"1305 41 OFFCURVE",
"1310 70 OFFCURVE",
"1307 85 CURVE SMOOTH",
"1302 114 OFFCURVE",
"1291 116 OFFCURVE",
"1269 112 CURVE SMOOTH",
"1250 108 OFFCURVE",
"1226 103 OFFCURVE",
"1202 103 CURVE SMOOTH",
"1167 103 OFFCURVE",
"1141 117 OFFCURVE",
"1145 175 CURVE SMOOTH",
"1148 222 OFFCURVE",
"1238 705 OFFCURVE",
"1238 763 CURVE SMOOTH",
"1238 970 OFFCURVE",
"1138 1014 OFFCURVE",
"998 1014 CURVE SMOOTH",
"732 1014 OFFCURVE",
"552 832 OFFCURVE",
"501 785 CURVE",
"557 1104 LINE",
"623 1508 LINE",
"625 1540 OFFCURVE",
"610 1548 OFFCURVE",
"599 1548 CURVE SMOOTH",
"518 1547 OFFCURVE",
"359 1546 OFFCURVE",
"169 1538 CURVE SMOOTH",
"153 1537 OFFCURVE",
"141 1510 OFFCURVE",
"138 1494 CURVE",
"135 1469 OFFCURVE",
"144 1460 OFFCURVE",
"157 1454 CURVE",
"209 1440 OFFCURVE",
"308 1453 OFFCURVE",
"290 1329 CURVE",
"81 0 LINE"
);
}
);
width = 1382;
}
);
unicode = 0068;
},
{
glyphname = hbar;
layers = (
{
components = (
{
name = h;
}
);
layerId = "BDB4B313-38B1-4B24-B843-560B185382BD";
paths = (
{
closed = 1;
nodes = (
"140 1247 LINE",
"126 1241 OFFCURVE",
"114 1229 OFFCURVE",
"110 1204 CURVE",
"110 1188 OFFCURVE",
"112 1156 OFFCURVE",
"128 1155 CURVE",
"291 1155 LINE",
"789 1155 LINE",
"804 1161 OFFCURVE",
"818 1198 OFFCURVE",
"821 1223 CURVE",
"825 1239 OFFCURVE",
"818 1256 OFFCURVE",
"802 1257 CURVE",
"303 1257 LINE"
);
}
);
width = 1382;
}
);
unicode = 0127;
},
{
glyphname = idotless;
lastChange = "2018-05-14 02:33:19 +0000";
layers = (
{
anchors = (
{
name = btm;
position = "{252, -170}";
},
{
name = top;
position = "{525, 1700}";
}
);
layerId = "BDB4B313-38B1-4B24-B843-560B185382BD";
paths = (
{
closed = 1;
nodes = (
"151 147 OFFCURVE",
"148 112 OFFCURVE",
"149 85 CURVE SMOOTH",
"150 47 OFFCURVE",
"164 -13 OFFCURVE",
"270 -13 CURVE SMOOTH",
"385 -13 OFFCURVE",
"481 5 OFFCURVE",
"609 39 CURVE SMOOTH",
"631 45 OFFCURVE",
"635 63 OFFCURVE",
"632 78 CURVE SMOOTH",
"627 107 OFFCURVE",
"616 109 OFFCURVE",
"594 105 CURVE SMOOTH",
"575 101 OFFCURVE",
"550 96 OFFCURVE",
"527 96 CURVE SMOOTH",
"492 96 OFFCURVE",
"461 100 OFFCURVE",
"469 157 CURVE SMOOTH",
"591 957 LINE",
"592 989 OFFCURVE",
"578 997 OFFCURVE",
"567 997 CURVE SMOOTH",
"487 996 OFFCURVE",
"331 995 OFFCURVE",
"145 987 CURVE SMOOTH",
"129 986 OFFCURVE",
"117 959 OFFCURVE",
"115 943 CURVE SMOOTH",
"113 918 OFFCURVE",
"119 909 OFFCURVE",
"133 903 CURVE",
"181 889 OFFCURVE",
"276 909 OFFCURVE",
"256 785 CURVE SMOOTH",
"155 173 LINE SMOOTH"
);
}
);
width = 750;
}
);
unicode = 0131;
userData = {
com.typemytype.robofont.guides = (
{
angle = 82;
isGlobal = 0;
magnetic = 5;
x = 273;
y = 0;
}
);
};
},
{
glyphname = idieresis;
lastChange = "2018-05-14 02:33:20 +0000";
layers = (
{
components = (
{
name = idotless;
}
);
layerId = "BDB4B313-38B1-4B24-B843-560B185382BD";
paths = (
{
closed = 1;
nodes = (
"83 1269 OFFCURVE",
"135 1190 OFFCURVE",
"232 1190 CURVE SMOOTH",
"328 1190 OFFCURVE",
"402 1259 OFFCURVE",
"402 1363 CURVE SMOOTH",
"402 1458 OFFCURVE",
"348 1537 OFFCURVE",
"252 1537 CURVE SMOOTH",
"155 1537 OFFCURVE",
"83 1468 OFFCURVE",
"83 1363 CURVE SMOOTH"
);
},
{
closed = 1;
nodes = (
"521 1269 OFFCURVE",
"573 1190 OFFCURVE",
"670 1190 CURVE SMOOTH",
"766 1190 OFFCURVE",
"840 1259 OFFCURVE",
"840 1363 CURVE SMOOTH",
"840 1458 OFFCURVE",
"786 1537 OFFCURVE",
"690 1537 CURVE SMOOTH",
"593 1537 OFFCURVE",
"521 1468 OFFCURVE",
"521 1363 CURVE SMOOTH"
);
}
);
width = 750;
}
);
unicode = 00EF;
},
{
glyphname = iogonek;
lastChange = "2018-05-14 02:33:20 +0000";
layers = (
{
components = (
{
name = idotless;
},
{
name = dotaccent;
transform = "{1, 0, 0, 1, -98, 0}";
}
);
layerId = "BDB4B313-38B1-4B24-B843-560B185382BD";
paths = (
{
closed = 1;
nodes = (
"3 -385 OFFCURVE",
"79 -452 OFFCURVE",
"245 -452 CURVE SMOOTH",
"345 -452 OFFCURVE",
"469 -414 OFFCURVE",
"545 -329 CURVE SMOOTH",
"557 -315 OFFCURVE",
"532 -257 OFFCURVE",
"505 -266 CURVE",
"478 -280 OFFCURVE",
"407 -330 OFFCURVE",
"343 -330 CURVE SMOOTH",
"286 -330 OFFCURVE",
"233 -313 OFFCURVE",
"233 -228 CURVE SMOOTH",
"233 -153 OFFCURVE",
"329 -68 OFFCURVE",
"525 21 CURVE",
"387 12 LINE",
"174 -28 OFFCURVE",
"3 -154 OFFCURVE",
"3 -293 CURVE SMOOTH {name = hr00;}"
);
}
);
width = 750;
}
);
unicode = 012F;
},
{
glyphname = dotlessj;
layers = (
{
anchors = (
{
name = btm;
position = "{152, -170}";
},
{
name = top;
position = "{580, 1700}";
}
);
layerId = "BDB4B313-38B1-4B24-B843-560B185382BD";
paths = (
{
closed = 1;
nodes = (
"191 56 LINE SMOOTH",
"142 -297 OFFCURVE",
"68 -345 OFFCURVE",
"0 -347 CURVE",
"-94 -181 LINE SMOOTH",
"-109 -152 OFFCURVE",
"-136 -138 OFFCURVE",
"-167 -138 CURVE SMOOTH",
"-247 -138 OFFCURVE",
"-285 -196 OFFCURVE",
"-285 -260 CURVE SMOOTH",
"-285 -354 OFFCURVE",
"-182 -449 OFFCURVE",
"-3 -449 CURVE SMOOTH",
"234 -449 OFFCURVE",
"461 -235 OFFCURVE",
"505 74 CURVE SMOOTH",
"631 957 LINE",
"632 989 OFFCURVE",
"618 997 OFFCURVE",
"607 997 CURVE SMOOTH",
"527 996 OFFCURVE",
"371 995 OFFCURVE",
"185 987 CURVE SMOOTH",
"169 986 OFFCURVE",
"157 959 OFFCURVE",
"155 943 CURVE SMOOTH",
"153 918 OFFCURVE",
"159 909 OFFCURVE",
"173 903 CURVE",
"254 881 OFFCURVE",
"311 878 OFFCURVE",
"292 785 CURVE"
);
}
);
width = 748;
}
);
unicode = 0237;
},
{
glyphname = k;
layers = (
{
anchors = (
{
name = btm;
position = "{580, -170}";
},
{
name = top;
position = "{1051, 1700}";
}
);
layerId = "BDB4B313-38B1-4B24-B843-560B185382BD";
paths = (
{
closed = 1;
nodes = (
"643 1508 LINE SMOOTH",
"648 1540 OFFCURVE",
"630 1548 OFFCURVE",
"619 1548 CURVE SMOOTH",
"538 1547 OFFCURVE",
"392 1546 OFFCURVE",
"202 1538 CURVE SMOOTH",
"186 1537 OFFCURVE",
"174 1510 OFFCURVE",
"171 1494 CURVE",
"168 1469 OFFCURVE",
"177 1460 OFFCURVE",
"190 1454 CURVE",
"242 1440 OFFCURVE",
"333 1453 OFFCURVE",
"315 1329 CURVE",
"108 0 LINE",
"420 0 LINE",
"481 366 LINE",
"607 467 LINE",
"683 366 OFFCURVE",
"718 199 OFFCURVE",
"776 67 CURVE SMOOTH",
"800 12 OFFCURVE",
"841 -13 OFFCURVE",
"898 -13 CURVE SMOOTH",
"1043 -13 OFFCURVE",
"1131 0 OFFCURVE",
"1258 34 CURVE",
"1280 41 OFFCURVE",
"1285 70 OFFCURVE",
"1282 85 CURVE SMOOTH",
"1277 114 OFFCURVE",
"1266 116 OFFCURVE",
"1244 112 CURVE SMOOTH",
"1232 109 OFFCURVE",
"1216 104 OFFCURVE",
"1200 103 CURVE SMOOTH",
"1163 102 OFFCURVE",
"1130 143 OFFCURVE",
"1107 175 CURVE SMOOTH",
"1001 322 OFFCURVE",
"927 549 OFFCURVE",
"839 649 CURVE",
"1004 808 LINE SMOOTH",
"1066 868 OFFCURVE",
"1204 908 OFFCURVE",
"1293 906 CURVE SMOOTH",
"1315 906 OFFCURVE",
"1329 925 OFFCURVE",
"1332 949 CURVE SMOOTH",
"1334 964 OFFCURVE",
"1327 994 OFFCURVE",
"1304 994 CURVE SMOOTH",
"771 994 LINE SMOOTH",
"748 994 OFFCURVE",
"733 964 OFFCURVE",
"731 949 CURVE SMOOTH",
"728 928 OFFCURVE",
"730 908 OFFCURVE",
"756 906 CURVE SMOOTH",
"818 900 OFFCURVE",
"927 882 OFFCURVE",
"869 832 CURVE SMOOTH",
"491 490 LINE",
"527 743 LINE"
);
}
);
width = 1313;
}
);
unicode = 006B;
},
{
glyphname = kgreenlandic;
layers = (
{
layerId = "BDB4B313-38B1-4B24-B843-560B185382BD";
paths = (
{
closed = 1;
nodes = (
"590 989 OFFCURVE",
"573 997 OFFCURVE",
"562 997 CURVE SMOOTH",
"482 996 OFFCURVE",
"304 995 OFFCURVE",
"118 987 CURVE SMOOTH",
"102 986 OFFCURVE",
"90 959 OFFCURVE",
"88 943 CURVE SMOOTH",
"86 918 OFFCURVE",
"92 909 OFFCURVE",
"106 903 CURVE",
"154 889 OFFCURVE",
"257 901 OFFCURVE",
"238 778 CURVE",
"110 0 LINE",
"432 0 LINE",
"586 957 LINE"
);
},
{
closed = 1;
nodes = (
"461 330 LINE",
"576 424 LINE",
"652 329 OFFCURVE",
"757 160 OFFCURVE",
"814 37 CURVE",
"830 10 OFFCURVE",
"866 -13 OFFCURVE",
"923 -13 CURVE SMOOTH",
"1068 -13 OFFCURVE",
"1166 0 OFFCURVE",
"1293 34 CURVE",
"1315 41 OFFCURVE",
"1320 70 OFFCURVE",
"1317 85 CURVE SMOOTH",
"1312 114 OFFCURVE",
"1301 116 OFFCURVE",
"1279 112 CURVE SMOOTH",
"1267 109 OFFCURVE",
"1251 104 OFFCURVE",
"1235 103 CURVE SMOOTH",
"1198 102 OFFCURVE",
"1168 145 OFFCURVE",
"1142 175 CURVE SMOOTH",
"1025 306 OFFCURVE",
"914 520 OFFCURVE",
"826 614 CURVE",
"1009 808 LINE SMOOTH",
"1077 861 OFFCURVE",
"1209 908 OFFCURVE",
"1298 906 CURVE SMOOTH",
"1320 906 OFFCURVE",
"1334 925 OFFCURVE",
"1337 949 CURVE SMOOTH",
"1339 964 OFFCURVE",
"1332 994 OFFCURVE",
"1309 994 CURVE SMOOTH",
"776 994 LINE SMOOTH",
"753 994 OFFCURVE",
"738 964 OFFCURVE",
"736 949 CURVE SMOOTH",
"733 928 OFFCURVE",
"735 908 OFFCURVE",
"761 906 CURVE SMOOTH",
"823 900 OFFCURVE",
"932 882 OFFCURVE",
"874 832 CURVE",
"476 440 LINE",
"375 377 LINE"
);
}
);
width = 1343;
}
);
unicode = 0138;
},
{
glyphname = l;
layers = (
{
anchors = (
{
name = btm;
position = "{244, -170}";
},
{
name = top;
position = "{549, 1700}";
}
);
layerId = "BDB4B313-38B1-4B24-B843-560B185382BD";
paths = (
{
closed = 1;
nodes = (
"133 144 OFFCURVE",
"130 123 OFFCURVE",
"130 102 CURVE SMOOTH",
"130 57 OFFCURVE",
"136 -13 OFFCURVE",
"252 -13 CURVE SMOOTH",
"330 -13 OFFCURVE",
"447 1 OFFCURVE",
"593 34 CURVE SMOOTH",
"611 40 OFFCURVE",
"618 60 OFFCURVE",
"618 76 CURVE SMOOTH",
"618 105 OFFCURVE",
"604 107 OFFCURVE",
"592 107 CURVE SMOOTH",
"572 107 OFFCURVE",
"540 98 OFFCURVE",
"512 98 CURVE SMOOTH",
"456 98 OFFCURVE",
"449 130 OFFCURVE",
"455 170 CURVE SMOOTH",
"662 1508 LINE SMOOTH",
"662 1512 OFFCURVE",
"663 1515 OFFCURVE",
"663 1518 CURVE SMOOTH",
"663 1542 OFFCURVE",
"648 1548 OFFCURVE",
"638 1548 CURVE SMOOTH",
"558 1547 OFFCURVE",
"375 1546 OFFCURVE",
"187 1538 CURVE SMOOTH",
"166 1537 OFFCURVE",
"153 1497 OFFCURVE",
"153 1485 CURVE SMOOTH",
"153 1414 OFFCURVE",
"321 1461 OFFCURVE",
"321 1364 CURVE SMOOTH",
"321 1357 OFFCURVE",
"313 1318 OFFCURVE",
"307 1276 CURVE SMOOTH",
"248 883 OFFCURVE",
"194 576 OFFCURVE",
"138 180 CURVE SMOOTH"
);
}
);
width = 725;
}
);
unicode = 006C;
},
{
glyphname = lacute;
layers = (
{
components = (
{
name = acute.cap;
transform = "{1, 0, 0, 1, 61, 0}";
}
);
layerId = "BDB4B313-38B1-4B24-B843-560B185382BD";
paths = (
{
closed = 1;
nodes = (
"657 1382 OFFCURVE",
"657 1385 OFFCURVE",
"657 1388 CURVE SMOOTH",
"657 1412 OFFCURVE",
"642 1418 OFFCURVE",
"632 1418 CURVE SMOOTH",
"552 1417 OFFCURVE",
"369 1416 OFFCURVE",
"181 1408 CURVE SMOOTH",
"160 1407 OFFCURVE",
"149 1367 OFFCURVE",
"149 1355 CURVE SMOOTH",
"149 1284 OFFCURVE",
"312 1351 OFFCURVE",
"312 1224 CURVE SMOOTH",
"312 1217 OFFCURVE",
"311 1208 OFFCURVE",
"310 1199 CURVE SMOOTH",
"254 803 OFFCURVE",
"193 576 OFFCURVE",
"137 180 CURVE SMOOTH",
"132 144 OFFCURVE",
"129 123 OFFCURVE",
"129 102 CURVE SMOOTH",
"129 57 OFFCURVE",
"135 -13 OFFCURVE",
"251 -13 CURVE SMOOTH",
"329 -13 OFFCURVE",
"446 1 OFFCURVE",
"592 34 CURVE",
"610 40 OFFCURVE",
"617 60 OFFCURVE",
"617 76 CURVE SMOOTH",
"617 105 OFFCURVE",
"603 107 OFFCURVE",
"591 107 CURVE SMOOTH",
"571 107 OFFCURVE",
"539 98 OFFCURVE",
"511 98 CURVE SMOOTH",
"455 98 OFFCURVE",
"446 130 OFFCURVE",
"453 170 CURVE SMOOTH",
"656 1378 LINE SMOOTH"
);
}
);
width = 725;
}
);
unicode = 013A;
},
{
glyphname = lslash;
layers = (
{
components = (
{
name = l;
}
);
layerId = "BDB4B313-38B1-4B24-B843-560B185382BD";
paths = (
{
closed = 1;
nodes = (
"790 901 OFFCURVE",
"784 944 OFFCURVE",
"775 967 CURVE SMOOTH",
"769 982 OFFCURVE",
"755 995 OFFCURVE",
"740 990 CURVE",
"27 702 LINE",
"17 691 OFFCURVE",
"15 667 OFFCURVE",
"24 644 CURVE SMOOTH",
"30 629 OFFCURVE",
"51 597 OFFCURVE",
"66 602 CURVE",
"779 890 LINE"
);
}
);
width = 725;
}
);
unicode = 0142;
},
{
glyphname = m;
layers = (
{
anchors = (
{
name = btm;
position = "{835, -170}";
},
{
name = top;
position = "{1269, 1700}";
}
);
layerId = "BDB4B313-38B1-4B24-B843-560B185382BD";
paths = (
{
closed = 1;
nodes = (
"1981 964 OFFCURVE",
"1834 1014 OFFCURVE",
"1671 1014 CURVE SMOOTH",
"1500 1014 OFFCURVE",
"1350 895 OFFCURVE",
"1265 824 CURVE",
"1247 976 OFFCURVE",
"1139 1014 OFFCURVE",
"990 1014 CURVE SMOOTH",
"776 1014 OFFCURVE",
"610 852 OFFCURVE",
"560 785 CURVE",
"586 957 LINE",
"590 989 OFFCURVE",
"573 997 OFFCURVE",
"562 997 CURVE SMOOTH",
"482 996 OFFCURVE",
"326 995 OFFCURVE",
"140 987 CURVE SMOOTH",
"124 986 OFFCURVE",
"112 959 OFFCURVE",
"110 943 CURVE SMOOTH",
"107 918 OFFCURVE",
"115 909 OFFCURVE",
"128 903 CURVE",
"176 889 OFFCURVE",
"280 901 OFFCURVE",
"260 778 CURVE SMOOTH",
"137 0 LINE",
"449 0 LINE",
"558 688 LINE",
"620 751 OFFCURVE",
"712 843 OFFCURVE",
"836 843 CURVE SMOOTH",
"955 843 OFFCURVE",
"958 751 OFFCURVE",
"950 697 CURVE SMOOTH",
"843 0 LINE",
"1157 0 LINE",
"1265 722 LINE",
"1328 777 OFFCURVE",
"1411 843 OFFCURVE",
"1516 843 CURVE SMOOTH",
"1635 843 OFFCURVE",
"1636 748 OFFCURVE",
"1628 694 CURVE SMOOTH",
"1544 142 LINE",
"1544 142 OFFCURVE",
"1498 -19 OFFCURVE",
"1683 -13 CURVE",
"1851 -13 OFFCURVE",
"1974 40 OFFCURVE",
"1999 54 CURVE SMOOTH",
"2015 68 OFFCURVE",
"2005 122 OFFCURVE",
"1973 113 CURVE SMOOTH",
"1948 106 OFFCURVE",
"1909 100 OFFCURVE",
"1890 100 CURVE SMOOTH",
"1868 100 OFFCURVE",
"1855 125 OFFCURVE",
"1865 195 CURVE SMOOTH",
"1946 726 LINE"
);
}
);
width = 2052;
}
);
unicode = 006D;
},
{
glyphname = n;
layers = (
{
anchors = (
{
name = btm;
position = "{615, -170}";
},
{
name = top;
position = "{903, 1700}";
}
);
layerId = "BDB4B313-38B1-4B24-B843-560B185382BD";
paths = (
{
closed = 1;
nodes = (
"1299 947 OFFCURVE",
"1186 1014 OFFCURVE",
"1059 1014 CURVE SMOOTH",
"784 1014 OFFCURVE",
"626 842 OFFCURVE",
"563 785 CURVE",
"589 957 LINE SMOOTH",
"593 989 OFFCURVE",
"576 997 OFFCURVE",
"565 997 CURVE SMOOTH",
"485 996 OFFCURVE",
"327 995 OFFCURVE",
"141 987 CURVE SMOOTH",
"125 986 OFFCURVE",
"113 959 OFFCURVE",
"111 943 CURVE SMOOTH",
"109 918 OFFCURVE",
"115 909 OFFCURVE",
"129 903 CURVE",
"177 889 OFFCURVE",
"279 901 OFFCURVE",
"260 778 CURVE SMOOTH",
"139 0 LINE",
"451 0 LINE",
"561 689 LINE",
"627 759 OFFCURVE",
"739 844 OFFCURVE",
"878 844 CURVE SMOOTH",
"948 844 OFFCURVE",
"965 784 OFFCURVE",
"954 701 CURVE SMOOTH",
"871 142 LINE",
"871 142 OFFCURVE",
"825 -19 OFFCURVE",
"1010 -13 CURVE SMOOTH",
"1173 -13 OFFCURVE",
"1302 40 OFFCURVE",
"1326 54 CURVE SMOOTH",
"1342 68 OFFCURVE",
"1332 122 OFFCURVE",
"1300 113 CURVE SMOOTH",
"1275 106 OFFCURVE",
"1236 100 OFFCURVE",
"1217 100 CURVE SMOOTH",
"1195 100 OFFCURVE",
"1184 125 OFFCURVE",
"1192 195 CURVE SMOOTH",
"1269 719 LINE"
);
}
);
width = 1413;
}
);
unicode = 006E;
},
{
glyphname = eng;
layers = (
{
anchors = (
{
name = btm;
position = "{507, -170}";
},
{
name = top;
position = "{507, 1700}";
}
);
layerId = "BDB4B313-38B1-4B24-B843-560B185382BD";
paths = (
{
closed = 1;
nodes = (
"1302 941 OFFCURVE",
"1185 1014 OFFCURVE",
"1058 1014 CURVE SMOOTH",
"788 1014 OFFCURVE",
"625 842 OFFCURVE",
"563 785 CURVE",
"589 957 LINE",
"593 989 OFFCURVE",
"576 997 OFFCURVE",
"565 997 CURVE SMOOTH",
"485 996 OFFCURVE",
"326 995 OFFCURVE",
"140 987 CURVE SMOOTH",
"124 986 OFFCURVE",
"112 959 OFFCURVE",
"110 943 CURVE SMOOTH",
"108 918 OFFCURVE",
"114 909 OFFCURVE",
"128 903 CURVE",
"176 889 OFFCURVE",
"279 901 OFFCURVE",
"260 778 CURVE",
"138 0 LINE",
"451 0 LINE",
"561 689 LINE",
"625 759 OFFCURVE",
"741 844 OFFCURVE",
"877 844 CURVE SMOOTH",
"935 844 OFFCURVE",
"970 802 OFFCURVE",
"955 702 CURVE SMOOTH",
"859 58 LINE SMOOTH",
"814 -294 OFFCURVE",
"743 -346 OFFCURVE",
"677 -346 CURVE",
"592 -144 LINE",
"585 -122 OFFCURVE",
"562 -115 OFFCURVE",
"524 -115 CURVE SMOOTH",
"435 -115 OFFCURVE",
"387 -179 OFFCURVE",
"377 -253 CURVE SMOOTH",
"365 -335 OFFCURVE",
"451 -448 OFFCURVE",
"624 -448 CURVE SMOOTH",
"1025 -448 OFFCURVE",
"1138 -185 OFFCURVE",
"1176 90 CURVE SMOOTH",
"1268 714 LINE SMOOTH"
);
}
);
width = 1389;
}
);
unicode = 014B;
},
{
glyphname = o;
layers = (
{
anchors = (
{
name = btm;
position = "{529, -170}";
},
{
name = top;
position = "{834, 1700}";
}
);
layerId = "BDB4B313-38B1-4B24-B843-560B185382BD";
paths = (
{
closed = 1;
nodes = (
"92 161 OFFCURVE",
"238 -28 OFFCURVE",
"606 -28 CURVE SMOOTH",
"1007 -28 OFFCURVE",
"1227 240 OFFCURVE",
"1218 555 CURVE SMOOTH",
"1211 825 OFFCURVE",
"1064 1014 OFFCURVE",
"689 1014 CURVE SMOOTH",
"287 1014 OFFCURVE",
"78 715 OFFCURVE",
"85 431 CURVE SMOOTH"
);
},
{
closed = 1;
nodes = (
"466 59 OFFCURVE",
"424 173 OFFCURVE",
"421 338 CURVE SMOOTH",
"416 615 OFFCURVE",
"491 926 OFFCURVE",
"691 926 CURVE SMOOTH",
"827 926 OFFCURVE",
"875 813 OFFCURVE",
"878 646 CURVE SMOOTH",
"884 368 OFFCURVE",
"807 59 OFFCURVE",
"600 59 CURVE SMOOTH"
);
}
);
width = 1303;
}
);
unicode = 006F;
},
{
glyphname = oslash;
layers = (
{
components = (
{
name = o;
}
);
layerId = "BDB4B313-38B1-4B24-B843-560B185382BD";
paths = (
{
closed = 1;
nodes = (
"1092 1105 OFFCURVE",
"1070 1130 OFFCURVE",
"1049 1143 CURVE SMOOTH",
"1035 1151 OFFCURVE",
"1017 1153 OFFCURVE",
"1007 1140 CURVE",
"222 -107 LINE",
"220 -122 OFFCURVE",
"233 -142 OFFCURVE",
"255 -155 CURVE SMOOTH",
"268 -163 OFFCURVE",
"295 -170 OFFCURVE",
"304 -157 CURVE SMOOTH",
"1090 1090 LINE"
);
}
);
width = 1303;
}
);
unicode = 00F8;
},
{
glyphname = oe;
layers = (
{
anchors = (
{
name = btm;
position = "{841, -170}";
},
{
name = top;
position = "{841, 1700}";
}
);
layerId = "BDB4B313-38B1-4B24-B843-560B185382BD";
paths = (
{
closed = 1;
nodes = (
"82 161 OFFCURVE",
"232 -28 OFFCURVE",
"586 -28 CURVE SMOOTH",
"987 -28 OFFCURVE",
"1187 240 OFFCURVE",
"1178 555 CURVE SMOOTH",
"1171 825 OFFCURVE",
"1044 1014 OFFCURVE",
"669 1014 CURVE SMOOTH",
"281 1014 OFFCURVE",
"68 715 OFFCURVE",
"75 431 CURVE SMOOTH"
);
},
{
closed = 1;
nodes = (
"461 59 OFFCURVE",
"424 173 OFFCURVE",
"421 338 CURVE SMOOTH",
"416 615 OFFCURVE",
"485 926 OFFCURVE",
"671 926 CURVE SMOOTH",
"807 926 OFFCURVE",
"855 813 OFFCURVE",
"858 646 CURVE SMOOTH",
"864 368 OFFCURVE",
"787 59 OFFCURVE",
"580 59 CURVE SMOOTH"
);
},
{
closed = 1;
nodes = (
"1860 875 OFFCURVE",
"1777 1014 OFFCURVE",
"1501 1014 CURVE SMOOTH",
"1154 1014 OFFCURVE",
"864 740 OFFCURVE",
"864 381 CURVE SMOOTH",
"864 133 OFFCURVE",
"1041 -29 OFFCURVE",
"1333 -29 CURVE SMOOTH",
"1570 -29 OFFCURVE",
"1687 50 OFFCURVE",
"1824 164 CURVE",
"1828 172 OFFCURVE",
"1843 181 OFFCURVE",
"1830 192 CURVE SMOOTH",
"1793 225 LINE",
"1784 231 OFFCURVE",
"1778 223 OFFCURVE",
"1771 215 CURVE",
"1661 143 OFFCURVE",
"1562 105 OFFCURVE",
"1424 105 CURVE SMOOTH",
"1311 105 OFFCURVE",
"1201 173 OFFCURVE",
"1201 360 CURVE SMOOTH",
"1201 376 OFFCURVE",
"1201 392 OFFCURVE",
"1202 407 CURVE",
"1638 465 OFFCURVE",
"1860 558 OFFCURVE",
"1860 781 CURVE SMOOTH"
);
},
{
closed = 1;
nodes = (
"1540 933 OFFCURVE",
"1559 871 OFFCURVE",
"1559 808 CURVE SMOOTH",
"1559 630 OFFCURVE",
"1434 534 OFFCURVE",
"1207 484 CURVE",
"1232 768 OFFCURVE",
"1338 933 OFFCURVE",
"1455 933 CURVE SMOOTH"
);
}
);
width = 1911;
}
);
unicode = 0153;
},
{
glyphname = p;
layers = (
{
anchors = (
{
name = btm;
position = "{419, -170}";
},
{
name = top;
position = "{940, 1700}";
}
);
layerId = "BDB4B313-38B1-4B24-B843-560B185382BD";
paths = (
{
closed = 1;
nodes = (
"413 -1 LINE",
"485 -19 OFFCURVE",
"565 -30 OFFCURVE",
"642 -30 CURVE SMOOTH",
"1073 -30 OFFCURVE",
"1290 301 OFFCURVE",
"1290 610 CURVE SMOOTH",
"1290 835 OFFCURVE",
"1184 1013 OFFCURVE",
"916 1013 CURVE SMOOTH",
"795 1013 OFFCURVE",
"653 952 OFFCURVE",
"552 815 CURVE",
"574 957 LINE",
"574 961 OFFCURVE",
"575 964 OFFCURVE",
"575 967 CURVE SMOOTH",
"575 991 OFFCURVE",
"560 997 OFFCURVE",
"550 997 CURVE SMOOTH",
"470 996 OFFCURVE",
"314 995 OFFCURVE",
"128 987 CURVE SMOOTH",
"106 986 OFFCURVE",
"97 944 OFFCURVE",
"97 933 CURVE SMOOTH",
"97 864 OFFCURVE",
"250 930 OFFCURVE",
"250 804 CURVE SMOOTH",
"250 796 OFFCURVE",
"249 787 OFFCURVE",
"248 778 CURVE SMOOTH",
"96 -269 LINE SMOOTH",
"84 -355 OFFCURVE",
"10 -361 OFFCURVE",
"-40 -366 CURVE SMOOTH",
"-66 -369 OFFCURVE",
"-80 -374 OFFCURVE",
"-80 -408 CURVE SMOOTH",
"-80 -423 OFFCURVE",
"-72 -444 OFFCURVE",
"-53 -444 CURVE SMOOTH",
"557 -444 LINE SMOOTH",
"589 -444 OFFCURVE",
"598 -403 OFFCURVE",
"598 -393 CURVE SMOOTH",
"598 -378 OFFCURVE",
"591 -368 OFFCURVE",
"569 -366 CURVE SMOOTH",
"493 -360 OFFCURVE",
"402 -347 OFFCURVE",
"402 -306 CURVE SMOOTH",
"402 -305 OFFCURVE",
"402 -303 OFFCURVE",
"402 -302 CURVE",
"429 -108 LINE",
"438 11 LINE"
);
},
{
closed = 1;
nodes = (
"600 787 OFFCURVE",
"701 865 OFFCURVE",
"793 865 CURVE SMOOTH",
"906 865 OFFCURVE",
"943 773 OFFCURVE",
"943 627 CURVE SMOOTH",
"943 327 OFFCURVE",
"836 65 OFFCURVE",
"619 65 CURVE SMOOTH",
"540 65 OFFCURVE",
"461 113 OFFCURVE",
"458 144 CURVE",
"550 719 LINE"
);
}
);
width = 1358;
}
);
unicode = 0070;
},
{
glyphname = thorn;
layers = (
{
anchors = (
{
name = btm;
position = "{309, -170}";
},
{
name = top;
position = "{309, 1700}";
}
);
components = (
{
name = b;
}
);
layerId = "BDB4B313-38B1-4B24-B843-560B185382BD";
paths = (
{
closed = 1;
nodes = (
"2 -443 LINE",
"303 -444 LINE",
"352 -117 LINE",
"365 27 LINE",
"265 251 LINE",
"92 126 LINE"
);
}
);
width = 1325;
}
);
unicode = 00FE;
},
{
glyphname = q;
layers = (
{
anchors = (
{
name = btm;
position = "{549, -170}";
},
{
name = top;
position = "{763, 1700}";
}
);
layerId = "BDB4B313-38B1-4B24-B843-560B185382BD";
paths = (
{
closed = 1;
nodes = (
"728 -302 LINE",
"722 -346 OFFCURVE",
"643 -359 OFFCURVE",
"576 -366 CURVE SMOOTH",
"550 -368 OFFCURVE",
"541 -382 OFFCURVE",
"538 -403 CURVE SMOOTH",
"536 -418 OFFCURVE",
"543 -444 OFFCURVE",
"566 -444 CURVE SMOOTH",
"1162 -444 LINE SMOOTH",
"1185 -444 OFFCURVE",
"1199 -418 OFFCURVE",
"1202 -403 CURVE SMOOTH",
"1206 -373 OFFCURVE",
"1199 -369 OFFCURVE",
"1171 -366 CURVE SMOOTH",
"1108 -361 OFFCURVE",
"1030 -355 OFFCURVE",
"1043 -275 CURVE",
"1225 981 LINE SMOOTH",
"1229 1006 OFFCURVE",
"1214 1028 OFFCURVE",
"1192 1028 CURVE SMOOTH",
"1169 1028 OFFCURVE",
"1086 997 OFFCURVE",
"1073 994 CURVE SMOOTH",
"1029 984 OFFCURVE",
"1003 968 OFFCURVE",
"918 941 CURVE",
"981 931 LINE",
"885 993 OFFCURVE",
"820 1015 OFFCURVE",
"704 1015 CURVE",
"315 1015 OFFCURVE",
"46 722 OFFCURVE",
"46 383 CURVE SMOOTH",
"46 164 OFFCURVE",
"158 -28 OFFCURVE",
"431 -28 CURVE SMOOTH",
"549 -28 OFFCURVE",
"665 18 OFFCURVE",
"794 146 CURVE",
"769 -29 LINE"
);
},
{
closed = 1;
nodes = (
"427 757 OFFCURVE",
"564 920 OFFCURVE",
"725 920 CURVE SMOOTH",
"836 920 OFFCURVE",
"879 840 OFFCURVE",
"893 802 CURVE",
"811 279 LINE",
"764 210 OFFCURVE",
"662 120 OFFCURVE",
"557 120 CURVE SMOOTH",
"486 120 OFFCURVE",
"364 141 OFFCURVE",
"400 492 CURVE SMOOTH"
);
}
);
width = 1331;
}
);
unicode = 0071;
},
{
glyphname = r;
layers = (
{
anchors = (
{
name = btm;
position = "{261, -170}";
},
{
name = top;
position = "{716, 1700}";
}
);
layerId = "BDB4B313-38B1-4B24-B843-560B185382BD";
paths = (
{
closed = 1;
nodes = (
"578 989 OFFCURVE",
"560 997 OFFCURVE",
"549 997 CURVE SMOOTH",
"469 996 OFFCURVE",
"323 995 OFFCURVE",
"137 987 CURVE SMOOTH",
"121 986 OFFCURVE",
"109 959 OFFCURVE",
"107 943 CURVE SMOOTH",
"104 918 OFFCURVE",
"112 909 OFFCURVE",
"125 903 CURVE",
"173 889 OFFCURVE",
"277 901 OFFCURVE",
"257 778 CURVE SMOOTH",
"134 0 LINE",
"446 0 LINE",
"560 721 LINE",
"607 763 OFFCURVE",
"701 820 OFFCURVE",
"781 820 CURVE",
"835 614 LINE",
"844 608 OFFCURVE",
"867 600 OFFCURVE",
"893 600 CURVE SMOOTH",
"1023 600 OFFCURVE",
"1095 716 OFFCURVE",
"1095 845 CURVE SMOOTH",
"1095 944 OFFCURVE",
"1041 1014 OFFCURVE",
"921 1014 CURVE SMOOTH",
"763 1014 OFFCURVE",
"621 885 OFFCURVE",
"560 811 CURVE",
"573 957 LINE"
);
}
);
width = 1094;
}
);
unicode = 0072;
},
{
glyphname = s;
layers = (
{
anchors = (
{
name = btm;
position = "{428, -170}";
},
{
name = top;
position = "{758, 1700}";
}
);
layerId = "BDB4B313-38B1-4B24-B843-560B185382BD";
paths = (
{
closed = 1;
nodes = (
"456 50 OFFCURVE",
"409 62 OFFCURVE",
"382 85 CURVE",
"263 262 LINE SMOOTH",
"238 298 OFFCURVE",
"191 305 OFFCURVE",
"161 305 CURVE SMOOTH",
"126 305 OFFCURVE",
"62 282 OFFCURVE",
"62 207 CURVE SMOOTH",
"62 50 OFFCURVE",
"282 -28 OFFCURVE",
"504 -28 CURVE SMOOTH",
"829 -28 OFFCURVE",
"956 141 OFFCURVE",
"956 271 CURVE SMOOTH",
"956 431 OFFCURVE",
"815 524 OFFCURVE",
"655 614 CURVE SMOOTH",
"526 687 OFFCURVE",
"422 733 OFFCURVE",
"422 816 CURVE SMOOTH",
"422 889 OFFCURVE",
"490 938 OFFCURVE",
"603 938 CURVE SMOOTH",
"650 938 OFFCURVE",
"680 922 OFFCURVE",
"710 900 CURVE",
"819 748 LINE SMOOTH",
"837 722 OFFCURVE",
"868 713 OFFCURVE",
"908 713 CURVE SMOOTH",
"949 713 OFFCURVE",
"1007 742 OFFCURVE",
"1007 815 CURVE SMOOTH",
"1007 921 OFFCURVE",
"869 1013 OFFCURVE",
"581 1013 CURVE SMOOTH",
"313 1013 OFFCURVE",
"145 898 OFFCURVE",
"145 739 CURVE SMOOTH",
"145 595 OFFCURVE",
"249 498 OFFCURVE",
"371 428 CURVE SMOOTH",
"517 345 OFFCURVE",
"679 271 OFFCURVE",
"679 171 CURVE SMOOTH",
"679 96 OFFCURVE",
"592 50 OFFCURVE",
"502 50 CURVE SMOOTH"
);
}
);
width = 1059;
}
);
unicode = 0073;
},
{
glyphname = germandbls;
layers = (
{
anchors = (
{
name = btm;
position = "{29, -170}";
},
{
name = top;
position = "{29, 1700}";
}
);
layerId = "BDB4B313-38B1-4B24-B843-560B185382BD";
paths = (
{
closed = 1;
nodes = (
"531 1093 LINE SMOOTH",
"581 1453 OFFCURVE",
"729 1474 OFFCURVE",
"823 1474 CURVE SMOOTH",
"910 1474 OFFCURVE",
"957 1410 OFFCURVE",
"957 1304 CURVE SMOOTH",
"957 1043 OFFCURVE",
"678 1076 OFFCURVE",
"678 833 CURVE SMOOTH",
"678 639 OFFCURVE",
"948 581 OFFCURVE",
"948 314 CURVE SMOOTH",
"948 187 OFFCURVE",
"873 55 OFFCURVE",
"791 55 CURVE SMOOTH",
"751 55 OFFCURVE",
"736 87 OFFCURVE",
"736 87 CURVE",
"690 252 LINE",
"680 268 OFFCURVE",
"658 274 OFFCURVE",
"628 274 CURVE SMOOTH",
"567 274 OFFCURVE",
"506 222 OFFCURVE",
"506 135 CURVE SMOOTH",
"506 52 OFFCURVE",
"581 -29 OFFCURVE",
"775 -29 CURVE SMOOTH",
"1041 -29 OFFCURVE",
"1270 134 OFFCURVE",
"1270 371 CURVE SMOOTH",
"1270 727 OFFCURVE",
"853 820 OFFCURVE",
"853 913 CURVE SMOOTH",
"853 1021 OFFCURVE",
"1260 1081 OFFCURVE",
"1260 1315 CURVE SMOOTH",
"1260 1508 OFFCURVE",
"1076 1559 OFFCURVE",
"864 1559 CURVE SMOOTH",
"446 1559 OFFCURVE",
"253 1315 OFFCURVE",
"206 1061 CURVE SMOOTH",
"46 0 LINE",
"378 0 LINE"
);
}
);
width = 1343;
}
);
unicode = 00DF;
},
{
glyphname = t;
layers = (
{
anchors = (
{
name = btm;
position = "{365, -170}";
},
{
name = top;
position = "{623, 1870}";
}
);
layerId = "BDB4B313-38B1-4B24-B843-560B185382BD";
paths = (
{
closed = 1;
nodes = (
"130 20 OFFCURVE",
"229 -28 OFFCURVE",
"366 -28 CURVE SMOOTH",
"504 -28 OFFCURVE",
"678 29 OFFCURVE",
"799 111 CURVE SMOOTH",
"808 117 OFFCURVE",
"811 127 OFFCURVE",
"811 139 CURVE SMOOTH",
"810 169 OFFCURVE",
"797 199 OFFCURVE",
"764 184 CURVE SMOOTH",
"720 164 OFFCURVE",
"634 121 OFFCURVE",
"555 121 CURVE SMOOTH",
"504 121 OFFCURVE",
"450 127 OFFCURVE",
"474 276 CURVE SMOOTH",
"565 892 LINE",
"836 892 LINE",
"851 898 OFFCURVE",
"869 925 OFFCURVE",
"869 960 CURVE SMOOTH",
"869 976 OFFCURVE",
"866 993 OFFCURVE",
"850 994 CURVE",
"579 994 LINE",
"621 1267 LINE SMOOTH",
"623 1278 OFFCURVE",
"615 1291 OFFCURVE",
"598 1291 CURVE SMOOTH",
"521 1291 LINE SMOOTH",
"461 1291 OFFCURVE",
"429 1275 OFFCURVE",
"405 1228 CURVE SMOOTH",
"303 1024 OFFCURVE",
"284 1005 OFFCURVE",
"143 984 CURVE SMOOTH",
"127 982 OFFCURVE",
"116 966 OFFCURVE",
"113 941 CURVE SMOOTH",
"111 925 OFFCURVE",
"114 893 OFFCURVE",
"130 892 CURVE",
"254 892 LINE",
"157 223 LINE"
);
}
);
width = 854;
}
);
unicode = 0074;
},
{
glyphname = tbar;
layers = (
{
components = (
{
name = t;
}
);
layerId = "BDB4B313-38B1-4B24-B843-560B185382BD";
paths = (
{
closed = 1;
nodes = (
"90 666 LINE",
"76 660 OFFCURVE",
"64 648 OFFCURVE",
"60 623 CURVE",
"60 607 OFFCURVE",
"62 575 OFFCURVE",
"78 574 CURVE",
"241 574 LINE",
"719 574 LINE",
"734 580 OFFCURVE",
"748 617 OFFCURVE",
"751 642 CURVE",
"755 658 OFFCURVE",
"748 675 OFFCURVE",
"732 676 CURVE",
"253 676 LINE"
);
}
);
width = 854;
}
);
unicode = 0167;
},
{
glyphname = u;
layers = (
{
anchors = (
{
name = btm;
position = "{556, -170}";
},
{
name = top;
position = "{850, 1700}";
}
);
layerId = "BDB4B313-38B1-4B24-B843-560B185382BD";
paths = (
{
closed = 1;
nodes = (
"564 906 OFFCURVE",
"620 1007 OFFCURVE",
"408 1007 CURVE SMOOTH",
"339 1007 OFFCURVE",
"243 990 OFFCURVE",
"114 957 CURVE",
"92 950 OFFCURVE",
"82 927 OFFCURVE",
"85 912 CURVE SMOOTH",
"90 883 OFFCURVE",
"107 881 OFFCURVE",
"129 885 CURVE SMOOTH",
"148 888 OFFCURVE",
"173 894 OFFCURVE",
"195 894 CURVE SMOOTH",
"231 894 OFFCURVE",
"261 881 OFFCURVE",
"253 822 CURVE SMOOTH",
"177 308 LINE SMOOTH",
"134 60 OFFCURVE",
"275 -28 OFFCURVE",
"434 -28 CURVE SMOOTH",
"599 -28 OFFCURVE",
"772 49 OFFCURVE",
"824 114 CURVE",
"812 46 OFFCURVE",
"848 -25 OFFCURVE",
"956 -25 CURVE SMOOTH",
"1124 -25 OFFCURVE",
"1227 28 OFFCURVE",
"1252 42 CURVE SMOOTH",
"1268 56 OFFCURVE",
"1258 110 OFFCURVE",
"1226 101 CURVE SMOOTH",
"1200 94 OFFCURVE",
"1173 88 OFFCURVE",
"1154 88 CURVE SMOOTH",
"1132 88 OFFCURVE",
"1119 113 OFFCURVE",
"1129 183 CURVE SMOOTH",
"1253 958 LINE SMOOTH",
"1256 979 OFFCURVE",
"1249 994 OFFCURVE",
"1221 994 CURVE SMOOTH",
"946 993 LINE",
"822 189 LINE",
"763 151 OFFCURVE",
"700 113 OFFCURVE",
"584 113 CURVE SMOOTH",
"466 113 OFFCURVE",
"459 198 OFFCURVE",
"470 273 CURVE SMOOTH",
"560 852 LINE"
);
}
);
width = 1403;
}
);
unicode = 0075;
},
{
glyphname = uogonek;
layers = (
{
components = (
{
name = u;
}
);
layerId = "BDB4B313-38B1-4B24-B843-560B185382BD";
paths = (
{
closed = 1;
nodes = (
"657 -385 OFFCURVE",
"733 -452 OFFCURVE",
"899 -452 CURVE SMOOTH",
"999 -452 OFFCURVE",
"1123 -414 OFFCURVE",
"1199 -329 CURVE SMOOTH",
"1211 -315 OFFCURVE",
"1186 -257 OFFCURVE",
"1159 -266 CURVE",
"1132 -280 OFFCURVE",
"1061 -330 OFFCURVE",
"997 -330 CURVE SMOOTH",
"940 -330 OFFCURVE",
"887 -313 OFFCURVE",
"887 -228 CURVE SMOOTH",
"887 -153 OFFCURVE",
"983 -68 OFFCURVE",
"1179 21 CURVE",
"1041 12 LINE",
"828 -28 OFFCURVE",
"657 -154 OFFCURVE",
"657 -293 CURVE SMOOTH {name = hr00;}"
);
}
);
width = 1403;
}
);
unicode = 0173;
},
{
glyphname = v;
layers = (
{
anchors = (
{
name = btm;
position = "{423, -170}";
},
{
name = top;
position = "{786, 1700}";
}
);
layerId = "BDB4B313-38B1-4B24-B843-560B185382BD";
paths = (
{
closed = 1;
nodes = (
"296 611 OFFCURVE",
"341 272 OFFCURVE",
"342 91 CURVE SMOOTH",
"342 57 OFFCURVE",
"341 34 OFFCURVE",
"341 22 CURVE SMOOTH",
"341 -13 OFFCURVE",
"368 -24 OFFCURVE",
"466 -24 CURVE SMOOTH",
"523 -24 OFFCURVE",
"523 -24 OFFCURVE",
"529 -23 CURVE SMOOTH",
"728 23 OFFCURVE",
"1201 409 OFFCURVE",
"1201 761 CURVE SMOOTH",
"1201 880 OFFCURVE",
"1149 1014 OFFCURVE",
"1019 1014 CURVE SMOOTH",
"920 1014 OFFCURVE",
"859 952 OFFCURVE",
"859 874 CURVE SMOOTH",
"859 755 OFFCURVE",
"921 689 OFFCURVE",
"921 580 CURVE SMOOTH",
"921 353 OFFCURVE",
"697 145 OFFCURVE",
"559 95 CURVE",
"597 141 OFFCURVE",
"629 217 OFFCURVE",
"629 278 CURVE SMOOTH",
"629 568 OFFCURVE",
"558 1014 OFFCURVE",
"315 1014 CURVE SMOOTH",
"193 1014 OFFCURVE",
"77 970 OFFCURVE",
"-9 845 CURVE",
"-13 837 OFFCURVE",
"-15 828 OFFCURVE",
"-15 820 CURVE SMOOTH",
"-15 786 OFFCURVE",
"7 774 OFFCURVE",
"21 774 CURVE SMOOTH",
"32 774 OFFCURVE",
"42 780 OFFCURVE",
"50 788 CURVE SMOOTH",
"76 813 OFFCURVE",
"93 832 OFFCURVE",
"129 832 CURVE SMOOTH",
"152 832 OFFCURVE",
"166 817 OFFCURVE",
"179 799 CURVE SMOOTH"
);
}
);
width = 1253;
}
);
unicode = 0076;
},
{
glyphname = w;
layers = (
{
anchors = (
{
name = btm;
position = "{774, -170}";
},
{
name = top;
position = "{1140, 1700}";
}
);
layerId = "BDB4B313-38B1-4B24-B843-560B185382BD";
paths = (
{
closed = 1;
nodes = (
"967 695 OFFCURVE",
"1015 479 OFFCURVE",
"1015 91 CURVE SMOOTH",
"1015 57 OFFCURVE",
"1014 34 OFFCURVE",
"1014 22 CURVE SMOOTH",
"1014 -13 OFFCURVE",
"1041 -24 OFFCURVE",
"1139 -24 CURVE SMOOTH",
"1205 -24 OFFCURVE",
"1202 -25 OFFCURVE",
"1209 -23 CURVE SMOOTH",
"1410 23 OFFCURVE",
"1865 409 OFFCURVE",
"1865 761 CURVE SMOOTH",
"1865 880 OFFCURVE",
"1812 1014 OFFCURVE",
"1682 1014 CURVE SMOOTH",
"1583 1014 OFFCURVE",
"1522 952 OFFCURVE",
"1522 874 CURVE SMOOTH",
"1522 755 OFFCURVE",
"1584 689 OFFCURVE",
"1584 580 CURVE SMOOTH",
"1584 353 OFFCURVE",
"1382 178 OFFCURVE",
"1238 95 CURVE",
"1263 147 OFFCURVE",
"1287 214 OFFCURVE",
"1287 278 CURVE SMOOTH",
"1287 625 OFFCURVE",
"1237 1014 OFFCURVE",
"993 1014 CURVE SMOOTH",
"907 1014 OFFCURVE",
"806 983 OFFCURVE",
"705 862 CURVE SMOOTH",
"699 855 OFFCURVE",
"699 845 OFFCURVE",
"699 837 CURVE SMOOTH",
"699 803 OFFCURVE",
"721 791 OFFCURVE",
"735 791 CURVE SMOOTH",
"746 791 OFFCURVE",
"756 797 OFFCURVE",
"764 805 CURVE SMOOTH",
"789 830 OFFCURVE",
"818 832 OFFCURVE",
"834 832 CURVE SMOOTH",
"856 832 OFFCURVE",
"879 817 OFFCURVE",
"892 799 CURVE SMOOTH"
);
},
{
closed = 1;
nodes = (
"230 720 OFFCURVE",
"357 479 OFFCURVE",
"357 91 CURVE SMOOTH",
"357 57 OFFCURVE",
"356 34 OFFCURVE",
"356 22 CURVE SMOOTH",
"356 -13 OFFCURVE",
"383 -24 OFFCURVE",
"481 -24 CURVE SMOOTH",
"525 -24 OFFCURVE",
"551 -24 OFFCURVE",
"554 -23 CURVE SMOOTH",
"756 31 OFFCURVE",
"1099 315 OFFCURVE",
"1099 761 CURVE",
"945 885 LINE",
"945 766 OFFCURVE",
"944 753 OFFCURVE",
"944 644 CURVE SMOOTH",
"944 417 OFFCURVE",
"743 165 OFFCURVE",
"584 95 CURVE",
"600 159 OFFCURVE",
"623 217 OFFCURVE",
"623 278 CURVE SMOOTH",
"623 568 OFFCURVE",
"563 1014 OFFCURVE",
"320 1014 CURVE SMOOTH",
"198 1014 OFFCURVE",
"88 974 OFFCURVE",
"-4 845 CURVE SMOOTH",
"-10 837 OFFCURVE",
"-10 828 OFFCURVE",
"-10 820 CURVE SMOOTH",
"-10 786 OFFCURVE",
"12 774 OFFCURVE",
"26 774 CURVE SMOOTH",
"37 774 OFFCURVE",
"47 780 OFFCURVE",
"55 788 CURVE SMOOTH",
"81 813 OFFCURVE",
"98 832 OFFCURVE",
"134 832 CURVE SMOOTH",
"157 832 OFFCURVE",
"173 818 OFFCURVE",
"184 799 CURVE SMOOTH"
);
}
);
width = 1913;
}
);
unicode = 0077;
},
{
glyphname = x;
layers = (
{
anchors = (
{
name = btm;
position = "{439, -170}";
},
{
name = top;
position = "{802, 1700}";
}
);
layerId = "BDB4B313-38B1-4B24-B843-560B185382BD";
paths = (
{
closed = 1;
nodes = (
"215 196 LINE",
"170 272 LINE SMOOTH",
"157 294 OFFCURVE",
"134 309 OFFCURVE",
"97 309 CURVE SMOOTH",
"34 309 OFFCURVE",
"-24 241 OFFCURVE",
"-24 160 CURVE SMOOTH",
"-24 66 OFFCURVE",
"49 -30 OFFCURVE",
"164 -30 CURVE SMOOTH",
"218 -30 OFFCURVE",
"259 2 OFFCURVE",
"305 79 CURVE",
"495 345 LINE",
"571 112 LINE SMOOTH",
"604 15 OFFCURVE",
"658 -28 OFFCURVE",
"738 -28 CURVE SMOOTH",
"901 -28 OFFCURVE",
"1012 48 OFFCURVE",
"1100 166 CURVE SMOOTH",
"1115 187 OFFCURVE",
"1109 215 OFFCURVE",
"1098 226 CURVE SMOOTH",
"1076 246 OFFCURVE",
"1057 235 OFFCURVE",
"1040 217 CURVE",
"1010 182 OFFCURVE",
"971 149 OFFCURVE",
"929 149 CURVE SMOOTH",
"892 149 OFFCURVE",
"872 181 OFFCURVE",
"847 241 CURVE SMOOTH",
"732 538 LINE",
"981 777 LINE",
"1045 696 LINE SMOOTH",
"1059 678 OFFCURVE",
"1080 671 OFFCURVE",
"1102 671 CURVE SMOOTH",
"1158 672 OFFCURVE",
"1226 726 OFFCURVE",
"1226 812 CURVE SMOOTH",
"1226 906 OFFCURVE",
"1159 994 OFFCURVE",
"1043 994 CURVE SMOOTH",
"985 994 OFFCURVE",
"926 962 OFFCURVE",
"877 887 CURVE",
"701 632 LINE",
"624 864 LINE SMOOTH",
"592 961 OFFCURVE",
"536 1004 OFFCURVE",
"456 1004 CURVE SMOOTH",
"293 1004 OFFCURVE",
"182 928 OFFCURVE",
"95 810 CURVE SMOOTH",
"79 789 OFFCURVE",
"85 761 OFFCURVE",
"96 750 CURVE SMOOTH",
"118 730 OFFCURVE",
"138 741 OFFCURVE",
"154 759 CURVE SMOOTH",
"185 794 OFFCURVE",
"223 827 OFFCURVE",
"265 827 CURVE SMOOTH",
"302 827 OFFCURVE",
"325 796 OFFCURVE",
"347 735 CURVE SMOOTH",
"457 438 LINE"
);
}
);
width = 1194;
}
);
unicode = 0078;
userData = {
com.typemytype.robofont.guides = (
{
angle = 0;
isGlobal = 0;
magnetic = 5;
x = 0;
y = -67;
}
);
};
},
{
glyphname = y;
layers = (
{
anchors = (
{
name = btm;
position = "{591, -170}";
},
{
name = top;
position = "{864, 1700}";
}
);
layerId = "BDB4B313-38B1-4B24-B843-560B185382BD";
paths = (
{
closed = 1;
nodes = (
"258 -242 OFFCURVE",
"204 -192 OFFCURVE",
"117 -192 CURVE SMOOTH",
"8 -192 OFFCURVE",
"-49 -247 OFFCURVE",
"-49 -320 CURVE SMOOTH",
"-49 -404 OFFCURVE",
"32 -449 OFFCURVE",
"147 -449 CURVE SMOOTH",
"313 -449 OFFCURVE",
"494 -368 OFFCURVE",
"677 -196 CURVE SMOOTH",
"947 59 OFFCURVE",
"1278 460 OFFCURVE",
"1278 761 CURVE SMOOTH",
"1278 880 OFFCURVE",
"1225 1014 OFFCURVE",
"1095 1014 CURVE SMOOTH",
"996 1014 OFFCURVE",
"936 952 OFFCURVE",
"936 874 CURVE SMOOTH",
"936 755 OFFCURVE",
"1007 689 OFFCURVE",
"1007 580 CURVE SMOOTH",
"1007 314 OFFCURVE",
"812 89 OFFCURVE",
"737 12 CURVE",
"758 288 OFFCURVE",
"713 669 OFFCURVE",
"576 903 CURVE SMOOTH",
"528 984 OFFCURVE",
"462 1014 OFFCURVE",
"371 1014 CURVE SMOOTH",
"300 1014 OFFCURVE",
"142 970 OFFCURVE",
"67 845 CURVE",
"63 837 OFFCURVE",
"61 828 OFFCURVE",
"61 820 CURVE SMOOTH",
"61 786 OFFCURVE",
"83 774 OFFCURVE",
"97 774 CURVE SMOOTH",
"108 774 OFFCURVE",
"118 780 OFFCURVE",
"126 788 CURVE SMOOTH",
"141 813 OFFCURVE",
"164 832 OFFCURVE",
"185 832 CURVE SMOOTH",
"205 832 OFFCURVE",
"232 815 OFFCURVE",
"247 801 CURVE SMOOTH",
"326 728 OFFCURVE",
"492 356 OFFCURVE",
"492 42 CURVE SMOOTH",
"492 -26 OFFCURVE",
"512 -64 OFFCURVE",
"650 -64 CURVE",
"554 -167 OFFCURVE",
"524 -206 OFFCURVE",
"365 -227 CURVE SMOOTH"
);
}
);
width = 1370;
}
);
unicode = 0079;
},
{
glyphname = z;
layers = (
{
anchors = (
{
name = btm;
position = "{380, -170}";
},
{
name = top;
position = "{745, 1700}";
}
);
layerId = "BDB4B313-38B1-4B24-B843-560B185382BD";
paths = (
{
closed = 1;
nodes = (
"41 19 OFFCURVE",
"52 0 OFFCURVE",
"80 0 CURVE SMOOTH",
"892 0 LINE",
"912 1 OFFCURVE",
"941 15 OFFCURVE",
"944 41 CURVE",
"1004 339 LINE",
"1007 362 OFFCURVE",
"955 373 OFFCURVE",
"940 373 CURVE SMOOTH",
"919 373 OFFCURVE",
"905 366 OFFCURVE",
"898 340 CURVE SMOOTH",
"886 291 OFFCURVE",
"784 83 OFFCURVE",
"696 83 CURVE SMOOTH",
"430 83 LINE",
"1029 889 LINE SMOOTH",
"1049 916 OFFCURVE",
"1059 929 OFFCURVE",
"1059 961 CURVE SMOOTH",
"1059 980 OFFCURVE",
"1045 994 OFFCURVE",
"1006 994 CURVE SMOOTH",
"214 994 LINE",
"194 993 OFFCURVE",
"165 977 OFFCURVE",
"161 953 CURVE",
"93 655 LINE SMOOTH",
"89 632 OFFCURVE",
"124 621 OFFCURVE",
"139 621 CURVE SMOOTH",
"160 621 OFFCURVE",
"184 628 OFFCURVE",
"190 654 CURVE SMOOTH",
"202 703 OFFCURVE",
"308 911 OFFCURVE",
"396 911 CURVE SMOOTH",
"661 911 LINE",
"85 123 LINE SMOOTH",
"60 88 OFFCURVE",
"41 62 OFFCURVE",
"41 38 CURVE SMOOTH"
);
}
);
width = 1059;
}
);
unicode = 007A;
},
{
glyphname = f_f_i;
layers = (
{
components = (
{
name = f;
}
);
layerId = "BDB4B313-38B1-4B24-B843-560B185382BD";
paths = (
{
closed = 1;
nodes = (
"1517 1442 OFFCURVE",
"1684 1477 OFFCURVE",
"1814 1480 CURVE",
"1947 1228 LINE",
"1947 1226 OFFCURVE",
"1958 1225 OFFCURVE",
"1958 1225 CURVE",
"2080 1225 OFFCURVE",
"2126 1302 OFFCURVE",
"2137 1377 CURVE SMOOTH",
"2150 1471 OFFCURVE",
"2034 1573 OFFCURVE",
"1803 1573 CURVE SMOOTH",
"1441 1573 OFFCURVE",
"1185 1330 OFFCURVE",
"1150 1075 CURVE",
"1002 20 LINE",
"956 -272 OFFCURVE",
"885 -340 OFFCURVE",
"807 -344 CURVE",
"731 -143 LINE",
"728 -141 OFFCURVE",
"724 -140 OFFCURVE",
"719 -140 CURVE SMOOTH",
"663 -139 OFFCURVE",
"554 -213 OFFCURVE",
"553 -292 CURVE SMOOTH",
"552 -360 OFFCURVE",
"584 -442 OFFCURVE",
"768 -442 CURVE SMOOTH",
"1082 -442 OFFCURVE",
"1285 -200 OFFCURVE",
"1321 56 CURVE SMOOTH",
"1470 1107 LINE SMOOTH"
);
},
{
closed = 1;
nodes = (
"2159 957 LINE SMOOTH",
"2163 989 OFFCURVE",
"2146 997 OFFCURVE",
"2135 997 CURVE SMOOTH",
"2053 996 OFFCURVE",
"1875 992 OFFCURVE",
"1686 992 CURVE SMOOTH",
"1683 992 LINE",
"1162 992 LINE",
"1006 975 LINE",
"991 969 OFFCURVE",
"978 954 OFFCURVE",
"974 929 CURVE SMOOTH",
"972 913 OFFCURVE",
"976 886 OFFCURVE",
"992 885 CURVE",
"1668 885 LINE SMOOTH",
"1694 885 OFFCURVE",
"1835 902 OFFCURVE",
"1818 778 CURVE",
"1818 777 LINE",
"1727 142 LINE",
"1727 142 OFFCURVE",
"1723 118 OFFCURVE",
"1723 85 CURVE SMOOTH",
"1723 47 OFFCURVE",
"1739 -13 OFFCURVE",
"1837 -13 CURVE SMOOTH",
"1920 -13 OFFCURVE",
"2029 0 OFFCURVE",
"2183 34 CURVE",
"2205 41 OFFCURVE",
"2210 70 OFFCURVE",
"2207 85 CURVE SMOOTH",
"2202 114 OFFCURVE",
"2191 116 OFFCURVE",
"2169 112 CURVE SMOOTH",
"2150 108 OFFCURVE",
"2125 103 OFFCURVE",
"2102 103 CURVE SMOOTH",
"2067 103 OFFCURVE",
"2037 117 OFFCURVE",
"2049 175 CURVE"
);
}
);
width = 2310;
}
);
unicode = FB03;
},
{
glyphname = f_i;
layers = (
{
layerId = "BDB4B313-38B1-4B24-B843-560B185382BD";
paths = (
{
closed = 1;
nodes = (
"640 1442 OFFCURVE",
"800 1477 OFFCURVE",
"930 1480 CURVE",
"1063 1228 LINE",
"1063 1226 OFFCURVE",
"1085 1225 OFFCURVE",
"1085 1225 CURVE",
"1207 1225 OFFCURVE",
"1253 1302 OFFCURVE",
"1264 1377 CURVE SMOOTH",
"1277 1471 OFFCURVE",
"1161 1573 OFFCURVE",
"930 1573 CURVE SMOOTH",
"568 1573 OFFCURVE",
"314 1330 OFFCURVE",
"279 1075 CURVE SMOOTH",
"136 20 LINE SMOOTH",
"90 -272 OFFCURVE",
"12 -340 OFFCURVE",
"-66 -344 CURVE",
"-143 -143 LINE",
"-158 -141 OFFCURVE",
"-180 -140 OFFCURVE",
"-185 -140 CURVE SMOOTH",
"-279 -140 OFFCURVE",
"-330 -203 OFFCURVE",
"-331 -282 CURVE SMOOTH",
"-332 -350 OFFCURVE",
"-289 -442 OFFCURVE",
"-105 -442 CURVE SMOOTH",
"209 -442 OFFCURVE",
"413 -200 OFFCURVE",
"449 56 CURVE SMOOTH",
"593 1107 LINE SMOOTH"
);
},
{
closed = 1;
nodes = (
"1286 957 LINE SMOOTH",
"1290 989 OFFCURVE",
"1273 997 OFFCURVE",
"1262 997 CURVE SMOOTH",
"1180 996 OFFCURVE",
"1002 994 OFFCURVE",
"813 994 CURVE SMOOTH",
"267 994 LINE",
"133 985 LINE",
"118 979 OFFCURVE",
"105 964 OFFCURVE",
"101 939 CURVE SMOOTH",
"99 923 OFFCURVE",
"105 893 OFFCURVE",
"121 892 CURVE",
"795 891 LINE SMOOTH",
"821 891 OFFCURVE",
"962 902 OFFCURVE",
"945 778 CURVE",
"854 142 LINE SMOOTH",
"854 142 OFFCURVE",
"850 118 OFFCURVE",
"850 85 CURVE SMOOTH",
"850 47 OFFCURVE",
"866 -13 OFFCURVE",
"964 -13 CURVE SMOOTH",
"1047 -13 OFFCURVE",
"1156 0 OFFCURVE",
"1310 34 CURVE",
"1332 41 OFFCURVE",
"1337 70 OFFCURVE",
"1334 85 CURVE SMOOTH",
"1329 114 OFFCURVE",
"1318 116 OFFCURVE",
"1296 112 CURVE SMOOTH",
"1277 108 OFFCURVE",
"1252 103 OFFCURVE",
"1229 103 CURVE SMOOTH",
"1194 103 OFFCURVE",
"1164 117 OFFCURVE",
"1176 175 CURVE SMOOTH"
);
}
);
width = 1437;
}
);
unicode = FB01;
},
{
glyphname = f_l;
layers = (
{
layerId = "BDB4B313-38B1-4B24-B843-560B185382BD";
paths = (
{
closed = 1;
nodes = (
"801 898 OFFCURVE",
"815 935 OFFCURVE",
"818 960 CURVE SMOOTH",
"820 976 OFFCURVE",
"815 993 OFFCURVE",
"799 994 CURVE",
"267 994 LINE",
"132 984 LINE",
"117 978 OFFCURVE",
"102 964 OFFCURVE",
"102 940 CURVE SMOOTH",
"102 921 OFFCURVE",
"104 893 OFFCURVE",
"120 892 CURVE",
"786 892 LINE"
);
},
{
closed = 1;
nodes = (
"1381 1520 OFFCURVE",
"1369 1528 OFFCURVE",
"1353 1528 CURVE SMOOTH",
"1342 1528 OFFCURVE",
"1328 1520 OFFCURVE",
"1314 1514 CURVE SMOOTH",
"1258 1490 OFFCURVE",
"1225 1470 OFFCURVE",
"1209 1480 CURVE",
"1148 1536 OFFCURVE",
"1061 1573 OFFCURVE",
"918 1573 CURVE SMOOTH",
"556 1573 OFFCURVE",
"314 1330 OFFCURVE",
"279 1075 CURVE",
"139 20 LINE",
"93 -272 OFFCURVE",
"12 -340 OFFCURVE",
"-66 -344 CURVE",
"-143 -143 LINE",
"-146 -141 OFFCURVE",
"-166 -140 OFFCURVE",
"-185 -140 CURVE SMOOTH",
"-277 -140 OFFCURVE",
"-330 -200 OFFCURVE",
"-331 -282 CURVE SMOOTH",
"-332 -350 OFFCURVE",
"-289 -442 OFFCURVE",
"-105 -442 CURVE SMOOTH",
"209 -442 OFFCURVE",
"414 -200 OFFCURVE",
"450 56 CURVE SMOOTH",
"590 1107 LINE SMOOTH",
"637 1442 OFFCURVE",
"799 1480 OFFCURVE",
"929 1480 CURVE SMOOTH",
"1013 1480 OFFCURVE",
"1061 1422 OFFCURVE",
"1048 1329 CURVE SMOOTH",
"880 142 LINE SMOOTH",
"880 142 OFFCURVE",
"878 124 OFFCURVE",
"878 102 CURVE SMOOTH",
"878 57 OFFCURVE",
"884 -13 OFFCURVE",
"1000 -13 CURVE SMOOTH",
"1078 -13 OFFCURVE",
"1200 1 OFFCURVE",
"1346 34 CURVE",
"1364 40 OFFCURVE",
"1371 60 OFFCURVE",
"1371 76 CURVE SMOOTH",
"1371 105 OFFCURVE",
"1358 113 OFFCURVE",
"1346 113 CURVE SMOOTH",
"1326 113 OFFCURVE",
"1293 103 OFFCURVE",
"1265 103 CURVE SMOOTH",
"1209 103 OFFCURVE",
"1203 135 OFFCURVE",
"1208 175 CURVE SMOOTH",
"1377 1488 LINE SMOOTH"
);
}
);
width = 1475;
}
);
unicode = FB02;
},
{
glyphname = ordfeminine;
layers = (
{
layerId = "BDB4B313-38B1-4B24-B843-560B185382BD";
paths = (
{
closed = 1;
nodes = (
"351 1470 OFFCURVE",
"86 1233 OFFCURVE",
"81 921 CURVE SMOOTH",
"80 755 OFFCURVE",
"175 614 OFFCURVE",
"344 614 CURVE SMOOTH",
"527 614 OFFCURVE",
"670 749 OFFCURVE",
"756 890 CURVE",
"755 879 OFFCURVE",
"730 731 OFFCURVE",
"730 724 CURVE SMOOTH",
"731 672 OFFCURVE",
"757 616 OFFCURVE",
"832 616 CURVE SMOOTH",
"961 616 OFFCURVE",
"1113 678 OFFCURVE",
"1136 689 CURVE SMOOTH",
"1140 692 OFFCURVE",
"1141 700 OFFCURVE",
"1141 707 CURVE SMOOTH",
"1141 727 OFFCURVE",
"1138 760 OFFCURVE",
"1124 757 CURVE SMOOTH",
"1091 751 OFFCURVE",
"1056 739 OFFCURVE",
"1023 739 CURVE SMOOTH",
"1009 739 OFFCURVE",
"999 751 OFFCURVE",
"998 783 CURVE SMOOTH",
"998 791 OFFCURVE",
"999 803 OFFCURVE",
"1001 817 CURVE SMOOTH",
"1114 1426 LINE",
"1114 1426 OFFCURVE",
"1115 1431 OFFCURVE",
"1115 1433 CURVE SMOOTH",
"1115 1447 OFFCURVE",
"1105 1463 OFFCURVE",
"1087 1456 CURVE",
"910 1409 LINE",
"857 1447 OFFCURVE",
"766 1470 OFFCURVE",
"671 1470 CURVE SMOOTH"
);
},
{
closed = 1;
nodes = (
"368 1178 OFFCURVE",
"463 1386 OFFCURVE",
"663 1386 CURVE SMOOTH",
"728 1386 OFFCURVE",
"800 1368 OFFCURVE",
"834 1323 CURVE",
"778 1044 LINE",
"721 962 OFFCURVE",
"606 778 OFFCURVE",
"464 778 CURVE SMOOTH",
"417 778 OFFCURVE",
"368 818 OFFCURVE",
"368 927 CURVE SMOOTH"
);
}
);
width = 1130;
}
);
unicode = 00AA;
},
{
glyphname = ordmasculine;
layers = (
{
layerId = "BDB4B313-38B1-4B24-B843-560B185382BD";
paths = (
{
closed = 1;
nodes = (
"929 612 OFFCURVE",
"1123 851 OFFCURVE",
"1123 1102 CURVE SMOOTH",
"1123 1310 OFFCURVE",
"968 1470 OFFCURVE",
"673 1470 CURVE SMOOTH",
"317 1470 OFFCURVE",
"112 1244 OFFCURVE",
"112 991 CURVE SMOOTH",
"112 781 OFFCURVE",
"266 612 OFFCURVE",
"562 612 CURVE SMOOTH"
);
},
{
closed = 1;
nodes = (
"456 698 OFFCURVE",
"400 795 OFFCURVE",
"400 952 CURVE SMOOTH",
"400 1114 OFFCURVE",
"444 1383 OFFCURVE",
"655 1383 CURVE SMOOTH",
"773 1383 OFFCURVE",
"832 1293 OFFCURVE",
"832 1139 CURVE SMOOTH",
"832 978 OFFCURVE",
"785 698 OFFCURVE",
"575 698 CURVE SMOOTH"
);
}
);
width = 1130;
}
);
unicode = 00BA;
},
{
glyphname = Deltagreek;
layers = (
{
layerId = "BDB4B313-38B1-4B24-B843-560B185382BD";
paths = (
{
closed = 1;
nodes = (
"1414 0 LINE",
"1434 27 LINE",
"929 1453 LINE",
"817 1453 LINE",
"-81 27 LINE",
"-72 0 LINE"
);
},
{
closed = 1;
nodes = (
"726 1127 LINE",
"1057 119 LINE",
"95 119 LINE"
);
}
);
width = 1524;
}
);
unicode = 0394;
},
{
glyphname = Omegagreek;
layers = (
{
layerId = "BDB4B313-38B1-4B24-B843-560B185382BD";
paths = (
{
closed = 1;
nodes = (
"752 0 LINE",
"753 99 LINE",
"624 194 OFFCURVE",
"524 389 OFFCURVE",
"524 680 CURVE SMOOTH",
"524 1106 OFFCURVE",
"697 1336 OFFCURVE",
"991 1336 CURVE SMOOTH",
"1166 1336 OFFCURVE",
"1325 1227 OFFCURVE",
"1325 989 CURVE SMOOTH",
"1325 576 OFFCURVE",
"1134 225 OFFCURVE",
"913 99 CURVE",
"889 0 LINE",
"1625 0 LINE",
"1719 391 LINE SMOOTH",
"1720 393 OFFCURVE",
"1720 395 OFFCURVE",
"1720 398 CURVE SMOOTH",
"1720 416 OFFCURVE",
"1695 425 OFFCURVE",
"1682 425 CURVE SMOOTH",
"1661 425 OFFCURVE",
"1643 416 OFFCURVE",
"1631 392 CURVE",
"1559 283 OFFCURVE",
"1510 190 OFFCURVE",
"1417 190 CURVE SMOOTH",
"1148 190 LINE",
"1353 318 OFFCURVE",
"1654 625 OFFCURVE",
"1654 964 CURVE SMOOTH",
"1654 1302 OFFCURVE",
"1311 1451 OFFCURVE",
"1004 1451 CURVE SMOOTH",
"519 1451 OFFCURVE",
"201 1161 OFFCURVE",
"201 764 CURVE SMOOTH",
"201 529 OFFCURVE",
"408 267 OFFCURVE",
"515 190 CURVE",
"308 190 LINE SMOOTH",
"215 190 OFFCURVE",
"152 283 OFFCURVE",
"124 392 CURVE",
"120 416 OFFCURVE",
"106 425 OFFCURVE",
"85 425 CURVE SMOOTH",
"70 425 OFFCURVE",
"37 414 OFFCURVE",
"36 391 CURVE",
"38 0 LINE"
);
}
);
width = 1796;
}
);
unicode = 03A9;
},
{
glyphname = pi;
layers = (
{
layerId = "BDB4B313-38B1-4B24-B843-560B185382BD";
paths = (
{
closed = 1;
nodes = (
"-18 172 OFFCURVE",
"-27 -29 OFFCURVE",
"115 -29 CURVE SMOOTH",
"235 -29 OFFCURVE",
"302 -20 OFFCURVE",
"338 -6 CURVE SMOOTH",
"438 32 OFFCURVE",
"520 131 OFFCURVE",
"575 372 CURVE SMOOTH",
"680 833 LINE",
"915 832 LINE",
"797 279 LINE SMOOTH",
"759 100 OFFCURVE",
"781 -29 OFFCURVE",
"953 -29 CURVE SMOOTH",
"1121 -29 OFFCURVE",
"1272 38 OFFCURVE",
"1317 61 CURVE SMOOTH",
"1336 71 OFFCURVE",
"1302 176 OFFCURVE",
"1290 171 CURVE SMOOTH",
"1239 152 OFFCURVE",
"1191 128 OFFCURVE",
"1156 128 CURVE SMOOTH",
"1079 128 OFFCURVE",
"1067 187 OFFCURVE",
"1077 274 CURVE SMOOTH",
"1152 832 LINE",
"1348 832 LINE",
"1392 994 LINE",
"379 994 LINE SMOOTH",
"248 994 OFFCURVE",
"158 962 OFFCURVE",
"88 856 CURVE SMOOTH",
"65 822 OFFCURVE",
"56 776 OFFCURVE",
"56 756 CURVE SMOOTH",
"56 725 OFFCURVE",
"150 731 OFFCURVE",
"156 743 CURVE SMOOTH",
"182 794 OFFCURVE",
"222 834 OFFCURVE",
"312 833 CURVE SMOOTH",
"437 833 LINE",
"372 580 OFFCURVE",
"322 354 OFFCURVE",
"189 172 CURVE",
"44 172 LINE SMOOTH"
);
}
);
width = 1352;
}
);
unicode = 03C0;
},
{
glyphname = zero;
layers = (
{
layerId = "BDB4B313-38B1-4B24-B843-560B185382BD";
paths = (
{
closed = 1;
nodes = (
"125 172 OFFCURVE",
"312 -29 OFFCURVE",
"642 -29 CURVE SMOOTH",
"1078 -29 OFFCURVE",
"1333 297 OFFCURVE",
"1324 707 CURVE SMOOTH",
"1318 1017 OFFCURVE",
"1144 1205 OFFCURVE",
"811 1205 CURVE SMOOTH",
"375 1205 OFFCURVE",
"125 891 OFFCURVE",
"125 507 CURVE SMOOTH"
);
},
{
closed = 1;
nodes = (
"526 66 OFFCURVE",
"470 173 OFFCURVE",
"466 399 CURVE SMOOTH",
"458 756 OFFCURVE",
"547 1110 OFFCURVE",
"790 1110 CURVE SMOOTH",
"922 1110 OFFCURVE",
"976 1004 OFFCURVE",
"981 785 CURVE SMOOTH",
"989 438 OFFCURVE",
"910 66 OFFCURVE",
"659 66 CURVE SMOOTH"
);
}
);
width = 1436;
}
);
unicode = 0030;
},
{
glyphname = one;
layers = (
{
layerId = "BDB4B313-38B1-4B24-B843-560B185382BD";
paths = (
{
closed = 1;
nodes = (
"66 26 OFFCURVE",
"74 0 OFFCURVE",
"97 0 CURVE SMOOTH",
"807 0 LINE SMOOTH",
"830 0 OFFCURVE",
"846 16 OFFCURVE",
"846 41 CURVE SMOOTH",
"846 64 OFFCURVE",
"843 75 OFFCURVE",
"815 78 CURVE SMOOTH",
"755 83 OFFCURVE",
"635 89 OFFCURVE",
"647 175 CURVE SMOOTH",
"761 1189 LINE",
"556 1189 LINE",
"453 1116 OFFCURVE",
"254 1067 OFFCURVE",
"192 1062 CURVE SMOOTH",
"164 1059 OFFCURVE",
"152 1035 OFFCURVE",
"148 1005 CURVE SMOOTH",
"146 990 OFFCURVE",
"155 974 OFFCURVE",
"178 974 CURVE SMOOTH",
"223 974 OFFCURVE",
"343 985 OFFCURVE",
"401 994 CURVE",
"310 152 LINE SMOOTH",
"305 108 OFFCURVE",
"171 83 OFFCURVE",
"106 78 CURVE",
"80 75 OFFCURVE",
"71 62 OFFCURVE",
"68 41 CURVE SMOOTH"
);
}
);
width = 1004;
}
);
unicode = 0031;
},
{
glyphname = two;
layers = (
{
layerId = "BDB4B313-38B1-4B24-B843-560B185382BD";
paths = (
{
closed = 1;
nodes = (
"1116 0 LINE",
"1154 249 LINE",
"484 249 LINE",
"833 414 OFFCURVE",
"1148 625 OFFCURVE",
"1148 883 CURVE SMOOTH",
"1148 1066 OFFCURVE",
"1022 1205 OFFCURVE",
"663 1205 CURVE SMOOTH",
"408 1205 OFFCURVE",
"136 1056 OFFCURVE",
"136 874 CURVE SMOOTH",
"135 764 OFFCURVE",
"231 710 OFFCURVE",
"300 710 CURVE SMOOTH",
"340 710 OFFCURVE",
"381 735 OFFCURVE",
"394 776 CURVE SMOOTH",
"479 1043 LINE",
"500 1065 OFFCURVE",
"525 1103 OFFCURVE",
"624 1103 CURVE SMOOTH",
"754 1103 OFFCURVE",
"797 981 OFFCURVE",
"795 900 CURVE SMOOTH",
"788 572 OFFCURVE",
"397 300 OFFCURVE",
"55 75 CURVE",
"44 0 LINE"
);
}
);
width = 1282;
}
);
unicode = 0032;
},
{
glyphname = three;
layers = (
{
layerId = "BDB4B313-38B1-4B24-B843-560B185382BD";
paths = (
{
closed = 1;
nodes = (
"541 1103 OFFCURVE",
"597 1107 OFFCURVE",
"643 1107 CURVE SMOOTH",
"800 1107 OFFCURVE",
"839 1014 OFFCURVE",
"840 926 CURVE SMOOTH",
"845 680 OFFCURVE",
"696 497 OFFCURVE",
"500 497 CURVE SMOOTH",
"437 497 LINE",
"417 383 LINE",
"480 383 LINE SMOOTH",
"599 383 OFFCURVE",
"778 277 OFFCURVE",
"778 28 CURVE SMOOTH",
"778 -243 OFFCURVE",
"585 -356 OFFCURVE",
"444 -356 CURVE SMOOTH",
"324 -356 OFFCURVE",
"226 -322 OFFCURVE",
"194 -245 CURVE",
"272 81 LINE",
"271 126 OFFCURVE",
"223 161 OFFCURVE",
"168 161 CURVE SMOOTH",
"71 161 OFFCURVE",
"-41 73 OFFCURVE",
"-38 -99 CURVE SMOOTH",
"-32 -370 OFFCURVE",
"276 -451 OFFCURVE",
"482 -451 CURVE SMOOTH",
"808 -451 OFFCURVE",
"1125 -283 OFFCURVE",
"1118 67 CURVE SMOOTH",
"1114 274 OFFCURVE",
"915 446 OFFCURVE",
"659 448 CURVE",
"923 467 OFFCURVE",
"1186 634 OFFCURVE",
"1182 868 CURVE SMOOTH",
"1177 1067 OFFCURVE",
"1022 1205 OFFCURVE",
"683 1205 CURVE SMOOTH",
"434 1205 OFFCURVE",
"250 1097 OFFCURVE",
"184 977 CURVE SMOOTH",
"165 938 OFFCURVE",
"158 898 OFFCURVE",
"158 874 CURVE SMOOTH",
"157 764 OFFCURVE",
"253 710 OFFCURVE",
"322 710 CURVE SMOOTH",
"362 710 OFFCURVE",
"403 735 OFFCURVE",
"416 776 CURVE SMOOTH",
"516 1086 LINE"
);
}
);
width = 1280;
}
);
unicode = 0033;
},
{
glyphname = four;
layers = (
{
layerId = "BDB4B313-38B1-4B24-B843-560B185382BD";
paths = (
{
closed = 1;
nodes = (
"703 0 LINE",
"661 -384 LINE",
"964 -384 LINE",
"1006 0 LINE",
"1216 0 LINE",
"1234 164 LINE",
"1019 164 LINE",
"1067 576 LINE",
"817 576 LINE",
"760 536 LINE",
"716 164 LINE",
"262 164 LINE",
"1008 1125 LINE SMOOTH",
"1013 1132 OFFCURVE",
"1016 1144 OFFCURVE",
"1016 1155 CURVE SMOOTH",
"1016 1204 OFFCURVE",
"922 1258 OFFCURVE",
"825 1258 CURVE SMOOTH",
"773 1258 OFFCURVE",
"713 1237 OFFCURVE",
"701 1217 CURVE SMOOTH",
"27 87 LINE",
"61 0 LINE"
);
}
);
width = 1329;
}
);
unicode = 0034;
},
{
glyphname = five;
layers = (
{
layerId = "BDB4B313-38B1-4B24-B843-560B185382BD";
paths = (
{
closed = 1;
nodes = (
"50 55 OFFCURVE",
"-38 4 OFFCURVE",
"-38 -108 CURVE SMOOTH",
"-38 -284 OFFCURVE",
"155 -451 OFFCURVE",
"403 -451 CURVE SMOOTH",
"804 -451 OFFCURVE",
"1081 -145 OFFCURVE",
"1081 178 CURVE SMOOTH",
"1081 422 OFFCURVE",
"948 607 OFFCURVE",
"637 607 CURVE SMOOTH",
"520 607 OFFCURVE",
"396 573 OFFCURVE",
"314 523 CURVE",
"425 910 LINE",
"1077 910 LINE",
"1113 1189 LINE",
"355 1189 LINE",
"158 391 LINE",
"219 358 LINE",
"300 455 OFFCURVE",
"443 494 OFFCURVE",
"547 494 CURVE SMOOTH",
"666 494 OFFCURVE",
"749 365 OFFCURVE",
"749 160 CURVE SMOOTH",
"749 -69 OFFCURVE",
"670 -365 OFFCURVE",
"385 -357 CURVE SMOOTH",
"314 -355 OFFCURVE",
"287 -330 OFFCURVE",
"287 -330 CURVE",
"278 -297 OFFCURVE",
"224 -68 OFFCURVE",
"213 -20 CURVE SMOOTH",
"202 27 OFFCURVE",
"161 55 OFFCURVE",
"109 55 CURVE SMOOTH"
);
}
);
width = 1227;
}
);
unicode = 0035;
},
{
glyphname = six;
layers = (
{
layerId = "BDB4B313-38B1-4B24-B843-560B185382BD";
paths = (
{
closed = 1;
nodes = (
"77 219 OFFCURVE",
"234 -29 OFFCURVE",
"589 -29 CURVE SMOOTH",
"987 -29 OFFCURVE",
"1246 249 OFFCURVE",
"1246 602 CURVE SMOOTH",
"1246 794 OFFCURVE",
"1121 964 OFFCURVE",
"828 964 CURVE SMOOTH",
"702 964 OFFCURVE",
"551 893 OFFCURVE",
"487 830 CURVE",
"557 1086 OFFCURVE",
"719 1359 OFFCURVE",
"1035 1456 CURVE",
"1052 1548 LINE",
"439 1432 OFFCURVE",
"77 971 OFFCURVE",
"77 479 CURVE SMOOTH"
);
},
{
closed = 1;
nodes = (
"510 774 OFFCURVE",
"623 836 OFFCURVE",
"739 836 CURVE SMOOTH",
"867 836 OFFCURVE",
"922 731 OFFCURVE",
"922 598 CURVE SMOOTH",
"922 327 OFFCURVE",
"802 66 OFFCURVE",
"594 66 CURVE SMOOTH",
"432 66 OFFCURVE",
"384 171 OFFCURVE",
"384 317 CURVE SMOOTH",
"384 444 OFFCURVE",
"408 584 OFFCURVE",
"444 701 CURVE SMOOTH"
);
}
);
width = 1327;
}
);
unicode = 0036;
},
{
glyphname = seven;
layers = (
{
layerId = "BDB4B313-38B1-4B24-B843-560B185382BD";
paths = (
{
closed = 1;
nodes = (
"491 -383 LINE",
"1159 1122 LINE",
"1120 1189 LINE",
"203 1190 LINE",
"110 786 LINE",
"105 763 OFFCURVE",
"129 752 OFFCURVE",
"144 752 CURVE SMOOTH",
"173 752 OFFCURVE",
"205 759 OFFCURVE",
"218 785 CURVE SMOOTH",
"225 803 OFFCURVE",
"286 905 OFFCURVE",
"368 905 CURVE",
"905 905 LINE",
"253 -382 LINE"
);
}
);
width = 1159;
}
);
unicode = 0037;
},
{
glyphname = eight;
layers = (
{
layerId = "BDB4B313-38B1-4B24-B843-560B185382BD";
paths = (
{
closed = 1;
nodes = (
"122 118 OFFCURVE",
"325 -29 OFFCURVE",
"638 -29 CURVE SMOOTH",
"1064 -29 OFFCURVE",
"1264 179 OFFCURVE",
"1250 422 CURVE SMOOTH",
"1241 572 OFFCURVE",
"1118 676 OFFCURVE",
"991 755 CURVE",
"1150 826 OFFCURVE",
"1313 961 OFFCURVE",
"1302 1153 CURVE SMOOTH",
"1290 1341 OFFCURVE",
"1106 1451 OFFCURVE",
"840 1451 CURVE SMOOTH",
"525 1451 OFFCURVE",
"267 1297 OFFCURVE",
"282 1055 CURVE SMOOTH",
"290 922 OFFCURVE",
"353 843 OFFCURVE",
"440 761 CURVE",
"230 686 OFFCURVE",
"99 509 OFFCURVE",
"110 311 CURVE SMOOTH"
);
},
{
closed = 1;
nodes = (
"710 905 OFFCURVE",
"586 1029 OFFCURVE",
"581 1109 CURVE SMOOTH",
"572 1270 OFFCURVE",
"652 1354 OFFCURVE",
"804 1354 CURVE SMOOTH",
"959 1354 OFFCURVE",
"1029 1267 OFFCURVE",
"1036 1155 CURVE SMOOTH",
"1044 1021 OFFCURVE",
"1003 868 OFFCURVE",
"912 803 CURVE",
"865 830 LINE SMOOTH"
);
},
{
closed = 1;
nodes = (
"560 682 OFFCURVE",
"598 661 OFFCURVE",
"637 641 CURVE SMOOTH",
"762 578 OFFCURVE",
"940 450 OFFCURVE",
"948 323 CURVE SMOOTH",
"959 149 OFFCURVE",
"823 66 OFFCURVE",
"693 66 CURVE SMOOTH",
"479 66 OFFCURVE",
"414 205 OFFCURVE",
"409 322 CURVE SMOOTH",
"400 500 OFFCURVE",
"449 644 OFFCURVE",
"523 705 CURVE SMOOTH"
);
}
);
width = 1384;
}
);
unicode = 0038;
},
{
glyphname = nine;
layers = (
{
layerId = "BDB4B313-38B1-4B24-B843-560B185382BD";
paths = (
{
closed = 1;
nodes = (
"1262 957 OFFCURVE",
"1098 1205 OFFCURVE",
"736 1205 CURVE SMOOTH",
"368 1205 OFFCURVE",
"86 947 OFFCURVE",
"86 594 CURVE SMOOTH",
"86 402 OFFCURVE",
"204 212 OFFCURVE",
"497 212 CURVE SMOOTH",
"663 212 OFFCURVE",
"779 283 OFFCURVE",
"843 346 CURVE",
"773 90 OFFCURVE",
"606 -183 OFFCURVE",
"290 -280 CURVE",
"273 -372 LINE",
"892 -256 OFFCURVE",
"1262 205 OFFCURVE",
"1262 697 CURVE SMOOTH"
);
},
{
closed = 1;
nodes = (
"820 402 OFFCURVE",
"702 340 OFFCURVE",
"586 340 CURVE SMOOTH",
"458 340 OFFCURVE",
"403 445 OFFCURVE",
"403 578 CURVE SMOOTH",
"403 849 OFFCURVE",
"523 1110 OFFCURVE",
"731 1110 CURVE SMOOTH",
"893 1110 OFFCURVE",
"941 1005 OFFCURVE",
"941 859 CURVE SMOOTH",
"941 732 OFFCURVE",
"922 592 OFFCURVE",
"886 475 CURVE"
);
}
);
width = 1327;
}
);
unicode = 0039;
},
{
glyphname = one.superior;
layers = (
{
layerId = "BDB4B313-38B1-4B24-B843-560B185382BD";
paths = (
{
closed = 1;
nodes = (
"867 492 LINE SMOOTH",
"890 492 OFFCURVE",
"903 508 OFFCURVE",
"905 523 CURVE SMOOTH",
"909 553 OFFCURVE",
"902 557 OFFCURVE",
"874 560 CURVE SMOOTH",
"814 565 OFFCURVE",
"724 571 OFFCURVE",
"736 657 CURVE SMOOTH",
"843 1448 LINE",
"654 1448 LINE",
"552 1375 OFFCURVE",
"436 1336 OFFCURVE",
"375 1331 CURVE SMOOTH",
"346 1328 OFFCURVE",
"336 1314 OFFCURVE",
"332 1284 CURVE SMOOTH",
"330 1269 OFFCURVE",
"339 1253 OFFCURVE",
"362 1253 CURVE SMOOTH",
"407 1253 OFFCURVE",
"472 1254 OFFCURVE",
"530 1263 CURVE",
"444 624 LINE SMOOTH",
"438 580 OFFCURVE",
"365 565 OFFCURVE",
"300 560 CURVE",
"274 557 OFFCURVE",
"265 544 OFFCURVE",
"262 523 CURVE SMOOTH",
"260 508 OFFCURVE",
"269 492 OFFCURVE",
"292 492 CURVE SMOOTH"
);
}
);
width = 1130;
}
);
unicode = 00B9;
},
{
glyphname = two.superior;
layers = (
{
layerId = "BDB4B313-38B1-4B24-B843-560B185382BD";
paths = (
{
closed = 1;
nodes = (
"702 1382 OFFCURVE",
"721 1293 OFFCURVE",
"721 1220 CURVE SMOOTH",
"721 931 OFFCURVE",
"419 763 OFFCURVE",
"124 580 CURVE",
"111 490 LINE",
"962 490 LINE",
"1002 714 LINE",
"439 714 LINE",
"370 653 LINE",
"646 819 OFFCURVE",
"1047 955 OFFCURVE",
"1047 1213 CURVE SMOOTH",
"1047 1372 OFFCURVE",
"898 1459 OFFCURVE",
"662 1459 CURVE SMOOTH",
"393 1459 OFFCURVE",
"184 1332 OFFCURVE",
"184 1156 CURVE SMOOTH",
"184 1080 OFFCURVE",
"246 1030 OFFCURVE",
"300 1030 CURVE SMOOTH",
"356 1030 OFFCURVE",
"383 1071 OFFCURVE",
"402 1104 CURVE",
"496 1316 LINE",
"519 1350 OFFCURVE",
"540 1382 OFFCURVE",
"629 1382 CURVE SMOOTH"
);
}
);
width = 1130;
}
);
unicode = 00B2;
},
{
glyphname = three.superior;
layers = (
{
layerId = "BDB4B313-38B1-4B24-B843-560B185382BD";
paths = (
{
closed = 1;
nodes = (
"402 489 OFFCURVE",
"336 524 OFFCURVE",
"313 573 CURVE",
"368 788 LINE",
"368 817 OFFCURVE",
"294 849 OFFCURVE",
"239 849 CURVE SMOOTH",
"151 849 OFFCURVE",
"80 792 OFFCURVE",
"80 681 CURVE SMOOTH",
"80 507 OFFCURVE",
"279 406 OFFCURVE",
"472 406 CURVE SMOOTH",
"817 406 OFFCURVE",
"1009 529 OFFCURVE",
"1009 737 CURVE SMOOTH",
"1009 865 OFFCURVE",
"846 955 OFFCURVE",
"720 957 CURVE",
"870 978 OFFCURVE",
"1014 1086 OFFCURVE",
"1014 1237 CURVE SMOOTH",
"1014 1371 OFFCURVE",
"880 1457 OFFCURVE",
"629 1457 CURVE SMOOTH",
"383 1457 OFFCURVE",
"205 1379 OFFCURVE",
"205 1252 CURVE SMOOTH",
"205 1152 OFFCURVE",
"265 1118 OFFCURVE",
"323 1118 CURVE SMOOTH",
"340 1118 OFFCURVE",
"427 1111 OFFCURVE",
"444 1164 CURVE",
"508 1351 LINE",
"529 1360 OFFCURVE",
"561 1373 OFFCURVE",
"600 1373 CURVE SMOOTH",
"676 1373 OFFCURVE",
"717 1317 OFFCURVE",
"717 1233 CURVE SMOOTH",
"717 1073 OFFCURVE",
"626 989 OFFCURVE",
"520 989 CURVE SMOOTH",
"442 989 LINE",
"432 914 LINE",
"491 914 LINE SMOOTH",
"549 914 OFFCURVE",
"679 906 OFFCURVE",
"679 758 CURVE SMOOTH",
"679 616 OFFCURVE",
"591 489 OFFCURVE",
"474 489 CURVE SMOOTH"
);
}
);
width = 1130;
}
);
unicode = 00B3;
},
{
glyphname = fraction;
layers = (
{
layerId = "BDB4B313-38B1-4B24-B843-560B185382BD";
paths = (
{
closed = 1;
nodes = (
"673 1419 LINE",
"526 1419 LINE",
"-370 0 LINE",
"-225 0 LINE"
);
}
);
width = 195;
}
);
unicode = 2044;
},
{
glyphname = onehalf;
layers = (
{
components = (
{
name = fraction;
transform = "{1, 0, 0, 1, 961, 0}";
}
);
layerId = "BDB4B313-38B1-4B24-B843-560B185382BD";
paths = (
{
closed = 1;
nodes = (
"745 492 LINE SMOOTH",
"768 492 OFFCURVE",
"781 508 OFFCURVE",
"783 523 CURVE SMOOTH",
"787 553 OFFCURVE",
"780 557 OFFCURVE",
"752 560 CURVE SMOOTH",
"692 565 OFFCURVE",
"602 571 OFFCURVE",
"614 657 CURVE SMOOTH",
"721 1448 LINE",
"532 1448 LINE",
"430 1375 OFFCURVE",
"314 1336 OFFCURVE",
"253 1331 CURVE SMOOTH",
"224 1328 OFFCURVE",
"214 1314 OFFCURVE",
"210 1284 CURVE SMOOTH",
"208 1269 OFFCURVE",
"217 1253 OFFCURVE",
"240 1253 CURVE SMOOTH",
"285 1253 OFFCURVE",
"350 1254 OFFCURVE",
"408 1263 CURVE",
"322 624 LINE SMOOTH",
"316 580 OFFCURVE",
"243 565 OFFCURVE",
"178 560 CURVE",
"152 557 OFFCURVE",
"143 544 OFFCURVE",
"140 523 CURVE SMOOTH",
"138 508 OFFCURVE",
"147 492 OFFCURVE",
"170 492 CURVE SMOOTH"
);
},
{
closed = 1;
nodes = (
"1821 889 OFFCURVE",
"1840 800 OFFCURVE",
"1840 727 CURVE SMOOTH",
"1840 438 OFFCURVE",
"1538 270 OFFCURVE",
"1243 87 CURVE",
"1230 -3 LINE",
"2081 -3 LINE",
"2121 221 LINE",
"1558 221 LINE",
"1489 160 LINE",
"1765 326 OFFCURVE",
"2166 462 OFFCURVE",
"2166 720 CURVE SMOOTH",
"2166 879 OFFCURVE",
"2017 966 OFFCURVE",
"1781 966 CURVE SMOOTH",
"1512 966 OFFCURVE",
"1303 839 OFFCURVE",
"1303 663 CURVE SMOOTH",
"1303 587 OFFCURVE",
"1365 537 OFFCURVE",
"1419 537 CURVE SMOOTH",
"1475 537 OFFCURVE",
"1502 578 OFFCURVE",
"1521 611 CURVE",
"1615 823 LINE",
"1638 857 OFFCURVE",
"1659 889 OFFCURVE",
"1748 889 CURVE SMOOTH"
);
}
);
width = 2193;
}
);
unicode = 00BD;
},
{
glyphname = onequarter;
layers = (
{
components = (
{
name = fraction;
transform = "{1, 0, 0, 1, 961, 0}";
}
);
layerId = "BDB4B313-38B1-4B24-B843-560B185382BD";
paths = (
{
closed = 1;
nodes = (
"1054 0 LINE",
"1616 0 LINE",
"1580 -251 LINE",
"1827 -251 LINE",
"1863 0 LINE",
"2057 0 LINE",
"2073 111 LINE",
"1878 111 LINE",
"1916 386 LINE",
"1669 386 LINE",
"1631 111 LINE",
"1280 111 LINE",
"1762 761 LINE",
"1822 828 OFFCURVE",
"1778 931 OFFCURVE",
"1655 931 CURVE SMOOTH",
"1608 931 OFFCURVE",
"1531 918 OFFCURVE",
"1490 850 CURVE",
"1033 61 LINE"
);
},
{
closed = 1;
nodes = (
"745 492 LINE SMOOTH",
"768 492 OFFCURVE",
"781 508 OFFCURVE",
"783 523 CURVE SMOOTH",
"787 553 OFFCURVE",
"780 557 OFFCURVE",
"752 560 CURVE SMOOTH",
"692 565 OFFCURVE",
"602 571 OFFCURVE",
"614 657 CURVE SMOOTH",
"721 1448 LINE",
"532 1448 LINE",
"430 1375 OFFCURVE",
"314 1336 OFFCURVE",
"253 1331 CURVE SMOOTH",
"224 1328 OFFCURVE",
"214 1314 OFFCURVE",
"210 1284 CURVE SMOOTH",
"208 1269 OFFCURVE",
"217 1253 OFFCURVE",
"240 1253 CURVE SMOOTH",
"285 1253 OFFCURVE",
"350 1254 OFFCURVE",
"408 1263 CURVE",
"322 624 LINE SMOOTH",
"316 580 OFFCURVE",
"243 565 OFFCURVE",
"178 560 CURVE",
"152 557 OFFCURVE",
"143 544 OFFCURVE",
"140 523 CURVE SMOOTH",
"138 508 OFFCURVE",
"147 492 OFFCURVE",
"170 492 CURVE SMOOTH"
);
}
);
width = 2193;
}
);
unicode = 00BC;
},
{
glyphname = threequarters;
layers = (
{
components = (
{
name = fraction;
transform = "{1, 0, 0, 1, 961, 0}";
}
);
layerId = "BDB4B313-38B1-4B24-B843-560B185382BD";
paths = (
{
closed = 1;
nodes = (
"1054 0 LINE",
"1616 0 LINE",
"1580 -251 LINE",
"1827 -251 LINE",
"1863 0 LINE",
"2057 0 LINE",
"2073 111 LINE",
"1878 111 LINE",
"1916 386 LINE",
"1669 386 LINE",
"1631 111 LINE",
"1280 111 LINE",
"1762 761 LINE",
"1822 828 OFFCURVE",
"1778 931 OFFCURVE",
"1655 931 CURVE SMOOTH",
"1608 931 OFFCURVE",
"1531 918 OFFCURVE",
"1490 850 CURVE",
"1033 61 LINE"
);
},
{
closed = 1;
nodes = (
"263 489 OFFCURVE",
"197 524 OFFCURVE",
"174 573 CURVE",
"229 788 LINE",
"229 817 OFFCURVE",
"155 849 OFFCURVE",
"100 849 CURVE SMOOTH",
"12 849 OFFCURVE",
"-59 792 OFFCURVE",
"-59 681 CURVE SMOOTH",
"-59 507 OFFCURVE",
"140 406 OFFCURVE",
"333 406 CURVE SMOOTH",
"678 406 OFFCURVE",
"870 529 OFFCURVE",
"870 737 CURVE SMOOTH",
"870 865 OFFCURVE",
"707 955 OFFCURVE",
"581 957 CURVE",
"731 978 OFFCURVE",
"875 1086 OFFCURVE",
"875 1237 CURVE SMOOTH",
"875 1371 OFFCURVE",
"741 1457 OFFCURVE",
"490 1457 CURVE SMOOTH",
"244 1457 OFFCURVE",
"66 1379 OFFCURVE",
"66 1252 CURVE SMOOTH",
"66 1152 OFFCURVE",
"126 1118 OFFCURVE",
"184 1118 CURVE SMOOTH",
"201 1118 OFFCURVE",
"288 1111 OFFCURVE",
"305 1164 CURVE",
"369 1351 LINE",
"390 1360 OFFCURVE",
"422 1373 OFFCURVE",
"461 1373 CURVE SMOOTH",
"537 1373 OFFCURVE",
"578 1317 OFFCURVE",
"578 1233 CURVE SMOOTH",
"578 1073 OFFCURVE",
"487 989 OFFCURVE",
"381 989 CURVE SMOOTH",
"303 989 LINE",
"293 914 LINE",
"352 914 LINE SMOOTH",
"410 914 OFFCURVE",
"540 906 OFFCURVE",
"540 758 CURVE SMOOTH",
"540 616 OFFCURVE",
"452 489 OFFCURVE",
"335 489 CURVE SMOOTH"
);
}
);
width = 2193;
}
);
unicode = 00BE;
},
{
glyphname = period;
layers = (
{
layerId = "BDB4B313-38B1-4B24-B843-560B185382BD";
paths = (
{
closed = 1;
nodes = (
"116 63 OFFCURVE",
"177 -20 OFFCURVE",
"285 -20 CURVE SMOOTH",
"394 -20 OFFCURVE",
"482 77 OFFCURVE",
"482 188 CURVE SMOOTH",
"482 287 OFFCURVE",
"419 364 OFFCURVE",
"311 364 CURVE SMOOTH",
"194 364 OFFCURVE",
"116 266 OFFCURVE",
"116 163 CURVE SMOOTH"
);
}
);
width = 672;
}
);
unicode = 002E;
},
{
glyphname = comma;
layers = (
{
layerId = "BDB4B313-38B1-4B24-B843-560B185382BD";
paths = (
{
closed = 1;
nodes = (
"83 28 OFFCURVE",
"182 8 OFFCURVE",
"184 -7 CURVE SMOOTH",
"184 -10 OFFCURVE",
"184 -13 OFFCURVE",
"184 -17 CURVE SMOOTH",
"184 -67 OFFCURVE",
"167 -190 OFFCURVE",
"88 -271 CURVE SMOOTH",
"68 -292 OFFCURVE",
"58 -307 OFFCURVE",
"58 -320 CURVE SMOOTH",
"58 -339 OFFCURVE",
"82 -360 OFFCURVE",
"132 -360 CURVE SMOOTH",
"141 -360 OFFCURVE",
"151 -356 OFFCURVE",
"160 -352 CURVE SMOOTH",
"231 -320 OFFCURVE",
"459 -56 OFFCURVE",
"459 139 CURVE SMOOTH",
"459 269 OFFCURVE",
"398 356 OFFCURVE",
"289 356 CURVE SMOOTH",
"181 356 OFFCURVE",
"83 289 OFFCURVE",
"83 162 CURVE SMOOTH"
);
}
);
width = 672;
}
);
unicode = 002C;
},
{
glyphname = exclam;
layers = (
{
layerId = "BDB4B313-38B1-4B24-B843-560B185382BD";
paths = (
{
closed = 1;
nodes = (
"400 472 LINE",
"545 1029 OFFCURVE",
"666 1266 OFFCURVE",
"666 1389 CURVE SMOOTH",
"666 1469 OFFCURVE",
"602 1528 OFFCURVE",
"494 1528 CURVE SMOOTH",
"395 1528 OFFCURVE",
"322 1466 OFFCURVE",
"304 1389 CURVE SMOOTH",
"275 1266 OFFCURVE",
"315 1029 OFFCURVE",
"300 472 CURVE"
);
},
{
closed = 1;
nodes = (
"121 63 OFFCURVE",
"182 -20 OFFCURVE",
"290 -20 CURVE SMOOTH",
"399 -20 OFFCURVE",
"487 77 OFFCURVE",
"487 188 CURVE SMOOTH",
"487 287 OFFCURVE",
"424 364 OFFCURVE",
"316 364 CURVE SMOOTH",
"199 364 OFFCURVE",
"121 256 OFFCURVE",
"121 163 CURVE SMOOTH"
);
}
);
width = 770;
}
);
unicode = 0021;
},
{
glyphname = question;
layers = (
{
layerId = "BDB4B313-38B1-4B24-B843-560B185382BD";
paths = (
{
closed = 1;
nodes = (
"277 63 OFFCURVE",
"338 -20 OFFCURVE",
"446 -20 CURVE SMOOTH",
"555 -20 OFFCURVE",
"643 77 OFFCURVE",
"643 188 CURVE SMOOTH",
"643 287 OFFCURVE",
"580 364 OFFCURVE",
"472 364 CURVE SMOOTH",
"355 364 OFFCURVE",
"277 256 OFFCURVE",
"277 163 CURVE SMOOTH"
);
},
{
closed = 1;
nodes = (
"590 483 LINE",
"602 554 LINE SMOOTH",
"646 814 OFFCURVE",
"1111 792 OFFCURVE",
"1111 1219 CURVE SMOOTH",
"1111 1368 OFFCURVE",
"998 1528 OFFCURVE",
"630 1528 CURVE SMOOTH",
"390 1528 OFFCURVE",
"95 1394 OFFCURVE",
"95 1157 CURVE SMOOTH",
"95 1056 OFFCURVE",
"148 1006 OFFCURVE",
"253 1006 CURVE SMOOTH",
"311 1006 OFFCURVE",
"370 1040 OFFCURVE",
"378 1075 CURVE SMOOTH",
"447 1378 LINE",
"447 1378 OFFCURVE",
"498 1443 OFFCURVE",
"620 1443 CURVE SMOOTH",
"769 1443 OFFCURVE",
"804 1350 OFFCURVE",
"804 1259 CURVE SMOOTH",
"804 811 OFFCURVE",
"474 942 OFFCURVE",
"416 537 CURVE SMOOTH",
"408 483 LINE"
);
}
);
width = 1122;
}
);
unicode = 003F;
},
{
glyphname = bullet;
layers = (
{
layerId = "BDB4B313-38B1-4B24-B843-560B185382BD";
paths = (
{
closed = 1;
nodes = (
"605 292 OFFCURVE",
"718 425 OFFCURVE",
"718 584 CURVE SMOOTH",
"718 721 OFFCURVE",
"615 822 OFFCURVE",
"491 822 CURVE SMOOTH",
"312 822 OFFCURVE",
"199 688 OFFCURVE",
"199 529 CURVE SMOOTH",
"199 393 OFFCURVE",
"302 292 OFFCURVE",
"426 292 CURVE SMOOTH"
);
}
);
width = 895;
}
);
unicode = 2022;
},
{
glyphname = asterisk;
layers = (
{
layerId = "BDB4B313-38B1-4B24-B843-560B185382BD";
paths = (
{
closed = 1;
nodes = (
"270 815 OFFCURVE",
"205 764 OFFCURVE",
"191 748 CURVE SMOOTH",
"169 723 OFFCURVE",
"153 691 OFFCURVE",
"149 662 CURVE SMOOTH",
"139 597 OFFCURVE",
"197 548 OFFCURVE",
"256 548 CURVE SMOOTH",
"296 548 OFFCURVE",
"340 572 OFFCURVE",
"374 612 CURVE SMOOTH",
"401 645 OFFCURVE",
"498 876 OFFCURVE",
"535 941 CURVE",
"554 879 OFFCURVE",
"610 643 OFFCURVE",
"628 612 CURVE SMOOTH",
"649 574 OFFCURVE",
"698 549 OFFCURVE",
"739 549 CURVE SMOOTH",
"802 549 OFFCURVE",
"848 603 OFFCURVE",
"857 662 CURVE SMOOTH",
"873 776 OFFCURVE",
"681 905 OFFCURVE",
"609 989 CURVE",
"678 999 OFFCURVE",
"872 991 OFFCURVE",
"926 1006 CURVE SMOOTH",
"986 1023 OFFCURVE",
"1033 1074 OFFCURVE",
"1041 1128 CURVE SMOOTH",
"1052 1207 OFFCURVE",
"999 1238 OFFCURVE",
"941 1238 CURVE SMOOTH",
"896 1238 OFFCURVE",
"850 1222 OFFCURVE",
"743 1160 CURVE SMOOTH",
"686 1127 OFFCURVE",
"631 1085 OFFCURVE",
"595 1067 CURVE",
"607 1126 OFFCURVE",
"717 1323 OFFCURVE",
"717 1403 CURVE SMOOTH",
"717 1452 OFFCURVE",
"705 1521 OFFCURVE",
"614 1521 CURVE SMOOTH",
"536 1521 OFFCURVE",
"477 1469 OFFCURVE",
"477 1385 CURVE SMOOTH",
"477 1353 OFFCURVE",
"508 1156 OFFCURVE",
"511 1067 CURVE",
"447 1101 OFFCURVE",
"322 1199 OFFCURVE",
"283 1218 CURVE SMOOTH",
"253 1233 OFFCURVE",
"230 1238 OFFCURVE",
"213 1238 CURVE SMOOTH",
"155 1238 OFFCURVE",
"89 1207 OFFCURVE",
"78 1131 CURVE SMOOTH",
"70 1075 OFFCURVE",
"107 1024 OFFCURVE",
"160 1006 CURVE SMOOTH",
"202 991 OFFCURVE",
"412 998 OFFCURVE",
"476 989 CURVE",
"444 961 OFFCURVE",
"385 906 OFFCURVE",
"334 866 CURVE SMOOTH"
);
}
);
width = 987;
}
);
unicode = 002A;
},
{
glyphname = numbersign;
layers = (
{
layerId = "BDB4B313-38B1-4B24-B843-560B185382BD";
paths = (
{
closed = 1;
nodes = (
"350 0 LINE",
"495 420 LINE",
"827 420 LINE",
"682 0 LINE",
"807 0 LINE",
"952 420 LINE",
"1246 420 LINE",
"1261 526 LINE",
"987 526 LINE",
"1118 900 LINE",
"1391 900 LINE",
"1407 1006 LINE",
"1154 1006 LINE",
"1299 1419 LINE",
"1172 1419 LINE",
"1028 1006 LINE",
"697 1006 LINE",
"842 1419 LINE",
"715 1419 LINE",
"571 1006 LINE",
"277 1006 LINE",
"261 900 LINE",
"535 900 LINE",
"405 526 LINE",
"151 526 LINE",
"136 420 LINE",
"370 420 LINE",
"225 0 LINE"
);
},
{
closed = 1;
nodes = (
"661 900 LINE",
"992 900 LINE",
"862 526 LINE",
"530 526 LINE"
);
}
);
width = 1440;
}
);
unicode = 0023;
},
{
glyphname = slash;
layers = (
{
layerId = "BDB4B313-38B1-4B24-B843-560B185382BD";
paths = (
{
closed = 1;
nodes = (
"145 -340 LINE",
"1018 1547 LINE",
"881 1547 LINE",
"10 -340 LINE"
);
}
);
width = 967;
}
);
unicode = 002F;
},
{
glyphname = backslash;
layers = (
{
layerId = "BDB4B313-38B1-4B24-B843-560B185382BD";
paths = (
{
closed = 1;
nodes = (
"734 -340 LINE",
"61 1547 LINE",
"198 1547 LINE",
"869 -340 LINE"
);
}
);
width = 967;
}
);
unicode = 005C;
},
{
glyphname = parenleft;
layers = (
{
layerId = "BDB4B313-38B1-4B24-B843-560B185382BD";
paths = (
{
closed = 1;
nodes = (
"125 -14 OFFCURVE",
"377 -295 OFFCURVE",
"606 -340 CURVE",
"621 -257 LINE",
"454 -98 OFFCURVE",
"431 219 OFFCURVE",
"431 446 CURVE SMOOTH",
"431 983 OFFCURVE",
"660 1414 OFFCURVE",
"951 1463 CURVE",
"987 1550 LINE",
"533 1572 OFFCURVE",
"125 1064 OFFCURVE",
"125 485 CURVE SMOOTH"
);
}
);
width = 915;
}
);
unicode = 0028;
},
{
glyphname = braceleft;
layers = (
{
layerId = "BDB4B313-38B1-4B24-B843-560B185382BD";
paths = (
{
closed = 1;
nodes = (
"223 -251 OFFCURVE",
"403 -328 OFFCURVE",
"543 -328 CURVE SMOOTH",
"786 -328 LINE",
"800 -241 LINE",
"687 -241 LINE SMOOTH",
"579 -241 OFFCURVE",
"556 -148 OFFCURVE",
"568 -72 CURVE SMOOTH",
"633 335 LINE SMOOTH",
"658 498 OFFCURVE",
"546 575 OFFCURVE",
"378 603 CURVE",
"556 630 OFFCURVE",
"693 710 OFFCURVE",
"719 873 CURVE SMOOTH",
"783 1280 LINE SMOOTH",
"798 1356 OFFCURVE",
"851 1449 OFFCURVE",
"957 1449 CURVE SMOOTH",
"1070 1449 LINE",
"1083 1536 LINE",
"840 1536 LINE SMOOTH",
"700 1536 OFFCURVE",
"497 1459 OFFCURVE",
"461 1237 CURVE SMOOTH",
"399 850 LINE SMOOTH",
"382 741 OFFCURVE",
"274 659 OFFCURVE",
"149 659 CURVE SMOOTH",
"119 659 LINE",
"102 549 LINE",
"132 549 LINE SMOOTH",
"257 549 OFFCURVE",
"338 467 OFFCURVE",
"321 358 CURVE SMOOTH",
"258 -29 LINE SMOOTH"
);
}
);
width = 1024;
}
);
unicode = 007B;
},
{
glyphname = braceright;
layers = (
{
layerId = "BDB4B313-38B1-4B24-B843-560B185382BD";
paths = (
{
closed = 1;
nodes = (
"807 1459 OFFCURVE",
"629 1536 OFFCURVE",
"489 1536 CURVE SMOOTH",
"246 1536 LINE",
"229 1449 LINE",
"342 1449 LINE SMOOTH",
"450 1449 OFFCURVE",
"471 1356 OFFCURVE",
"458 1280 CURVE",
"383 873 LINE",
"354 710 OFFCURVE",
"465 633 OFFCURVE",
"632 605 CURVE",
"455 578 OFFCURVE",
"315 498 OFFCURVE",
"285 335 CURVE SMOOTH",
"211 -72 LINE SMOOTH",
"197 -148 OFFCURVE",
"142 -241 OFFCURVE",
"35 -241 CURVE SMOOTH",
"-77 -241 LINE",
"-93 -328 LINE",
"148 -328 LINE SMOOTH",
"288 -328 OFFCURVE",
"493 -251 OFFCURVE",
"535 -29 CURVE",
"605 358 LINE SMOOTH",
"624 467 OFFCURVE",
"734 549 OFFCURVE",
"859 549 CURVE SMOOTH",
"889 549 LINE",
"909 659 LINE",
"879 659 LINE SMOOTH",
"754 659 OFFCURVE",
"676 741 OFFCURVE",
"695 850 CURVE",
"766 1237 LINE"
);
}
);
width = 1024;
}
);
unicode = 007D;
},
{
glyphname = bracketleft;
layers = (
{
layerId = "BDB4B313-38B1-4B24-B843-560B185382BD";
paths = (
{
closed = 1;
nodes = (
"673 -328 LINE",
"687 -231 LINE",
"438 -231 LINE",
"673 1439 LINE",
"922 1439 LINE",
"935 1536 LINE",
"376 1535 LINE",
"115 -327 LINE"
);
}
);
width = 915;
}
);
unicode = 005B;
},
{
glyphname = bracketright;
layers = (
{
layerId = "BDB4B313-38B1-4B24-B843-560B185382BD";
paths = (
{
closed = 1;
nodes = (
"267 1536 LINE",
"253 1439 LINE",
"502 1439 LINE",
"267 -231 LINE",
"18 -231 LINE",
"5 -328 LINE",
"564 -327 LINE",
"825 1535 LINE"
);
}
);
width = 915;
}
);
unicode = 005D;
},
{
glyphname = hyphen;
layers = (
{
layerId = "BDB4B313-38B1-4B24-B843-560B185382BD";
paths = (
{
closed = 1;
nodes = (
"654 496 LINE",
"673 632 LINE",
"116 632 LINE",
"97 496 LINE"
);
}
);
width = 776;
}
);
unicode = 002D;
},
{
glyphname = uni00AD;
layers = (
{
layerId = "BDB4B313-38B1-4B24-B843-560B185382BD";
paths = (
{
closed = 1;
nodes = (
"654 496 LINE",
"673 632 LINE",
"116 632 LINE",
"97 496 LINE"
);
}
);
width = 776;
}
);
unicode = 00AD;
},
{
glyphname = endash;
layers = (
{
layerId = "BDB4B313-38B1-4B24-B843-560B185382BD";
paths = (
{
closed = 1;
nodes = (
"1266 496 LINE",
"1284 632 LINE",
"177 632 LINE",
"159 496 LINE"
);
}
);
width = 1440;
}
);
unicode = 2013;
},
{
glyphname = emdash;
layers = (
{
layerId = "BDB4B313-38B1-4B24-B843-560B185382BD";
paths = (
{
closed = 1;
nodes = (
"1712 496 LINE",
"1730 622 LINE",
"186 622 LINE",
"168 496 LINE"
);
}
);
width = 1901;
}
);
unicode = 2014;
},
{
glyphname = underscore;
layers = (
{
layerId = "BDB4B313-38B1-4B24-B843-560B185382BD";
paths = (
{
closed = 1;
nodes = (
"-182 -296 LINE",
"1244 -296 LINE",
"1259 -190 LINE",
"-167 -190 LINE"
);
}
);
width = 1440;
}
);
unicode = 005F;
},
{
glyphname = quoteright;
layers = (
{
layerId = "BDB4B313-38B1-4B24-B843-560B185382BD";
paths = (
{
closed = 1;
nodes = (
"352 1390 OFFCURVE",
"229 1396 OFFCURVE",
"229 1508 CURVE SMOOTH",
"229 1648 OFFCURVE",
"299 1701 OFFCURVE",
"406 1701 CURVE SMOOTH",
"492 1701 OFFCURVE",
"574 1628 OFFCURVE",
"574 1501 CURVE SMOOTH",
"574 1244 OFFCURVE",
"429 1097 OFFCURVE",
"281 976 CURVE SMOOTH",
"238 941 OFFCURVE",
"151 987 OFFCURVE",
"203 1047 CURVE SMOOTH",
"343 1208 OFFCURVE",
"357 1325 OFFCURVE",
"353 1377 CURVE SMOOTH"
);
}
);
width = 551;
}
);
unicode = 2019;
},
{
glyphname = quotereversed;
layers = (
{
layerId = "BDB4B313-38B1-4B24-B843-560B185382BD";
paths = (
{
closed = 1;
nodes = (
"330 1381 OFFCURVE",
"481 1417 OFFCURVE",
"481 1548 CURVE SMOOTH",
"481 1651 OFFCURVE",
"429 1701 OFFCURVE",
"334 1701 CURVE SMOOTH",
"251 1701 OFFCURVE",
"147 1654 OFFCURVE",
"122 1476 CURVE SMOOTH",
"93 1270 OFFCURVE",
"213 1023 OFFCURVE",
"285 976 CURVE SMOOTH",
"326 949 OFFCURVE",
"410 987 OFFCURVE",
"373 1047 CURVE SMOOTH",
"298 1169 OFFCURVE",
"307 1315 OFFCURVE",
"325 1367 CURVE SMOOTH"
);
}
);
width = 551;
}
);
unicode = 201B;
},
{
glyphname = guilsinglleft;
layers = (
{
layerId = "BDB4B313-38B1-4B24-B843-560B185382BD";
paths = (
{
closed = 1;
nodes = (
"535 70 LINE",
"566 214 LINE",
"338 544 LINE",
"641 865 LINE",
"672 1041 LINE",
"79 614 LINE",
"62 495 LINE"
);
}
);
width = 811;
}
);
unicode = 2039;
},
{
glyphname = quotesingle;
layers = (
{
layerId = "BDB4B313-38B1-4B24-B843-560B185382BD";
paths = (
{
closed = 1;
nodes = (
"310 967 LINE",
"372 1148 OFFCURVE",
"490 1457 OFFCURVE",
"502 1522 CURVE SMOOTH",
"517 1612 OFFCURVE",
"476 1681 OFFCURVE",
"371 1681 CURVE SMOOTH",
"273 1681 OFFCURVE",
"205 1613 OFFCURVE",
"200 1522 CURVE SMOOTH",
"197 1457 OFFCURVE",
"233 1148 OFFCURVE",
"230 967 CURVE"
);
}
);
width = 551;
}
);
unicode = 0027;
},
{
glyphname = .notdef;
layers = (
{
layerId = "BDB4B313-38B1-4B24-B843-560B185382BD";
paths = (
{
closed = 1;
nodes = (
"1802 0 LINE",
"1802 1547 LINE",
"246 1547 LINE",
"246 0 LINE"
);
},
{
closed = 1;
nodes = (
"352 1457 LINE",
"1696 1457 LINE",
"1696 90 LINE",
"352 90 LINE"
);
},
{
closed = 1;
nodes = (
"663 312 LINE",
"1024 678 LINE",
"1385 312 LINE",
"1477 397 LINE",
"1112 767 LINE",
"1477 1138 LINE",
"1385 1224 LINE",
"1024 857 LINE",
"663 1224 LINE",
"571 1138 LINE",
"936 767 LINE",
"571 397 LINE"
);
}
);
width = 2048;
}
);
},
{
glyphname = cent;
layers = (
{
components = (
{
name = c;
transform = "{1, 0, 0, 1, 65, 0}";
}
);
layerId = "BDB4B313-38B1-4B24-B843-560B185382BD";
paths = (
{
closed = 1;
nodes = (
"639 3 LINE",
"523 3 LINE",
"489 -245 LINE",
"605 -245 LINE"
);
},
{
closed = 1;
nodes = (
"680 1004 LINE",
"796 1004 LINE",
"836 1251 LINE",
"720 1251 LINE"
);
}
);
width = 1239;
}
);
unicode = 00A2;
},
{
glyphname = currency;
layers = (
{
layerId = "BDB4B313-38B1-4B24-B843-560B185382BD";
paths = (
{
closed = 1;
nodes = (
"355 374 OFFCURVE",
"492 211 OFFCURVE",
"709 211 CURVE SMOOTH",
"926 211 OFFCURVE",
"1065 374 OFFCURVE",
"1065 575 CURVE SMOOTH",
"1065 776 OFFCURVE",
"930 939 OFFCURVE",
"713 939 CURVE SMOOTH",
"496 939 OFFCURVE",
"355 776 OFFCURVE",
"355 575 CURVE SMOOTH"
);
},
{
closed = 1;
nodes = (
"872 433 OFFCURVE",
"813 364 OFFCURVE",
"711 364 CURVE SMOOTH",
"608 364 OFFCURVE",
"547 433 OFFCURVE",
"547 575 CURVE SMOOTH",
"547 717 OFFCURVE",
"605 786 OFFCURVE",
"708 786 CURVE SMOOTH",
"810 786 OFFCURVE",
"872 717 OFFCURVE",
"872 575 CURVE SMOOTH"
);
},
{
closed = 1;
nodes = (
"1070 87 LINE",
"1195 203 LINE",
"936 467 LINE",
"830 332 LINE"
);
},
{
closed = 1;
nodes = (
"350 1063 LINE",
"225 946 LINE",
"481 685 LINE",
"592 817 LINE"
);
},
{
closed = 1;
nodes = (
"225 203 LINE",
"350 87 LINE",
"595 336 LINE",
"471 454 LINE"
);
},
{
closed = 1;
nodes = (
"1195 946 LINE",
"1070 1063 LINE",
"828 817 LINE",
"937 684 LINE"
);
}
);
width = 1440;
}
);
unicode = 00A4;
},
{
glyphname = dollar;
layers = (
{
layerId = "BDB4B313-38B1-4B24-B843-560B185382BD";
paths = (
{
closed = 1;
nodes = (
"875 1572 LINE",
"759 1572 LINE",
"727 1344 LINE",
"843 1344 LINE"
);
},
{
closed = 1;
nodes = (
"639 3 LINE",
"523 3 LINE",
"489 -245 LINE",
"605 -245 LINE"
);
},
{
closed = 1;
nodes = (
"85 44 OFFCURVE",
"110 17 OFFCURVE",
"137 17 CURVE SMOOTH",
"155 17 OFFCURVE",
"185 29 OFFCURVE",
"207 56 CURVE SMOOTH",
"217 70 OFFCURVE",
"231 77 OFFCURVE",
"238 72 CURVE SMOOTH",
"293 34 OFFCURVE",
"458 -30 OFFCURVE",
"614 -30 CURVE SMOOTH",
"987 -30 OFFCURVE",
"1154 182 OFFCURVE",
"1154 376 CURVE SMOOTH",
"1154 583 OFFCURVE",
"989 707 OFFCURVE",
"833 806 CURVE SMOOTH",
"693 894 OFFCURVE",
"555 972 OFFCURVE",
"555 1106 CURVE SMOOTH",
"555 1240 OFFCURVE",
"636 1292 OFFCURVE",
"775 1292 CURVE SMOOTH",
"922 1292 OFFCURVE",
"1047 1221 OFFCURVE",
"1082 999 CURVE SMOOTH",
"1085 981 OFFCURVE",
"1118 969 OFFCURVE",
"1138 969 CURVE SMOOTH",
"1164 969 OFFCURVE",
"1187 973 OFFCURVE",
"1189 1025 CURVE SMOOTH",
"1194 1139 OFFCURVE",
"1206 1255 OFFCURVE",
"1215 1324 CURVE SMOOTH",
"1217 1341 OFFCURVE",
"1191 1351 OFFCURVE",
"1161 1351 CURVE SMOOTH",
"1125 1351 OFFCURVE",
"1126 1305 OFFCURVE",
"1087 1305 CURVE SMOOTH",
"1081 1305 OFFCURVE",
"1063 1307 OFFCURVE",
"1054 1312 CURVE SMOOTH",
"1026 1325 OFFCURVE",
"914 1367 OFFCURVE",
"779 1367 CURVE SMOOTH",
"465 1367 OFFCURVE",
"268 1218 OFFCURVE",
"268 1004 CURVE SMOOTH",
"268 811 OFFCURVE",
"417 681 OFFCURVE",
"559 581 CURVE",
"710 477 OFFCURVE",
"866 396 OFFCURVE",
"866 262 CURVE SMOOTH",
"866 110 OFFCURVE",
"770 54 OFFCURVE",
"601 54 CURVE SMOOTH",
"464 54 OFFCURVE",
"332 117 OFFCURVE",
"288 260 CURVE SMOOTH",
"259 353 OFFCURVE",
"258 418 OFFCURVE",
"256 450 CURVE",
"256 475 OFFCURVE",
"222 489 OFFCURVE",
"200 489 CURVE SMOOTH",
"175 489 OFFCURVE",
"146 483 OFFCURVE",
"145 443 CURVE",
"141 368 OFFCURVE",
"120 200 OFFCURVE",
"90 66 CURVE SMOOTH"
);
}
);
width = 1313;
}
);
unicode = 0024;
},
{
glyphname = euro;
lastChange = "2018-05-14 02:35:16 +0000";
layers = (
{
layerId = "BDB4B313-38B1-4B24-B843-560B185382BD";
paths = (
{
closed = 1;
nodes = (
"1259 1354 OFFCURVE",
"1310 1200 OFFCURVE",
"1331 1031 CURVE SMOOTH",
"1334 1008 OFFCURVE",
"1350 1001 OFFCURVE",
"1370 1001 CURVE SMOOTH",
"1380 1001 OFFCURVE",
"1428 1011 OFFCURVE",
"1431 1041 CURVE",
"1471 1362 LINE",
"1400 1393 OFFCURVE",
"1273 1450 OFFCURVE",
"996 1450 CURVE SMOOTH",
"683 1450 OFFCURVE",
"175 1196 OFFCURVE",
"175 564 CURVE SMOOTH",
"175 114 OFFCURVE",
"513 -30 OFFCURVE",
"809 -30 CURVE SMOOTH",
"1085 -30 OFFCURVE",
"1282 80 OFFCURVE",
"1290 108 CURVE SMOOTH",
"1383 463 LINE",
"1383 464 OFFCURVE",
"1383 464 OFFCURVE",
"1383 465 CURVE SMOOTH",
"1383 487 OFFCURVE",
"1341 497 OFFCURVE",
"1326 497 CURVE SMOOTH",
"1304 497 OFFCURVE",
"1290 490 OFFCURVE",
"1285 464 CURVE",
"1206 264 OFFCURVE",
"1078 65 OFFCURVE",
"822 65 CURVE SMOOTH",
"722 65 OFFCURVE",
"526 131 OFFCURVE",
"526 516 CURVE SMOOTH",
"526 1083 OFFCURVE",
"772 1354 OFFCURVE",
"961 1354 CURVE SMOOTH"
);
},
{
closed = 1;
nodes = (
"940 509 OFFCURVE",
"958 560 OFFCURVE",
"958 583 CURVE SMOOTH",
"958 596 OFFCURVE",
"951 609 OFFCURVE",
"938 609 CURVE SMOOTH",
"20 609 LINE",
"2 602 OFFCURVE",
"-12 573 OFFCURVE",
"-12 543 CURVE SMOOTH",
"-12 525 OFFCURVE",
"-8 503 OFFCURVE",
"5 502 CURVE",
"923 502 LINE"
);
},
{
closed = 1;
nodes = (
"1003 826 OFFCURVE",
"1022 877 OFFCURVE",
"1022 899 CURVE SMOOTH",
"1022 913 OFFCURVE",
"1017 927 OFFCURVE",
"1003 927 CURVE SMOOTH",
"85 927 LINE",
"69 920 OFFCURVE",
"52 892 OFFCURVE",
"52 864 CURVE SMOOTH",
"52 847 OFFCURVE",
"57 820 OFFCURVE",
"70 820 CURVE SMOOTH",
"988 820 LINE"
);
}
);
width = 1464;
}
);
unicode = 20AC;
},
{
glyphname = florin;
layers = (
{
layerId = "BDB4B313-38B1-4B24-B843-560B185382BD";
paths = (
{
closed = 1;
nodes = (
"1009 527 OFFCURVE",
"1024 569 OFFCURVE",
"1028 594 CURVE SMOOTH",
"1030 610 OFFCURVE",
"1025 627 OFFCURVE",
"1009 628 CURVE",
"250 628 LINE",
"235 622 OFFCURVE",
"222 600 OFFCURVE",
"218 575 CURVE SMOOTH",
"216 559 OFFCURVE",
"219 522 OFFCURVE",
"235 521 CURVE",
"994 521 LINE"
);
},
{
closed = 1;
nodes = (
"1137 994 OFFCURVE",
"1148 993 OFFCURVE",
"1148 993 CURVE",
"1216 992 OFFCURVE",
"1293 1050 OFFCURVE",
"1298 1144 CURVE SMOOTH",
"1302 1236 OFFCURVE",
"1199 1317 OFFCURVE",
"1055 1317 CURVE SMOOTH",
"713 1317 OFFCURVE",
"538 1077 OFFCURVE",
"476 819 CURVE SMOOTH",
"276 18 LINE SMOOTH",
"229 -172 OFFCURVE",
"195 -305 OFFCURVE",
"127 -325 CURVE",
"-26 -139 LINE",
"-30 -136 OFFCURVE",
"-46 -120 OFFCURVE",
"-76 -120 CURVE SMOOTH",
"-143 -119 OFFCURVE",
"-203 -184 OFFCURVE",
"-206 -268 CURVE SMOOTH",
"-210 -360 OFFCURVE",
"-148 -448 OFFCURVE",
"43 -448 CURVE SMOOTH",
"353 -448 OFFCURVE",
"523 -206 OFFCURVE",
"587 50 CURVE SMOOTH",
"786 851 LINE SMOOTH",
"843 1079 OFFCURVE",
"880 1172 OFFCURVE",
"971 1192 CURVE",
"1137 997 LINE"
);
}
);
width = 1186;
}
);
unicode = 0192;
},
{
glyphname = sterling;
layers = (
{
layerId = "BDB4B313-38B1-4B24-B843-560B185382BD";
paths = (
{
closed = 1;
nodes = (
"-22 32 OFFCURVE",
"40 0 OFFCURVE",
"93 0 CURVE SMOOTH",
"192 0 OFFCURVE",
"254 5 OFFCURVE",
"349 87 CURVE",
"437 83 OFFCURVE",
"503 -16 OFFCURVE",
"830 -16 CURVE SMOOTH",
"1070 -16 OFFCURVE",
"1357 69 OFFCURVE",
"1357 301 CURVE SMOOTH",
"1357 391 OFFCURVE",
"1318 510 OFFCURVE",
"1179 510 CURVE SMOOTH",
"1088 510 OFFCURVE",
"1044 431 OFFCURVE",
"1044 431 CURVE",
"1085 259 LINE",
"1049 152 OFFCURVE",
"943 80 OFFCURVE",
"755 88 CURVE SMOOTH",
"612 95 OFFCURVE",
"526 119 OFFCURVE",
"439 158 CURVE",
"604 266 OFFCURVE",
"664 390 OFFCURVE",
"701 626 CURVE SMOOTH",
"733 893 LINE SMOOTH",
"789 1252 OFFCURVE",
"829 1366 OFFCURVE",
"947 1366 CURVE SMOOTH",
"993 1366 OFFCURVE",
"1000 1360 OFFCURVE",
"1021 1350 CURVE",
"1145 1128 LINE SMOOTH",
"1161 1100 OFFCURVE",
"1200 1099 OFFCURVE",
"1232 1099 CURVE SMOOTH",
"1289 1099 OFFCURVE",
"1330 1131 OFFCURVE",
"1330 1233 CURVE SMOOTH",
"1330 1333 OFFCURVE",
"1234 1448 OFFCURVE",
"1028 1448 CURVE SMOOTH",
"577 1448 OFFCURVE",
"426 1213 OFFCURVE",
"387 871 CURVE SMOOTH",
"350 547 LINE SMOOTH",
"326 337 OFFCURVE",
"331 284 OFFCURVE",
"289 241 CURVE",
"148 235 OFFCURVE",
"-22 197 OFFCURVE",
"-22 91 CURVE SMOOTH"
);
},
{
closed = 1;
nodes = (
"991 685 OFFCURVE",
"1006 727 OFFCURVE",
"1010 752 CURVE SMOOTH",
"1012 768 OFFCURVE",
"1007 785 OFFCURVE",
"991 786 CURVE",
"182 786 LINE",
"167 780 OFFCURVE",
"154 758 OFFCURVE",
"150 733 CURVE SMOOTH",
"148 717 OFFCURVE",
"151 680 OFFCURVE",
"167 679 CURVE",
"976 679 LINE"
);
}
);
width = 1413;
}
);
unicode = 00A3;
},
{
glyphname = yen;
layers = (
{
layerId = "BDB4B313-38B1-4B24-B843-560B185382BD";
paths = (
{
closed = 1;
nodes = (
"652 1333 OFFCURVE",
"734 1336 OFFCURVE",
"825 1341 CURVE",
"851 1344 OFFCURVE",
"860 1357 OFFCURVE",
"863 1378 CURVE SMOOTH",
"865 1393 OFFCURVE",
"858 1419 OFFCURVE",
"835 1419 CURVE SMOOTH",
"130 1419 LINE SMOOTH",
"108 1419 OFFCURVE",
"92 1393 OFFCURVE",
"90 1378 CURVE SMOOTH",
"86 1348 OFFCURVE",
"93 1344 OFFCURVE",
"121 1341 CURVE SMOOTH",
"169 1336 OFFCURVE",
"268 1333 OFFCURVE",
"310 1254 CURVE SMOOTH",
"671 544 LINE",
"767 546 LINE",
"860 789 LINE",
"669 1287 LINE SMOOTH"
);
},
{
closed = 1;
nodes = (
"767 546 LINE",
"1433 1254 LINE SMOOTH",
"1500 1326 OFFCURVE",
"1555 1336 OFFCURVE",
"1606 1341 CURVE SMOOTH",
"1634 1344 OFFCURVE",
"1643 1348 OFFCURVE",
"1647 1378 CURVE SMOOTH",
"1649 1393 OFFCURVE",
"1641 1419 OFFCURVE",
"1619 1419 CURVE SMOOTH",
"1194 1419 LINE SMOOTH",
"1171 1419 OFFCURVE",
"1156 1393 OFFCURVE",
"1154 1378 CURVE SMOOTH",
"1151 1357 OFFCURVE",
"1156 1344 OFFCURVE",
"1182 1341 CURVE",
"1271 1336 OFFCURVE",
"1349 1327 OFFCURVE",
"1312 1287 CURVE SMOOTH",
"853 789 LINE"
);
},
{
closed = 1;
nodes = (
"529 152 LINE SMOOTH",
"519 81 OFFCURVE",
"408 93 OFFCURVE",
"340 88 CURVE",
"314 85 OFFCURVE",
"295 72 OFFCURVE",
"292 51 CURVE SMOOTH",
"290 36 OFFCURVE",
"296 0 OFFCURVE",
"319 0 CURVE SMOOTH",
"1014 0 LINE SMOOTH",
"1036 0 OFFCURVE",
"1053 36 OFFCURVE",
"1055 51 CURVE SMOOTH",
"1059 81 OFFCURVE",
"1041 85 OFFCURVE",
"1014 88 CURVE",
"948 93 OFFCURVE",
"825 79 OFFCURVE",
"837 165 CURVE SMOOTH",
"917 780 LINE",
"611 780 LINE"
);
},
{
closed = 1;
nodes = (
"1309 635 OFFCURVE",
"1324 667 OFFCURVE",
"1328 692 CURVE SMOOTH",
"1331 708 OFFCURVE",
"1325 735 OFFCURVE",
"1309 736 CURVE",
"185 736 LINE",
"172 736 OFFCURVE",
"157 709 OFFCURVE",
"153 684 CURVE SMOOTH",
"150 668 OFFCURVE",
"156 636 OFFCURVE",
"172 635 CURVE",
"1296 635 LINE SMOOTH"
);
},
{
closed = 1;
nodes = (
"1260 300 LINE",
"1261 300 LINE",
"1274 300 OFFCURVE",
"1289 335 OFFCURVE",
"1293 360 CURVE SMOOTH",
"1296 376 OFFCURVE",
"1290 403 OFFCURVE",
"1274 404 CURVE",
"150 404 LINE",
"137 404 OFFCURVE",
"122 377 OFFCURVE",
"118 352 CURVE SMOOTH",
"115 336 OFFCURVE",
"121 301 OFFCURVE",
"137 300 CURVE",
"136 300 LINE"
);
}
);
width = 1499;
}
);
unicode = 00A5;
},
{
glyphname = plus;
layers = (
{
layerId = "BDB4B313-38B1-4B24-B843-560B185382BD";
paths = (
{
closed = 1;
nodes = (
"808 1062 LINE",
"642 1062 LINE",
"642 75 LINE",
"808 75 LINE"
);
},
{
closed = 1;
nodes = (
"1210 501 LINE",
"1210 647 LINE",
"240 647 LINE",
"240 501 LINE"
);
}
);
width = 1440;
}
);
unicode = 002B;
},
{
glyphname = minus;
layers = (
{
layerId = "BDB4B313-38B1-4B24-B843-560B185382BD";
paths = (
{
closed = 1;
nodes = (
"1171 496 LINE",
"1189 622 LINE",
"274 622 LINE",
"256 496 LINE"
);
}
);
width = 1440;
}
);
unicode = 2212;
},
{
glyphname = multiply;
layers = (
{
layerId = "BDB4B313-38B1-4B24-B843-560B185382BD";
paths = (
{
closed = 1;
nodes = (
"1090 103 LINE",
"1192 208 LINE",
"368 1045 LINE",
"266 939 LINE"
);
},
{
closed = 1;
nodes = (
"266 208 LINE",
"368 103 LINE",
"1192 939 LINE",
"1090 1045 LINE"
);
}
);
width = 1440;
}
);
unicode = 00D7;
},
{
glyphname = divide;
layers = (
{
components = (
{
name = period;
transform = "{1, 0, 0, 1, 398, 787}";
},
{
name = period;
transform = "{1, 0, 0, 1, 398, 20}";
}
);
layerId = "BDB4B313-38B1-4B24-B843-560B185382BD";
paths = (
{
closed = 1;
nodes = (
"1210 501 LINE",
"1210 647 LINE",
"240 647 LINE",
"240 501 LINE"
);
}
);
width = 1440;
}
);
unicode = 00F7;
},
{
glyphname = equal;
layers = (
{
layerId = "BDB4B313-38B1-4B24-B843-560B185382BD";
paths = (
{
closed = 1;
nodes = (
"1200 700 LINE",
"1200 846 LINE",
"230 846 LINE",
"230 700 LINE"
);
},
{
closed = 1;
nodes = (
"1200 272 LINE",
"1200 418 LINE",
"230 418 LINE",
"230 272 LINE"
);
}
);
width = 1440;
}
);
unicode = 003D;
},
{
glyphname = notequal;
layers = (
{
components = (
{
name = equal;
transform = "{1, 0, 0, 1, -10, 0}";
}
);
layerId = "BDB4B313-38B1-4B24-B843-560B185382BD";
paths = (
{
closed = 1;
nodes = (
"398 0 LINE",
"553 0 LINE",
"1022 1159 LINE",
"865 1159 LINE"
);
}
);
width = 1440;
}
);
unicode = 2260;
},
{
glyphname = less;
layers = (
{
layerId = "BDB4B313-38B1-4B24-B843-560B185382BD";
paths = (
{
closed = 1;
nodes = (
"221 633 LINE",
"221 514 LINE",
"1219 -11 LINE",
"1219 163 LINE",
"419 570 LINE",
"1219 984 LINE",
"1219 1160 LINE"
);
}
);
width = 1440;
}
);
unicode = 003C;
},
{
glyphname = lessequal;
layers = (
{
layerId = "BDB4B313-38B1-4B24-B843-560B185382BD";
paths = (
{
closed = 1;
nodes = (
"259 814 LINE",
"259 695 LINE",
"1177 260 LINE",
"1177 454 LINE",
"507 753 LINE",
"1177 1055 LINE",
"1177 1251 LINE"
);
},
{
closed = 1;
nodes = (
"1190 0 LINE",
"1190 146 LINE",
"280 146 LINE",
"280 0 LINE"
);
}
);
width = 1440;
}
);
unicode = 2264;
},
{
glyphname = plusminus;
layers = (
{
layerId = "BDB4B313-38B1-4B24-B843-560B185382BD";
paths = (
{
closed = 1;
nodes = (
"1180 0 LINE",
"1180 146 LINE",
"270 146 LINE",
"270 0 LINE"
);
},
{
closed = 1;
nodes = (
"1210 501 LINE",
"1210 647 LINE",
"240 647 LINE",
"240 501 LINE"
);
},
{
closed = 1;
nodes = (
"808 1062 LINE",
"642 1062 LINE",
"642 75 LINE",
"808 75 LINE"
);
}
);
width = 1440;
}
);
unicode = 00B1;
},
{
glyphname = asciitilde;
layers = (
{
layerId = "BDB4B313-38B1-4B24-B843-560B185382BD";
paths = (
{
closed = 1;
nodes = (
"1190 636 OFFCURVE",
"1209 672 OFFCURVE",
"1200 685 CURVE SMOOTH",
"1185 705 OFFCURVE",
"1162 726 OFFCURVE",
"1147 723 CURVE",
"1095 702 OFFCURVE",
"1024 524 OFFCURVE",
"797 629 CURVE SMOOTH",
"707 670 OFFCURVE",
"638 725 OFFCURVE",
"529 725 CURVE SMOOTH",
"397 725 OFFCURVE",
"307 606 OFFCURVE",
"249 508 CURVE SMOOTH",
"241 495 OFFCURVE",
"241 459 OFFCURVE",
"250 446 CURVE SMOOTH",
"265 426 OFFCURVE",
"288 405 OFFCURVE",
"303 408 CURVE",
"355 429 OFFCURVE",
"407 604 OFFCURVE",
"635 501 CURVE SMOOTH",
"728 459 OFFCURVE",
"799 405 OFFCURVE",
"913 405 CURVE SMOOTH",
"1049 405 OFFCURVE",
"1131 512 OFFCURVE",
"1183 622 CURVE SMOOTH"
);
}
);
width = 1440;
}
);
unicode = 007E;
},
{
glyphname = logicalnot;
layers = (
{
layerId = "BDB4B313-38B1-4B24-B843-560B185382BD";
paths = (
{
closed = 1;
nodes = (
"1188 501 LINE",
"1032 622 LINE",
"1032 125 LINE",
"1188 125 LINE"
);
},
{
closed = 1;
nodes = (
"1188 501 LINE",
"1188 647 LINE",
"218 647 LINE",
"218 501 LINE"
);
}
);
width = 1440;
}
);
unicode = 00AC;
},
{
glyphname = asciicircum;
layers = (
{
layerId = "BDB4B313-38B1-4B24-B843-560B185382BD";
paths = (
{
closed = 1;
nodes = (
"313 300 LINE",
"802 1260 LINE",
"1069 300 LINE",
"1215 300 LINE",
"877 1428 LINE",
"758 1428 LINE",
"144 300 LINE"
);
}
);
width = 1440;
}
);
unicode = 005E;
},
{
glyphname = infinity;
layers = (
{
layerId = "BDB4B313-38B1-4B24-B843-560B185382BD";
paths = (
{
closed = 1;
nodes = (
"231 1046 OFFCURVE",
"44 879 OFFCURVE",
"44 559 CURVE SMOOTH",
"44 308 OFFCURVE",
"175 102 OFFCURVE",
"402 102 CURVE SMOOTH",
"568 102 OFFCURVE",
"693 219 OFFCURVE",
"755 380 CURVE",
"851 226 OFFCURVE",
"990 102 OFFCURVE",
"1163 102 CURVE SMOOTH",
"1403 102 OFFCURVE",
"1590 269 OFFCURVE",
"1590 589 CURVE SMOOTH",
"1590 860 OFFCURVE",
"1494 1046 OFFCURVE",
"1232 1046 CURVE SMOOTH",
"1083 1046 OFFCURVE",
"930 919 OFFCURVE",
"877 768 CURVE",
"777 942 OFFCURVE",
"647 1046 OFFCURVE",
"471 1046 CURVE SMOOTH"
);
},
{
closed = 1;
nodes = (
"1298 817 OFFCURVE",
"1485 780 OFFCURVE",
"1485 586 CURVE SMOOTH",
"1485 419 OFFCURVE",
"1377 349 OFFCURVE",
"1228 349 CURVE SMOOTH",
"1056 349 OFFCURVE",
"952 604 OFFCURVE",
"926 675 CURVE",
"959 747 OFFCURVE",
"1056 817 OFFCURVE",
"1183 817 CURVE SMOOTH"
);
},
{
closed = 1;
nodes = (
"281 341 OFFCURVE",
"150 427 OFFCURVE",
"150 562 CURVE SMOOTH",
"150 743 OFFCURVE",
"269 819 OFFCURVE",
"406 819 CURVE SMOOTH",
"561 819 OFFCURVE",
"644 574 OFFCURVE",
"706 466 CURVE",
"669 404 OFFCURVE",
"564 341 OFFCURVE",
"421 341 CURVE SMOOTH"
);
}
);
width = 1636;
}
);
unicode = 221E;
},
{
glyphname = integral;
layers = (
{
layerId = "BDB4B313-38B1-4B24-B843-560B185382BD";
paths = (
{
closed = 1;
nodes = (
"801 1378 OFFCURVE",
"833 1446 OFFCURVE",
"859 1468 CURVE",
"1088 1272 LINE",
"1088 1270 OFFCURVE",
"1099 1269 OFFCURVE",
"1099 1269 CURVE",
"1164 1268 OFFCURVE",
"1226 1342 OFFCURVE",
"1217 1421 CURVE SMOOTH",
"1209 1499 OFFCURVE",
"1138 1573 OFFCURVE",
"955 1573 CURVE SMOOTH",
"661 1573 OFFCURVE",
"485 1305 OFFCURVE",
"485 1025 CURVE SMOOTH",
"485 18 LINE SMOOTH",
"485 -292 OFFCURVE",
"456 -336 OFFCURVE",
"433 -350 CURVE",
"197 -147 LINE",
"197 -145 OFFCURVE",
"186 -144 OFFCURVE",
"186 -144 CURVE",
"121 -143 OFFCURVE",
"59 -217 OFFCURVE",
"68 -296 CURVE SMOOTH",
"76 -374 OFFCURVE",
"147 -448 OFFCURVE",
"330 -448 CURVE SMOOTH",
"624 -448 OFFCURVE",
"801 -170 OFFCURVE",
"801 120 CURVE SMOOTH",
"801 1107 LINE SMOOTH"
);
}
);
width = 1286;
}
);
unicode = 222B;
},
{
glyphname = Omega;
layers = (
{
layerId = "BDB4B313-38B1-4B24-B843-560B185382BD";
paths = (
{
closed = 1;
nodes = (
"752 0 LINE",
"753 99 LINE",
"624 194 OFFCURVE",
"524 389 OFFCURVE",
"524 680 CURVE SMOOTH",
"524 1106 OFFCURVE",
"697 1336 OFFCURVE",
"991 1336 CURVE SMOOTH",
"1166 1336 OFFCURVE",
"1325 1227 OFFCURVE",
"1325 989 CURVE SMOOTH",
"1325 576 OFFCURVE",
"1134 225 OFFCURVE",
"913 99 CURVE",
"889 0 LINE",
"1625 0 LINE",
"1719 391 LINE SMOOTH",
"1720 393 OFFCURVE",
"1720 395 OFFCURVE",
"1720 398 CURVE SMOOTH",
"1720 416 OFFCURVE",
"1695 425 OFFCURVE",
"1682 425 CURVE SMOOTH",
"1661 425 OFFCURVE",
"1643 416 OFFCURVE",
"1631 392 CURVE",
"1559 283 OFFCURVE",
"1510 190 OFFCURVE",
"1417 190 CURVE SMOOTH",
"1148 190 LINE",
"1353 318 OFFCURVE",
"1654 625 OFFCURVE",
"1654 964 CURVE SMOOTH",
"1654 1302 OFFCURVE",
"1311 1451 OFFCURVE",
"1004 1451 CURVE SMOOTH",
"519 1451 OFFCURVE",
"201 1161 OFFCURVE",
"201 764 CURVE SMOOTH",
"201 529 OFFCURVE",
"408 267 OFFCURVE",
"515 190 CURVE",
"308 190 LINE SMOOTH",
"215 190 OFFCURVE",
"152 283 OFFCURVE",
"124 392 CURVE",
"120 416 OFFCURVE",
"106 425 OFFCURVE",
"85 425 CURVE SMOOTH",
"70 425 OFFCURVE",
"37 414 OFFCURVE",
"36 391 CURVE",
"38 0 LINE"
);
}
);
width = 1796;
}
);
unicode = 2126;
},
{
glyphname = Delta;
layers = (
{
layerId = "BDB4B313-38B1-4B24-B843-560B185382BD";
paths = (
{
closed = 1;
nodes = (
"1414 0 LINE",
"1434 27 LINE",
"929 1453 LINE",
"817 1453 LINE",
"-81 27 LINE",
"-72 0 LINE"
);
},
{
closed = 1;
nodes = (
"726 1127 LINE",
"1057 119 LINE",
"95 119 LINE"
);
}
);
width = 1524;
}
);
unicode = 2206;
},
{
glyphname = product;
layers = (
{
layerId = "BDB4B313-38B1-4B24-B843-560B185382BD";
paths = (
{
closed = 1;
nodes = (
"1626 1311 OFFCURVE",
"1709 1326 OFFCURVE",
"1771 1331 CURVE",
"1797 1334 OFFCURVE",
"1804 1347 OFFCURVE",
"1804 1368 CURVE SMOOTH",
"1804 1383 OFFCURVE",
"1793 1419 OFFCURVE",
"1770 1419 CURVE SMOOTH",
"172 1419 LINE SMOOTH",
"149 1419 OFFCURVE",
"138 1383 OFFCURVE",
"138 1368 CURVE SMOOTH",
"138 1338 OFFCURVE",
"146 1334 OFFCURVE",
"174 1331 CURVE SMOOTH",
"235 1326 OFFCURVE",
"315 1320 OFFCURVE",
"315 1234 CURVE SMOOTH",
"314 -263 LINE SMOOTH",
"314 -307 OFFCURVE",
"223 -322 OFFCURVE",
"159 -327 CURVE",
"133 -330 OFFCURVE",
"126 -363 OFFCURVE",
"126 -384 CURVE SMOOTH",
"126 -399 OFFCURVE",
"137 -415 OFFCURVE",
"160 -415 CURVE SMOOTH",
"805 -415 LINE SMOOTH",
"828 -415 OFFCURVE",
"839 -399 OFFCURVE",
"839 -384 CURVE SMOOTH",
"839 -354 OFFCURVE",
"831 -330 OFFCURVE",
"803 -327 CURVE SMOOTH",
"742 -322 OFFCURVE",
"651 -316 OFFCURVE",
"651 -230 CURVE SMOOTH",
"652 1312 LINE",
"1289 1312 LINE",
"1288 -263 LINE SMOOTH",
"1288 -307 OFFCURVE",
"1207 -322 OFFCURVE",
"1143 -327 CURVE",
"1117 -330 OFFCURVE",
"1110 -363 OFFCURVE",
"1110 -384 CURVE SMOOTH",
"1110 -399 OFFCURVE",
"1121 -415 OFFCURVE",
"1144 -415 CURVE SMOOTH",
"1799 -415 LINE SMOOTH",
"1822 -415 OFFCURVE",
"1833 -399 OFFCURVE",
"1833 -384 CURVE SMOOTH",
"1833 -354 OFFCURVE",
"1825 -330 OFFCURVE",
"1797 -327 CURVE SMOOTH",
"1736 -322 OFFCURVE",
"1625 -316 OFFCURVE",
"1625 -230 CURVE SMOOTH",
"1626 1267 LINE SMOOTH"
);
}
);
width = 1911;
}
);
unicode = 220F;
},
{
glyphname = summation;
layers = (
{
layerId = "BDB4B313-38B1-4B24-B843-560B185382BD";
paths = (
{
closed = 1;
nodes = (
"1062 -123 LINE SMOOTH",
"1150 -123 OFFCURVE",
"1182 -39 OFFCURVE",
"1255 114 CURVE SMOOTH",
"1266 138 OFFCURVE",
"1282 147 OFFCURVE",
"1303 147 CURVE SMOOTH",
"1318 147 OFFCURVE",
"1365 136 OFFCURVE",
"1366 113 CURVE",
"1269 -375 LINE",
"1258 -402 OFFCURVE",
"1244 -415 OFFCURVE",
"1224 -416 CURVE",
"93 -416 LINE SMOOTH",
"70 -416 OFFCURVE",
"59 -401 OFFCURVE",
"59 -376 CURVE SMOOTH",
"59 -363 OFFCURVE",
"65 -347 OFFCURVE",
"101 -293 CURVE",
"631 445 LINE",
"65 1340 LINE SMOOTH",
"59 1350 OFFCURVE",
"55 1366 OFFCURVE",
"55 1377 CURVE SMOOTH",
"55 1401 OFFCURVE",
"68 1419 OFFCURVE",
"88 1419 CURVE SMOOTH",
"1261 1419 LINE",
"1281 1418 OFFCURVE",
"1296 1405 OFFCURVE",
"1308 1378 CURVE",
"1337 1050 LINE",
"1337 1027 OFFCURVE",
"1301 1016 OFFCURVE",
"1286 1016 CURVE SMOOTH",
"1265 1016 OFFCURVE",
"1218 1023 OFFCURVE",
"1209 1049 CURVE SMOOTH",
"1164 1173 OFFCURVE",
"1125 1323 OFFCURVE",
"982 1323 CURVE SMOOTH",
"454 1323 LINE",
"872 668 LINE SMOOTH",
"895 632 OFFCURVE",
"892 611 OFFCURVE",
"868 578 CURVE SMOOTH",
"360 -123 LINE"
);
}
);
width = 1493;
}
);
unicode = 2211;
},
{
glyphname = radical;
layers = (
{
layerId = "BDB4B313-38B1-4B24-B843-560B185382BD";
paths = (
{
closed = 1;
nodes = (
"670 -127 LINE",
"1723 1801 LINE",
"1589 1801 LINE",
"740 247 LINE",
"598 815 LINE",
"207 815 LINE SMOOTH",
"185 815 OFFCURVE",
"170 799 OFFCURVE",
"168 784 CURVE SMOOTH",
"161 754 OFFCURVE",
"169 750 OFFCURVE",
"196 747 CURVE SMOOTH",
"244 742 OFFCURVE",
"308 718 OFFCURVE",
"330 650 CURVE SMOOTH",
"586 -127 LINE"
);
}
);
width = 1440;
}
);
unicode = 221A;
},
{
glyphname = partialdiff;
layers = (
{
layerId = "BDB4B313-38B1-4B24-B843-560B185382BD";
paths = (
{
closed = 1;
nodes = (
"531 1449 OFFCURVE",
"379 1416 OFFCURVE",
"292 1311 CURVE",
"203 1175 OFFCURVE",
"285 1060 OFFCURVE",
"390 1057 CURVE SMOOTH",
"460 1055 OFFCURVE",
"609 1345 OFFCURVE",
"629 1389 CURVE SMOOTH",
"650 1433 OFFCURVE",
"483 1355 OFFCURVE",
"488 1320 CURVE",
"488 1320 OFFCURVE",
"541 1354 OFFCURVE",
"652 1354 CURVE SMOOTH",
"850 1354 OFFCURVE",
"920 1125 OFFCURVE",
"920 864 CURVE SMOOTH",
"920 430 OFFCURVE",
"801 66 OFFCURVE",
"605 66 CURVE SMOOTH",
"418 66 OFFCURVE",
"427 306 OFFCURVE",
"427 329 CURVE SMOOTH",
"427 620 OFFCURVE",
"598 795 OFFCURVE",
"727 795 CURVE SMOOTH",
"832 795 OFFCURVE",
"939 690 OFFCURVE",
"979 574 CURVE",
"984 728 LINE",
"964 790 OFFCURVE",
"858 923 OFFCURVE",
"631 923 CURVE SMOOTH",
"313 923 OFFCURVE",
"101 672 OFFCURVE",
"101 395 CURVE SMOOTH",
"101 208 OFFCURVE",
"228 -29 OFFCURVE",
"588 -29 CURVE SMOOTH",
"1047 -29 OFFCURVE",
"1241 455 OFFCURVE",
"1241 845 CURVE SMOOTH",
"1241 1133 OFFCURVE",
"1070 1449 OFFCURVE",
"672 1449 CURVE SMOOTH"
);
}
);
width = 1325;
}
);
unicode = 2202;
},
{
glyphname = micro;
lastChange = "2018-05-14 03:42:26 +0000";
layers = (
{
layerId = "BDB4B313-38B1-4B24-B843-560B185382BD";
paths = (
{
closed = 1;
nodes = (
"272 24 OFFCURVE",
"366 -27 OFFCURVE",
"526 -27 CURVE SMOOTH",
"644 -27 OFFCURVE",
"782 66 OFFCURVE",
"822 131 CURVE",
"809 39 LINE",
"807 7 OFFCURVE",
"822 -1 OFFCURVE",
"833 -1 CURVE SMOOTH",
"914 0 OFFCURVE",
"1079 1 OFFCURVE",
"1270 9 CURVE SMOOTH",
"1286 10 OFFCURVE",
"1296 27 OFFCURVE",
"1299 43 CURVE SMOOTH",
"1302 68 OFFCURVE",
"1293 77 OFFCURVE",
"1280 83 CURVE",
"1228 97 OFFCURVE",
"1131 84 OFFCURVE",
"1149 208 CURVE SMOOTH",
"1254 960 LINE SMOOTH",
"1257 981 OFFCURVE",
"1250 996 OFFCURVE",
"1222 996 CURVE SMOOTH",
"829 996 LINE SMOOTH",
"807 996 OFFCURVE",
"793 980 OFFCURVE",
"791 965 CURVE SMOOTH",
"787 935 OFFCURVE",
"794 931 OFFCURVE",
"822 928 CURVE SMOOTH",
"871 923 OFFCURVE",
"932 917 OFFCURVE",
"920 831 CURVE SMOOTH",
"840 260 LINE",
"770 190 OFFCURVE",
"688 113 OFFCURVE",
"576 113 CURVE SMOOTH",
"458 113 OFFCURVE",
"458 252 OFFCURVE",
"464 301 CURVE SMOOTH",
"556 960 LINE SMOOTH",
"559 981 OFFCURVE",
"552 996 OFFCURVE",
"524 996 CURVE SMOOTH",
"131 996 LINE SMOOTH",
"109 996 OFFCURVE",
"95 980 OFFCURVE",
"93 965 CURVE SMOOTH",
"89 935 OFFCURVE",
"96 931 OFFCURVE",
"124 928 CURVE SMOOTH",
"172 923 OFFCURVE",
"232 917 OFFCURVE",
"220 831 CURVE SMOOTH",
"154 358 LINE SMOOTH",
"113 65 OFFCURVE",
"5 -240 OFFCURVE",
"-5 -307 CURVE SMOOTH",
"-16 -385 OFFCURVE",
"13 -446 OFFCURVE",
"87 -446 CURVE SMOOTH",
"160 -446 OFFCURVE",
"206 -385 OFFCURVE",
"217 -307 CURVE SMOOTH",
"224 -259 OFFCURVE",
"206 -89 OFFCURVE",
"211 111 CURVE"
);
}
);
width = 1372;
}
);
unicode = 00B5;
},
{
glyphname = percent;
layers = (
{
layerId = "BDB4B313-38B1-4B24-B843-560B185382BD";
paths = (
{
closed = 1;
nodes = (
"691 711 OFFCURVE",
"866 892 OFFCURVE",
"866 1130 CURVE SMOOTH",
"866 1328 OFFCURVE",
"731 1449 OFFCURVE",
"504 1449 CURVE SMOOTH",
"212 1449 OFFCURVE",
"42 1257 OFFCURVE",
"42 1023 CURVE SMOOTH",
"42 830 OFFCURVE",
"174 711 OFFCURVE",
"396 711 CURVE SMOOTH"
);
},
{
closed = 1;
nodes = (
"310 798 OFFCURVE",
"269 852 OFFCURVE",
"269 984 CURVE SMOOTH",
"269 1175 OFFCURVE",
"334 1362 OFFCURVE",
"488 1362 CURVE SMOOTH",
"586 1362 OFFCURVE",
"628 1306 OFFCURVE",
"628 1170 CURVE SMOOTH",
"628 1031 OFFCURVE",
"595 798 OFFCURVE",
"409 798 CURVE SMOOTH"
);
},
{
closed = 1;
nodes = (
"1534 -28 OFFCURVE",
"1699 153 OFFCURVE",
"1699 391 CURVE SMOOTH",
"1699 589 OFFCURVE",
"1564 710 OFFCURVE",
"1337 710 CURVE SMOOTH",
"1045 710 OFFCURVE",
"875 518 OFFCURVE",
"875 284 CURVE SMOOTH",
"875 91 OFFCURVE",
"1007 -28 OFFCURVE",
"1229 -28 CURVE SMOOTH"
);
},
{
closed = 1;
nodes = (
"1143 59 OFFCURVE",
"1102 113 OFFCURVE",
"1102 245 CURVE SMOOTH",
"1102 436 OFFCURVE",
"1167 623 OFFCURVE",
"1321 623 CURVE SMOOTH",
"1419 623 OFFCURVE",
"1461 567 OFFCURVE",
"1461 431 CURVE SMOOTH",
"1461 292 OFFCURVE",
"1428 59 OFFCURVE",
"1242 59 CURVE SMOOTH"
);
},
{
closed = 1;
nodes = (
"1411 1419 LINE",
"1244 1419 LINE",
"308 0 LINE",
"473 0 LINE"
);
}
);
width = 1800;
}
);
unicode = 0025;
},
{
glyphname = perthousand;
layers = (
{
components = (
{
name = percent;
}
);
layerId = "BDB4B313-38B1-4B24-B843-560B185382BD";
paths = (
{
closed = 1;
nodes = (
"2439 -28 OFFCURVE",
"2604 153 OFFCURVE",
"2604 391 CURVE SMOOTH",
"2604 589 OFFCURVE",
"2469 710 OFFCURVE",
"2242 710 CURVE SMOOTH",
"1950 710 OFFCURVE",
"1780 518 OFFCURVE",
"1780 284 CURVE SMOOTH",
"1780 91 OFFCURVE",
"1912 -28 OFFCURVE",
"2134 -28 CURVE SMOOTH"
);
},
{
closed = 1;
nodes = (
"2048 59 OFFCURVE",
"2007 113 OFFCURVE",
"2007 245 CURVE SMOOTH",
"2007 436 OFFCURVE",
"2072 623 OFFCURVE",
"2226 623 CURVE SMOOTH",
"2324 623 OFFCURVE",
"2366 567 OFFCURVE",
"2366 431 CURVE SMOOTH",
"2366 292 OFFCURVE",
"2333 59 OFFCURVE",
"2147 59 CURVE SMOOTH"
);
}
);
width = 2697;
}
);
unicode = 2030;
},
{
glyphname = uni2215;
layers = (
{
layerId = "BDB4B313-38B1-4B24-B843-560B185382BD";
paths = (
{
closed = 1;
nodes = (
"145 -340 LINE",
"1018 1547 LINE",
"881 1547 LINE",
"10 -340 LINE"
);
}
);
width = 967;
}
);
unicode = 2215;
},
{
glyphname = lozenge;
layers = (
{
layerId = "BDB4B313-38B1-4B24-B843-560B185382BD";
paths = (
{
closed = 1;
nodes = (
"653 1159 LINE",
"266 556 LINE",
"328 464 OFFCURVE",
"396 362 OFFCURVE",
"459 271 CURVE SMOOTH",
"653 -13 LINE",
"794 -13 LINE",
"987 271 LINE",
"1181 556 LINE",
"794 1159 LINE"
);
},
{
closed = 1;
nodes = (
"874 734 LINE",
"989 556 LINE",
"724 176 LINE",
"610 341 LINE",
"462 556 LINE",
"723 968 LINE"
);
}
);
width = 1470;
}
);
unicode = 25CA;
},
{
glyphname = at;
layers = (
{
layerId = "BDB4B313-38B1-4B24-B843-560B185382BD";
paths = (
{
closed = 1;
nodes = (
"1478 1341 OFFCURVE",
"1750 1166 OFFCURVE",
"1750 846 CURVE SMOOTH",
"1750 480 OFFCURVE",
"1468 220 OFFCURVE",
"1289 220 CURVE SMOOTH",
"1238 220 OFFCURVE",
"1232 263 OFFCURVE",
"1238 302 CURVE SMOOTH",
"1241 327 OFFCURVE",
"1248 350 OFFCURVE",
"1254 362 CURVE",
"1512 994 LINE",
"1288 994 LINE",
"1250 943 LINE",
"1231 984 OFFCURVE",
"1187 1014 OFFCURVE",
"1112 1014 CURVE SMOOTH",
"773 1013 OFFCURVE",
"539 682 OFFCURVE",
"539 361 CURVE SMOOTH",
"539 147 OFFCURVE",
"690 111 OFFCURVE",
"807 111 CURVE SMOOTH",
"874 111 OFFCURVE",
"966 141 OFFCURVE",
"1041 217 CURVE",
"1066 157 OFFCURVE",
"1131 103 OFFCURVE",
"1255 103 CURVE SMOOTH",
"1487 103 OFFCURVE",
"1894 388 OFFCURVE",
"1894 869 CURVE SMOOTH",
"1894 1268 OFFCURVE",
"1554 1449 OFFCURVE",
"1214 1449 CURVE SMOOTH",
"722 1449 OFFCURVE",
"131 1058 OFFCURVE",
"131 372 CURVE SMOOTH",
"131 -126 OFFCURVE",
"491 -330 OFFCURVE",
"923 -330 CURVE SMOOTH",
"1271 -330 OFFCURVE",
"1482 -150 OFFCURVE",
"1537 -100 CURVE",
"1483 -17 LINE",
"1426 -67 OFFCURVE",
"1253 -225 OFFCURVE",
"937 -225 CURVE SMOOTH",
"690 -225 OFFCURVE",
"284 -111 OFFCURVE",
"284 387 CURVE SMOOTH",
"284 1006 OFFCURVE",
"798 1341 OFFCURVE",
"1186 1341 CURVE SMOOTH"
);
},
{
closed = 1;
nodes = (
"977 283 OFFCURVE",
"898 222 OFFCURVE",
"850 222 CURVE SMOOTH",
"807 222 OFFCURVE",
"797 283 OFFCURVE",
"797 337 CURVE SMOOTH",
"797 475 OFFCURVE",
"900 916 OFFCURVE",
"1108 916 CURVE SMOOTH",
"1156 916 OFFCURVE",
"1178 879 OFFCURVE",
"1178 828 CURVE SMOOTH",
"1178 819 OFFCURVE",
"1177 809 OFFCURVE",
"1176 799 CURVE",
"1028 404 LINE"
);
}
);
width = 1980;
}
);
unicode = 0040;
},
{
glyphname = ampersand;
layers = (
{
layerId = "BDB4B313-38B1-4B24-B843-560B185382BD";
paths = (
{
closed = 1;
nodes = (
"1498 779 OFFCURVE",
"1561 818 OFFCURVE",
"1618 818 CURVE SMOOTH",
"1640 818 OFFCURVE",
"1653 831 OFFCURVE",
"1657 855 CURVE",
"1659 875 OFFCURVE",
"1651 896 OFFCURVE",
"1628 896 CURVE SMOOTH",
"1175 896 LINE SMOOTH",
"1152 896 OFFCURVE",
"1137 875 OFFCURVE",
"1136 855 CURVE SMOOTH",
"1133 834 OFFCURVE",
"1135 821 OFFCURVE",
"1161 818 CURVE SMOOTH",
"1215 811 OFFCURVE",
"1313 795 OFFCURVE",
"1300 718 CURVE SMOOTH",
"1296 702 OFFCURVE",
"1280 549 OFFCURVE",
"1131 367 CURVE SMOOTH",
"1093 324 OFFCURVE",
"1028 278 OFFCURVE",
"993 248 CURVE SMOOTH",
"877 141 OFFCURVE",
"767 131 OFFCURVE",
"653 131 CURVE SMOOTH",
"498 131 OFFCURVE",
"405 240 OFFCURVE",
"405 351 CURVE SMOOTH",
"405 676 OFFCURVE",
"647 705 OFFCURVE",
"828 804 CURVE SMOOTH",
"993 894 OFFCURVE",
"1211 1044 OFFCURVE",
"1211 1232 CURVE SMOOTH",
"1211 1368 OFFCURVE",
"1076 1458 OFFCURVE",
"844 1458 CURVE SMOOTH",
"601 1458 OFFCURVE",
"348 1334 OFFCURVE",
"348 1073 CURVE SMOOTH",
"348 869 OFFCURVE",
"507 730 OFFCURVE",
"610 585 CURVE SMOOTH",
"706 450 OFFCURVE",
"1062 10 OFFCURVE",
"1074 0 CURVE",
"1541 0 LINE SMOOTH",
"1564 0 OFFCURVE",
"1577 21 OFFCURVE",
"1580 41 CURVE SMOOTH",
"1584 71 OFFCURVE",
"1577 76 OFFCURVE",
"1549 78 CURVE SMOOTH",
"1458 86 OFFCURVE",
"1376 162 OFFCURVE",
"1333 212 CURVE SMOOTH",
"1255 303 OFFCURVE",
"823 827 OFFCURVE",
"751 928 CURVE SMOOTH",
"683 1013 OFFCURVE",
"664 1088 OFFCURVE",
"664 1152 CURVE SMOOTH",
"664 1298 OFFCURVE",
"725 1369 OFFCURVE",
"855 1369 CURVE SMOOTH",
"965 1369 OFFCURVE",
"1001 1259 OFFCURVE",
"989 1192 CURVE SMOOTH",
"979 1119 OFFCURVE",
"936 967 OFFCURVE",
"774 891 CURVE SMOOTH",
"397 715 OFFCURVE",
"53 626 OFFCURVE",
"53 307 CURVE SMOOTH",
"53 146 OFFCURVE",
"210 -39 OFFCURVE",
"571 -39 CURVE SMOOTH",
"771 -39 OFFCURVE",
"956 61 OFFCURVE",
"1081 192 CURVE",
"1122 231 OFFCURVE",
"1195 262 OFFCURVE",
"1225 300 CURVE SMOOTH",
"1366 484 OFFCURVE",
"1397 609 OFFCURVE",
"1466 711 CURVE SMOOTH"
);
}
);
width = 1636;
}
);
unicode = 0026;
},
{
glyphname = paragraph;
layers = (
{
layerId = "BDB4B313-38B1-4B24-B843-560B185382BD";
paths = (
{
closed = 1;
nodes = (
"1011 -287 LINE SMOOTH",
"1049 -287 OFFCURVE",
"1053 -219 OFFCURVE",
"1053 -225 CURVE SMOOTH",
"1053 -211 OFFCURVE",
"1045 -201 OFFCURVE",
"1025 -199 CURVE SMOOTH",
"968 -194 OFFCURVE",
"898 -181 OFFCURVE",
"898 -140 CURVE SMOOTH",
"898 -139 OFFCURVE",
"898 -137 OFFCURVE",
"898 -135 CURVE SMOOTH",
"1101 1234 LINE SMOOTH",
"1114 1320 OFFCURVE",
"1176 1325 OFFCURVE",
"1237 1331 CURVE SMOOTH",
"1265 1333 OFFCURVE",
"1279 1339 OFFCURVE",
"1279 1375 CURVE SMOOTH",
"1279 1392 OFFCURVE",
"1273 1419 OFFCURVE",
"1253 1419 CURVE SMOOTH",
"815 1419 LINE",
"902 1357 LINE",
"659 -287 LINE"
);
},
{
closed = 1;
nodes = (
"389 1431 OFFCURVE",
"121 1271 OFFCURVE",
"121 935 CURVE SMOOTH",
"121 703 OFFCURVE",
"312 555 OFFCURVE",
"593 555 CURVE",
"701 1342 LINE",
"701 1342 OFFCURVE",
"897 1417 OFFCURVE",
"895 1419 CURVE",
"680 1421 LINE"
);
},
{
closed = 1;
nodes = (
"263 -188 OFFCURVE",
"164 -194 OFFCURVE",
"91 -199 CURVE SMOOTH",
"63 -201 OFFCURVE",
"49 -207 OFFCURVE",
"49 -242 CURVE SMOOTH",
"49 -259 OFFCURVE",
"56 -287 OFFCURVE",
"76 -287 CURVE SMOOTH",
"479 -287 LINE",
"714 1302 LINE",
"903 1302 LINE",
"923 1419 LINE",
"619 1380 LINE",
"492 1357 LINE",
"276 -102 LINE SMOOTH"
);
}
);
width = 1274;
}
);
unicode = 00B6;
},
{
glyphname = section;
layers = (
{
layerId = "BDB4B313-38B1-4B24-B843-560B185382BD";
paths = (
{
closed = 1;
nodes = (
"817 211 OFFCURVE",
"962 329 OFFCURVE",
"986 479 CURVE SMOOTH",
"1002 598 OFFCURVE",
"968 701 OFFCURVE",
"868 812 CURVE",
"688 998 OFFCURVE",
"531 1056 OFFCURVE",
"556 1221 CURVE SMOOTH",
"568 1299 OFFCURVE",
"621 1359 OFFCURVE",
"710 1359 CURVE SMOOTH",
"719 1359 OFFCURVE",
"729 1359 OFFCURVE",
"738 1357 CURVE",
"765 1389 LINE",
"703 1372 LINE",
"739 1292 OFFCURVE",
"825 1169 OFFCURVE",
"842 1139 CURVE",
"859 1114 OFFCURVE",
"885 1103 OFFCURVE",
"909 1103 CURVE SMOOTH",
"961 1103 OFFCURVE",
"1017 1149 OFFCURVE",
"1028 1220 CURVE SMOOTH",
"1048 1349 OFFCURVE",
"925 1449 OFFCURVE",
"717 1449 CURVE SMOOTH",
"488 1449 OFFCURVE",
"325 1320 OFFCURVE",
"301 1153 CURVE SMOOTH",
"269 944 OFFCURVE",
"430 837 OFFCURVE",
"653 642 CURVE SMOOTH",
"703 600 OFFCURVE",
"752 526 OFFCURVE",
"737 422 CURVE SMOOTH",
"729 374 OFFCURVE",
"694 302 OFFCURVE",
"657 257 CURVE",
"665 225 LINE",
"700 191 LINE"
);
},
{
closed = 1;
nodes = (
"327 877 OFFCURVE",
"183 759 OFFCURVE",
"160 609 CURVE SMOOTH",
"142 490 OFFCURVE",
"174 385 OFFCURVE",
"276 276 CURVE SMOOTH",
"454 87 OFFCURVE",
"614 32 OFFCURVE",
"588 -133 CURVE SMOOTH",
"578 -211 OFFCURVE",
"524 -271 OFFCURVE",
"435 -271 CURVE SMOOTH",
"426 -271 OFFCURVE",
"416 -271 OFFCURVE",
"408 -269 CURVE",
"380 -301 LINE",
"440 -284 LINE",
"407 -204 OFFCURVE",
"320 -81 OFFCURVE",
"301 -51 CURVE",
"286 -26 OFFCURVE",
"261 -15 OFFCURVE",
"237 -15 CURVE SMOOTH",
"185 -15 OFFCURVE",
"128 -61 OFFCURVE",
"116 -132 CURVE SMOOTH",
"98 -261 OFFCURVE",
"219 -361 OFFCURVE",
"427 -361 CURVE SMOOTH",
"656 -361 OFFCURVE",
"818 -232 OFFCURVE",
"845 -65 CURVE SMOOTH",
"874 144 OFFCURVE",
"714 251 OFFCURVE",
"490 446 CURVE SMOOTH",
"441 488 OFFCURVE",
"393 562 OFFCURVE",
"409 666 CURVE SMOOTH",
"416 714 OFFCURVE",
"451 786 OFFCURVE",
"487 831 CURVE",
"480 863 LINE",
"444 897 LINE"
);
}
);
width = 1153;
}
);
unicode = 00A7;
},
{
glyphname = copyright;
layers = (
{
layerId = "BDB4B313-38B1-4B24-B843-560B185382BD";
paths = (
{
closed = 1;
nodes = (
"1053 1030 OFFCURVE",
"1092 1001 OFFCURVE",
"1092 1001 CURVE",
"1112 978 OFFCURVE",
"1115 939 OFFCURVE",
"1131 904 CURVE SMOOTH",
"1147 869 OFFCURVE",
"1164 830 OFFCURVE",
"1220 830 CURVE SMOOTH",
"1264 830 OFFCURVE",
"1303 894 OFFCURVE",
"1231 1003 CURVE SMOOTH",
"1176 1087 OFFCURVE",
"1066 1104 OFFCURVE",
"1005 1104 CURVE SMOOTH",
"792 1104 OFFCURVE",
"627 985 OFFCURVE",
"627 718 CURVE SMOOTH",
"627 450 OFFCURVE",
"753 322 OFFCURVE",
"998 322 CURVE SMOOTH",
"1142 322 OFFCURVE",
"1243 393 OFFCURVE",
"1279 550 CURVE SMOOTH",
"1281 557 OFFCURVE",
"1280 569 OFFCURVE",
"1266 569 CURVE SMOOTH",
"1209 568 LINE SMOOTH",
"1199 568 OFFCURVE",
"1199 558 OFFCURVE",
"1197 551 CURVE SMOOTH",
"1170 427 OFFCURVE",
"1082 394 OFFCURVE",
"995 394 CURVE SMOOTH",
"904 394 OFFCURVE",
"774 452 OFFCURVE",
"774 710 CURVE SMOOTH",
"774 970 OFFCURVE",
"877 1030 OFFCURVE",
"1007 1030 CURVE SMOOTH"
);
},
{
closed = 1;
nodes = (
"253 315 OFFCURVE",
"570 -5 OFFCURVE",
"966 -5 CURVE SMOOTH",
"1361 -5 OFFCURVE",
"1679 315 OFFCURVE",
"1679 710 CURVE SMOOTH",
"1679 1106 OFFCURVE",
"1361 1426 OFFCURVE",
"966 1426 CURVE SMOOTH",
"570 1426 OFFCURVE",
"253 1106 OFFCURVE",
"253 710 CURVE SMOOTH"
);
},
{
closed = 1;
nodes = (
"347 1054 OFFCURVE",
"620 1344 OFFCURVE",
"967 1344 CURVE SMOOTH",
"1314 1344 OFFCURVE",
"1587 1058 OFFCURVE",
"1587 710 CURVE SMOOTH",
"1587 367 OFFCURVE",
"1310 75 OFFCURVE",
"967 75 CURVE SMOOTH",
"623 75 OFFCURVE",
"347 367 OFFCURVE",
"347 710 CURVE SMOOTH"
);
}
);
width = 1929;
}
);
unicode = 00A9;
},
{
glyphname = registered;
layers = (
{
layerId = "BDB4B313-38B1-4B24-B843-560B185382BD";
paths = (
{
closed = 1;
nodes = (
"877 1072 LINE",
"835 1093 LINE",
"652 1093 LINE SMOOTH",
"640 1093 OFFCURVE",
"634 1085 OFFCURVE",
"634 1077 CURVE SMOOTH",
"634 1061 OFFCURVE",
"638 1059 OFFCURVE",
"652 1057 CURVE",
"684 1055 OFFCURVE",
"727 1052 OFFCURVE",
"727 1007 CURVE SMOOTH",
"727 416 LINE SMOOTH",
"727 393 OFFCURVE",
"698 385 OFFCURVE",
"665 383 CURVE",
"651 381 OFFCURVE",
"648 366 OFFCURVE",
"648 356 CURVE SMOOTH",
"648 348 OFFCURVE",
"653 331 OFFCURVE",
"665 331 CURVE SMOOTH",
"943 331 LINE SMOOTH",
"955 331 OFFCURVE",
"960 348 OFFCURVE",
"960 356 CURVE SMOOTH",
"960 371 OFFCURVE",
"956 381 OFFCURVE",
"941 383 CURVE",
"904 385 OFFCURVE",
"862 388 OFFCURVE",
"862 433 CURVE SMOOTH",
"862 1064 LINE"
);
},
{
closed = 1;
nodes = (
"841 1012 LINE",
"841 1012 OFFCURVE",
"860 1012 OFFCURVE",
"937 1012 CURVE SMOOTH",
"1043 1012 OFFCURVE",
"1123 1012 OFFCURVE",
"1123 874 CURVE SMOOTH",
"1123 771 OFFCURVE",
"1062 719 OFFCURVE",
"933 719 CURVE SMOOTH",
"896 719 OFFCURVE",
"838 719 OFFCURVE",
"838 719 CURVE",
"838 719 OFFCURVE",
"838 646 OFFCURVE",
"838 646 CURVE",
"838 646 OFFCURVE",
"926 646 OFFCURVE",
"972 646 CURVE SMOOTH",
"1007 646 OFFCURVE",
"1042 655 OFFCURVE",
"1072 664 CURVE",
"1197 695 OFFCURVE",
"1259 771 OFFCURVE",
"1259 890 CURVE SMOOTH",
"1259 1044 OFFCURVE",
"1130 1093 OFFCURVE",
"977 1093 CURVE SMOOTH",
"835 1093 LINE"
);
},
{
closed = 1;
nodes = (
"253 315 OFFCURVE",
"570 -5 OFFCURVE",
"966 -5 CURVE SMOOTH",
"1361 -5 OFFCURVE",
"1679 315 OFFCURVE",
"1679 710 CURVE SMOOTH",
"1679 1106 OFFCURVE",
"1361 1426 OFFCURVE",
"966 1426 CURVE SMOOTH",
"570 1426 OFFCURVE",
"253 1106 OFFCURVE",
"253 710 CURVE SMOOTH"
);
},
{
closed = 1;
nodes = (
"347 1054 OFFCURVE",
"620 1344 OFFCURVE",
"967 1344 CURVE SMOOTH",
"1314 1344 OFFCURVE",
"1587 1058 OFFCURVE",
"1587 710 CURVE SMOOTH",
"1587 367 OFFCURVE",
"1310 75 OFFCURVE",
"967 75 CURVE SMOOTH",
"623 75 OFFCURVE",
"347 367 OFFCURVE",
"347 710 CURVE SMOOTH"
);
},
{
closed = 1;
nodes = (
"1005 632 OFFCURVE",
"1058 479 OFFCURVE",
"1114 371 CURVE",
"1131 353 OFFCURVE",
"1149 332 OFFCURVE",
"1190 332 CURVE SMOOTH",
"1300 332 LINE SMOOTH",
"1313 332 OFFCURVE",
"1321 342 OFFCURVE",
"1321 350 CURVE",
"1323 367 OFFCURVE",
"1324 380 OFFCURVE",
"1303 382 CURVE SMOOTH",
"1250 387 OFFCURVE",
"1215 467 OFFCURVE",
"1188 508 CURVE SMOOTH",
"1147 571 OFFCURVE",
"1115 649 OFFCURVE",
"1068 702 CURVE",
"943 683 LINE"
);
}
);
width = 1929;
}
);
unicode = 00AE;
},
{
glyphname = trademark;
layers = (
{
layerId = "BDB4B313-38B1-4B24-B843-560B185382BD";
paths = (
{
closed = 1;
nodes = (
"775 1350 OFFCURVE",
"820 1196 OFFCURVE",
"825 1159 CURVE SMOOTH",
"828 1133 OFFCURVE",
"841 1126 OFFCURVE",
"862 1126 CURVE SMOOTH",
"877 1126 OFFCURVE",
"903 1137 OFFCURVE",
"903 1160 CURVE",
"899 1249 OFFCURVE",
"878 1419 OFFCURVE",
"843 1419 CURVE SMOOTH",
"176 1419 LINE SMOOTH",
"141 1419 OFFCURVE",
"120 1249 OFFCURVE",
"116 1160 CURVE",
"116 1137 OFFCURVE",
"142 1126 OFFCURVE",
"157 1126 CURVE SMOOTH",
"178 1126 OFFCURVE",
"191 1133 OFFCURVE",
"194 1159 CURVE SMOOTH",
"199 1196 OFFCURVE",
"244 1350 OFFCURVE",
"358 1350 CURVE SMOOTH",
"411 1350 LINE",
"410 827 LINE SMOOTH",
"410 753 OFFCURVE",
"409 738 OFFCURVE",
"315 733 CURVE",
"289 730 OFFCURVE",
"282 717 OFFCURVE",
"282 696 CURVE SMOOTH",
"282 681 OFFCURVE",
"293 665 OFFCURVE",
"316 665 CURVE SMOOTH",
"711 665 LINE SMOOTH",
"734 665 OFFCURVE",
"745 681 OFFCURVE",
"745 696 CURVE SMOOTH",
"745 726 OFFCURVE",
"737 730 OFFCURVE",
"709 733 CURVE",
"628 738 OFFCURVE",
"607 744 OFFCURVE",
"607 830 CURVE SMOOTH",
"608 1350 LINE",
"661 1350 LINE SMOOTH"
);
},
{
closed = 1;
nodes = (
"1916 1331 OFFCURVE",
"1957 1346 OFFCURVE",
"1991 1351 CURVE SMOOTH",
"2017 1354 OFFCURVE",
"2024 1367 OFFCURVE",
"2024 1388 CURVE SMOOTH",
"2024 1403 OFFCURVE",
"2013 1419 OFFCURVE",
"1990 1419 CURVE SMOOTH",
"1840 1419 LINE",
"1680 1351 LINE",
"1725 1351 LINE",
"1724 798 LINE SMOOTH",
"1724 754 OFFCURVE",
"1683 739 OFFCURVE",
"1649 734 CURVE SMOOTH",
"1623 731 OFFCURVE",
"1616 726 OFFCURVE",
"1616 705 CURVE SMOOTH",
"1616 690 OFFCURVE",
"1627 666 OFFCURVE",
"1650 666 CURVE SMOOTH",
"1999 666 LINE SMOOTH",
"2022 666 OFFCURVE",
"2033 682 OFFCURVE",
"2033 697 CURVE SMOOTH",
"2033 727 OFFCURVE",
"2025 731 OFFCURVE",
"1997 734 CURVE SMOOTH",
"1960 739 OFFCURVE",
"1915 745 OFFCURVE",
"1915 831 CURVE SMOOTH",
"1916 1287 LINE SMOOTH"
);
},
{
closed = 1;
nodes = (
"965 1418 OFFCURVE",
"954 1403 OFFCURVE",
"954 1388 CURVE SMOOTH",
"954 1358 OFFCURVE",
"962 1354 OFFCURVE",
"990 1351 CURVE SMOOTH",
"1039 1346 OFFCURVE",
"1091 1340 OFFCURVE",
"1091 1254 CURVE SMOOTH",
"1091 830 LINE SMOOTH",
"1091 746 OFFCURVE",
"1045 739 OFFCURVE",
"996 734 CURVE SMOOTH",
"970 731 OFFCURVE",
"963 718 OFFCURVE",
"963 697 CURVE SMOOTH",
"963 682 OFFCURVE",
"974 666 OFFCURVE",
"997 666 CURVE SMOOTH",
"1312 666 LINE SMOOTH",
"1335 666 OFFCURVE",
"1346 682 OFFCURVE",
"1346 697 CURVE SMOOTH",
"1346 727 OFFCURVE",
"1338 731 OFFCURVE",
"1310 734 CURVE SMOOTH",
"1261 739 OFFCURVE",
"1198 745 OFFCURVE",
"1198 831 CURVE SMOOTH",
"1198 1281 LINE",
"1241 1281 LINE",
"1297 1292 OFFCURVE",
"1342 1328 OFFCURVE",
"1322 1419 CURVE",
"988 1419 LINE"
);
},
{
closed = 1;
nodes = (
"1443 850 LINE",
"1516 1020 LINE",
"1500 1102 LINE",
"1322 1419 LINE",
"1153 1339 LINE"
);
},
{
closed = 1;
nodes = (
"1494 850 LINE",
"1723 1361 LINE",
"1861 1351 LINE",
"1837 1419 LINE",
"1651 1419 LINE",
"1512 1102 LINE",
"1500 1102 LINE",
"1444 850 LINE"
);
}
);
width = 1939;
}
);
unicode = 2122;
},
{
glyphname = degree;
layers = (
{
layerId = "BDB4B313-38B1-4B24-B843-560B185382BD";
paths = (
{
closed = 1;
nodes = (
"105 908 OFFCURVE",
"245 767 OFFCURVE",
"451 767 CURVE SMOOTH",
"657 767 OFFCURVE",
"799 908 OFFCURVE",
"799 1113 CURVE SMOOTH",
"799 1318 OFFCURVE",
"661 1457 OFFCURVE",
"455 1457 CURVE SMOOTH",
"249 1457 OFFCURVE",
"105 1318 OFFCURVE",
"105 1113 CURVE SMOOTH"
);
},
{
closed = 1;
nodes = (
"264 1259 OFFCURVE",
"337 1329 OFFCURVE",
"450 1329 CURVE SMOOTH",
"562 1329 OFFCURVE",
"640 1259 OFFCURVE",
"640 1113 CURVE SMOOTH",
"640 967 OFFCURVE",
"565 895 OFFCURVE",
"453 895 CURVE SMOOTH",
"340 895 OFFCURVE",
"264 967 OFFCURVE",
"264 1113 CURVE SMOOTH"
);
}
);
width = 860;
}
);
unicode = 00B0;
},
{
glyphname = minute;
layers = (
{
layerId = "BDB4B313-38B1-4B24-B843-560B185382BD";
paths = (
{
closed = 1;
nodes = (
"482 1249 OFFCURVE",
"605 1405 OFFCURVE",
"626 1455 CURVE",
"650 1510 OFFCURVE",
"644 1596 OFFCURVE",
"562 1629 CURVE SMOOTH",
"479 1664 OFFCURVE",
"400 1608 OFFCURVE",
"376 1551 CURVE",
"358 1503 OFFCURVE",
"346 1292 OFFCURVE",
"246 997 CURVE",
"356 949 LINE"
);
}
);
width = 657;
}
);
unicode = 2032;
},
{
glyphname = bar;
layers = (
{
layerId = "BDB4B313-38B1-4B24-B843-560B185382BD";
paths = (
{
closed = 1;
nodes = (
"499 -367 LINE",
"354 -367 LINE",
"354 1535 LINE",
"499 1535 LINE"
);
}
);
width = 795;
}
);
unicode = 007C;
},
{
glyphname = brokenbar;
layers = (
{
layerId = "BDB4B313-38B1-4B24-B843-560B185382BD";
paths = (
{
closed = 1;
nodes = (
"499 765 LINE",
"354 765 LINE",
"354 1535 LINE",
"499 1535 LINE"
);
},
{
closed = 1;
nodes = (
"499 -369 LINE",
"354 -369 LINE",
"354 401 LINE",
"499 401 LINE"
);
}
);
width = 795;
}
);
unicode = 00A6;
},
{
glyphname = dagger;
layers = (
{
layerId = "BDB4B313-38B1-4B24-B843-560B185382BD";
paths = (
{
closed = 1;
nodes = (
"522 1056 LINE SMOOTH",
"510 1015 OFFCURVE",
"351 145 OFFCURVE",
"347 117 CURVE SMOOTH",
"338 51 OFFCURVE",
"364 0 OFFCURVE",
"431 0 CURVE SMOOTH",
"496 0 OFFCURVE",
"536 51 OFFCURVE",
"545 117 CURVE SMOOTH",
"549 145 OFFCURVE",
"614 1015 OFFCURVE",
"614 1056 CURVE SMOOTH",
"616 1090 LINE",
"623 1122 LINE SMOOTH",
"634 1165 OFFCURVE",
"729 1412 OFFCURVE",
"733 1440 CURVE SMOOTH",
"742 1506 OFFCURVE",
"704 1557 OFFCURVE",
"639 1557 CURVE SMOOTH",
"572 1557 OFFCURVE",
"521 1506 OFFCURVE",
"512 1440 CURVE SMOOTH",
"508 1412 OFFCURVE",
"530 1165 OFFCURVE",
"531 1122 CURVE SMOOTH",
"532 1091 LINE"
);
},
{
closed = 1;
nodes = (
"606 1054 LINE SMOOTH",
"648 1049 OFFCURVE",
"835 992 OFFCURVE",
"864 992 CURVE SMOOTH",
"929 992 OFFCURVE",
"986 1035 OFFCURVE",
"995 1101 CURVE SMOOTH",
"1005 1167 OFFCURVE",
"958 1201 OFFCURVE",
"893 1201 CURVE SMOOTH",
"864 1201 OFFCURVE",
"660 1135 OFFCURVE",
"616 1128 CURVE",
"588 1125 LINE",
"539 1128 LINE",
"497 1135 OFFCURVE",
"311 1201 OFFCURVE",
"283 1201 CURVE SMOOTH",
"217 1201 OFFCURVE",
"162 1167 OFFCURVE",
"152 1101 CURVE SMOOTH",
"143 1035 OFFCURVE",
"188 992 OFFCURVE",
"254 992 CURVE SMOOTH",
"282 992 OFFCURVE",
"485 1049 OFFCURVE",
"529 1054 CURVE SMOOTH",
"577 1056 LINE"
);
}
);
width = 987;
}
);
unicode = 2020;
},
{
glyphname = daggerdbl;
layers = (
{
layerId = "BDB4B313-38B1-4B24-B843-560B185382BD";
paths = (
{
closed = 1;
nodes = (
"637 929 OFFCURVE",
"614 1039 OFFCURVE",
"614 1056 CURVE SMOOTH",
"616 1090 LINE",
"623 1122 LINE SMOOTH",
"634 1165 OFFCURVE",
"733 1412 OFFCURVE",
"737 1440 CURVE SMOOTH",
"746 1506 OFFCURVE",
"708 1557 OFFCURVE",
"643 1557 CURVE SMOOTH",
"576 1557 OFFCURVE",
"525 1506 OFFCURVE",
"516 1440 CURVE SMOOTH",
"512 1412 OFFCURVE",
"530 1165 OFFCURVE",
"531 1122 CURVE SMOOTH",
"532 1091 LINE",
"522 1056 LINE SMOOTH",
"516 1039 OFFCURVE",
"485 903 OFFCURVE",
"441 757 CURVE",
"537 761 LINE",
"639 783 LINE"
);
},
{
closed = 1;
nodes = (
"595 1054 LINE SMOOTH",
"638 1049 OFFCURVE",
"835 992 OFFCURVE",
"864 992 CURVE SMOOTH",
"929 992 OFFCURVE",
"986 1035 OFFCURVE",
"995 1101 CURVE SMOOTH",
"1004 1167 OFFCURVE",
"958 1201 OFFCURVE",
"893 1201 CURVE SMOOTH",
"864 1201 OFFCURVE",
"650 1135 OFFCURVE",
"606 1128 CURVE",
"577 1125 LINE",
"539 1128 LINE",
"497 1135 OFFCURVE",
"311 1201 OFFCURVE",
"283 1201 CURVE SMOOTH",
"217 1201 OFFCURVE",
"161 1167 OFFCURVE",
"152 1101 CURVE SMOOTH",
"143 1035 OFFCURVE",
"188 992 OFFCURVE",
"254 992 CURVE SMOOTH",
"282 992 OFFCURVE",
"485 1049 OFFCURVE",
"528 1054 CURVE SMOOTH",
"567 1056 LINE"
);
},
{
closed = 1;
nodes = (
"441 757 LINE",
"444 610 OFFCURVE",
"451 475 OFFCURVE",
"452 457 CURVE SMOOTH",
"452 422 LINE",
"442 391 LINE SMOOTH",
"429 348 OFFCURVE",
"334 115 OFFCURVE",
"330 87 CURVE SMOOTH",
"321 21 OFFCURVE",
"358 -30 OFFCURVE",
"425 -30 CURVE SMOOTH",
"490 -30 OFFCURVE",
"542 21 OFFCURVE",
"551 87 CURVE SMOOTH",
"555 115 OFFCURVE",
"533 348 OFFCURVE",
"534 391 CURVE SMOOTH",
"536 423 LINE",
"544 457 LINE SMOOTH",
"549 475 OFFCURVE",
"596 636 OFFCURVE",
"639 783 CURVE",
"540 783 LINE"
);
},
{
closed = 1;
nodes = (
"427 464 OFFCURVE",
"230 521 OFFCURVE",
"202 521 CURVE SMOOTH",
"136 521 OFFCURVE",
"79 478 OFFCURVE",
"70 413 CURVE SMOOTH",
"60 346 OFFCURVE",
"106 312 OFFCURVE",
"172 312 CURVE SMOOTH",
"200 312 OFFCURVE",
"414 377 OFFCURVE",
"459 385 CURVE",
"488 388 LINE",
"516 385 LINE",
"557 377 OFFCURVE",
"753 312 OFFCURVE",
"782 312 CURVE SMOOTH",
"847 312 OFFCURVE",
"903 346 OFFCURVE",
"913 413 CURVE SMOOTH",
"922 478 OFFCURVE",
"877 521 OFFCURVE",
"812 521 CURVE SMOOTH",
"783 521 OFFCURVE",
"570 464 OFFCURVE",
"526 459 CURVE SMOOTH",
"497 457 LINE",
"469 459 LINE"
);
}
);
width = 987;
}
);
unicode = 2021;
},
{
glyphname = afii61352;
layers = (
{
layerId = "BDB4B313-38B1-4B24-B843-560B185382BD";
paths = (
{
closed = 1;
nodes = (
"2584 88 LINE",
"2598 174 LINE",
"1731 174 LINE",
"1717 88 LINE"
);
},
{
closed = 1;
nodes = (
"2660 510 OFFCURVE",
"2810 815 OFFCURVE",
"2810 1066 CURVE SMOOTH",
"2810 1274 OFFCURVE",
"2685 1434 OFFCURVE",
"2350 1434 CURVE SMOOTH",
"1944 1434 OFFCURVE",
"1793 1142 OFFCURVE",
"1793 889 CURVE SMOOTH",
"1793 679 OFFCURVE",
"1917 510 OFFCURVE",
"2253 510 CURVE SMOOTH"
);
},
{
closed = 1;
nodes = (
"2147 596 OFFCURVE",
"2081 693 OFFCURVE",
"2081 850 CURVE SMOOTH",
"2081 1012 OFFCURVE",
"2121 1347 OFFCURVE",
"2332 1347 CURVE SMOOTH",
"2450 1347 OFFCURVE",
"2519 1257 OFFCURVE",
"2519 1103 CURVE SMOOTH",
"2519 942 OFFCURVE",
"2476 596 OFFCURVE",
"2266 596 CURVE SMOOTH"
);
},
{
closed = 1;
nodes = (
"-70 36 OFFCURVE",
"-65 0 OFFCURVE",
"-42 0 CURVE SMOOTH",
"476 0 LINE SMOOTH",
"499 0 OFFCURVE",
"514 36 OFFCURVE",
"517 51 CURVE SMOOTH",
"523 81 OFFCURVE",
"515 85 OFFCURVE",
"488 88 CURVE SMOOTH",
"428 93 OFFCURVE",
"268 99 OFFCURVE",
"285 185 CURVE",
"449 1180 LINE",
"466 1180 LINE",
"1077 -8 LINE",
"1085 -20 OFFCURVE",
"1177 -30 OFFCURVE",
"1198 -30 CURVE SMOOTH",
"1275 -30 OFFCURVE",
"1339 -16 OFFCURVE",
"1356 40 CURVE",
"1360 78 OFFCURVE",
"1359 88 OFFCURVE",
"1363 113 CURVE SMOOTH",
"1543 1234 LINE",
"1561 1320 OFFCURVE",
"1693 1325 OFFCURVE",
"1754 1331 CURVE SMOOTH",
"1780 1334 OFFCURVE",
"1790 1347 OFFCURVE",
"1794 1368 CURVE SMOOTH",
"1797 1383 OFFCURVE",
"1793 1419 OFFCURVE",
"1770 1419 CURVE SMOOTH",
"1245 1419 LINE SMOOTH",
"1222 1419 OFFCURVE",
"1204 1383 OFFCURVE",
"1201 1368 CURVE SMOOTH",
"1196 1338 OFFCURVE",
"1202 1334 OFFCURVE",
"1230 1331 CURVE SMOOTH",
"1289 1326 OFFCURVE",
"1460 1320 OFFCURVE",
"1443 1234 CURVE",
"1302 308 LINE",
"1290 308 LINE",
"718 1419 LINE",
"217 1419 LINE SMOOTH",
"194 1419 OFFCURVE",
"176 1383 OFFCURVE",
"173 1368 CURVE SMOOTH",
"168 1338 OFFCURVE",
"174 1334 OFFCURVE",
"202 1331 CURVE SMOOTH",
"262 1326 OFFCURVE",
"373 1290 OFFCURVE",
"356 1204 CURVE",
"183 172 LINE",
"170 108 OFFCURVE",
"36 93 OFFCURVE",
"-27 88 CURVE",
"-54 85 OFFCURVE",
"-63 72 OFFCURVE",
"-67 51 CURVE SMOOTH"
);
}
);
width = 2869;
}
);
unicode = 2116;
},
{
glyphname = estimated;
layers = (
{
layerId = "BDB4B313-38B1-4B24-B843-560B185382BD";
paths = (
{
closed = 1;
nodes = (
"373 -33 OFFCURVE",
"118 194 OFFCURVE",
"118 606 CURVE SMOOTH",
"118 982 OFFCURVE",
"395 1217 OFFCURVE",
"699 1217 CURVE SMOOTH",
"1118 1217 OFFCURVE",
"1231 966 OFFCURVE",
"1231 629 CURVE",
"263 629 LINE",
"263 714 LINE",
"263 714 OFFCURVE",
"869 714 OFFCURVE",
"869 714 CURVE",
"869 1045 OFFCURVE",
"794 1121 OFFCURVE",
"698 1121 CURVE SMOOTH",
"581 1121 OFFCURVE",
"483 1034 OFFCURVE",
"483 616 CURVE SMOOTH",
"483 107 OFFCURVE",
"583 71 OFFCURVE",
"747 71 CURVE SMOOTH",
"880 71 OFFCURVE",
"1039 147 OFFCURVE",
"1101 274 CURVE SMOOTH",
"1105 282 OFFCURVE",
"1107 293 OFFCURVE",
"1120 290 CURVE",
"1179 257 LINE",
"1197 249 OFFCURVE",
"1188 237 OFFCURVE",
"1184 229 CURVE SMOOTH",
"1111 68 OFFCURVE",
"931 -33 OFFCURVE",
"721 -33 CURVE SMOOTH"
);
}
);
width = 1329;
}
);
unicode = 212E;
},
{
glyphname = uni02C9;
layers = (
{
anchors = (
{
name = _top;
position = "{515, 1700}";
}
);
layerId = "BDB4B313-38B1-4B24-B843-560B185382BD";
paths = (
{
closed = 1;
nodes = (
"794 1612 LINE",
"809 1773 LINE",
"227 1773 LINE",
"207 1612 LINE"
);
}
);
width = 1024;
}
);
unicode = 02C9;
},
{
glyphname = commaaccent;
layers = (
{
anchors = (
{
name = _btm;
position = "{678, -170}";
}
);
layerId = "BDB4B313-38B1-4B24-B843-560B185382BD";
paths = (
{
closed = 1;
nodes = (
"484 -284 OFFCURVE",
"599 -277 OFFCURVE",
"608 -284 CURVE",
"618 -323 OFFCURVE",
"572 -354 OFFCURVE",
"554 -372 CURVE SMOOTH",
"532 -388 OFFCURVE",
"525 -404 OFFCURVE",
"523 -416 CURVE SMOOTH",
"518 -437 OFFCURVE",
"559 -449 OFFCURVE",
"582 -449 CURVE SMOOTH",
"592 -449 OFFCURVE",
"601 -447 OFFCURVE",
"608 -443 CURVE SMOOTH",
"679 -409 OFFCURVE",
"806 -325 OFFCURVE",
"827 -205 CURVE SMOOTH",
"850 -79 OFFCURVE",
"771 -57 OFFCURVE",
"678 -57 CURVE SMOOTH",
"612 -57 OFFCURVE",
"522 -86 OFFCURVE",
"507 -163 CURVE SMOOTH"
);
}
);
width = 1024;
}
);
unicode = F6C3;
},
{
glyphname = acute;
layers = (
{
anchors = (
{
name = _top;
position = "{583, 1700}";
}
);
layerId = "BDB4B313-38B1-4B24-B843-560B185382BD";
paths = (
{
closed = 1;
nodes = (
"681 1254 OFFCURVE",
"871 1343 OFFCURVE",
"902 1373 CURVE SMOOTH",
"939 1407 OFFCURVE",
"953 1491 OFFCURVE",
"903 1544 CURVE SMOOTH",
"852 1598 OFFCURVE",
"762 1576 OFFCURVE",
"725 1541 CURVE SMOOTH",
"694 1511 OFFCURVE",
"575 1348 OFFCURVE",
"421 1159 CURVE",
"477 1101 LINE"
);
}
);
width = 1024;
}
);
unicode = 00B4;
},
